<?xml version="1.0" encoding="utf-8"?>
<!-- Generator: Adobe Illustrator 16.0.3, SVG Export Plug-In . SVG Version: 6.00 Build 0)  -->
<!DOCTYPE svg PUBLIC "-//W3C//DTD SVG 1.1//EN" "http://www.w3.org/Graphics/SVG/1.1/DTD/svg11.dtd">
<svg version="1.1" id="Layer_1" xmlns="http://www.w3.org/2000/svg" xmlns:xlink="http://www.w3.org/1999/xlink" x="0px" y="0px"
	 width="16px" height="16px" viewBox="0 0 16 16" enable-background="new 0 0 16 16" xml:space="preserve">
<path id="White_1_" fill="#999999" d="M14.459,0.739H1.541c-0.443,0-0.802,0.359-0.802,0.802v12.92c0,0.441,0.359,0.801,0.802,0.801
	h6.955V9.639H6.603V7.446h1.893V5.83c0-1.876,1.145-2.897,2.819-2.897c0.803,0,1.49,0.059,1.691,0.086v1.961l-1.16,0
	c-0.91,0-1.086,0.432-1.086,1.066v1.399h2.17l-0.283,2.193H10.76v5.623h3.699c0.443,0,0.803-0.359,0.803-0.801V1.541
	C15.262,1.098,14.902,0.739,14.459,0.739z"/>
</svg>
