<?xml version="1.0" encoding="utf-8"?>
<!-- Generator: Adobe Illustrator 16.0.3, SVG Export Plug-In . SVG Version: 6.00 Build 0)  -->
<!DOCTYPE svg PUBLIC "-//W3C//DTD SVG 1.1//EN" "http://www.w3.org/Graphics/SVG/1.1/DTD/svg11.dtd">
<svg version="1.1" id="Layer_1" xmlns="http://www.w3.org/2000/svg" xmlns:xlink="http://www.w3.org/1999/xlink" x="0px" y="0px"
	 width="16px" height="16px" viewBox="0 0 16 16" enable-background="new 0 0 16 16" xml:space="preserve">
<g>
	<path fill="#A9A9A9" d="M8.003,1.564c2.097,0,2.345,0.008,3.173,0.046c0.766,0.035,1.182,0.163,1.458,0.271
		c0.367,0.142,0.628,0.312,0.903,0.587c0.275,0.274,0.445,0.536,0.587,0.903c0.107,0.276,0.235,0.692,0.271,1.458
		c0.038,0.828,0.046,1.076,0.046,3.173s-0.008,2.345-0.046,3.173c-0.035,0.766-0.163,1.182-0.271,1.458
		c-0.142,0.367-0.312,0.628-0.587,0.903c-0.274,0.275-0.536,0.445-0.903,0.587c-0.276,0.107-0.692,0.235-1.458,0.271
		c-0.828,0.038-1.076,0.045-3.173,0.045s-2.345-0.008-3.173-0.045c-0.766-0.035-1.182-0.163-1.458-0.271
		c-0.367-0.142-0.628-0.312-0.903-0.587c-0.275-0.274-0.445-0.536-0.587-0.903c-0.107-0.276-0.235-0.692-0.271-1.458
		C1.573,10.348,1.564,10.1,1.564,8.003S1.573,5.658,1.611,4.83c0.035-0.766,0.163-1.182,0.271-1.458
		c0.142-0.367,0.312-0.628,0.587-0.903c0.275-0.275,0.537-0.445,0.903-0.587C3.648,1.774,4.064,1.646,4.83,1.611
		C5.658,1.573,5.906,1.564,8.003,1.564 M8.003,0.15c-2.133,0-2.4,0.009-3.237,0.047C3.929,0.235,3.359,0.368,2.858,0.562
		c-0.516,0.201-0.954,0.47-1.39,0.906C1.031,1.904,0.763,2.342,0.562,2.858c-0.194,0.5-0.327,1.07-0.365,1.906
		C0.159,5.603,0.15,5.87,0.15,8.003s0.009,2.4,0.047,3.237c0.038,0.837,0.171,1.407,0.365,1.906
		c0.201,0.517,0.469,0.955,0.906,1.392c0.436,0.436,0.874,0.705,1.39,0.905c0.5,0.195,1.07,0.328,1.907,0.365
		c0.837,0.038,1.104,0.048,3.237,0.048s2.4-0.01,3.237-0.048c0.836-0.037,1.407-0.17,1.907-0.365
		c0.516-0.201,0.954-0.469,1.39-0.905c0.437-0.437,0.705-0.875,0.906-1.392c0.195-0.5,0.328-1.069,0.365-1.906
		c0.039-0.837,0.048-1.104,0.048-3.237s-0.009-2.4-0.048-3.238c-0.037-0.836-0.17-1.406-0.365-1.906
		c-0.201-0.516-0.469-0.954-0.906-1.391c-0.436-0.436-0.874-0.705-1.39-0.906c-0.5-0.194-1.071-0.327-1.907-0.365
		C10.403,0.159,10.136,0.15,8.003,0.15L8.003,0.15z"/>
	<path fill="#A9A9A9" d="M8.003,3.97c-2.228,0-4.033,1.805-4.033,4.033s1.805,4.033,4.033,4.033s4.033-1.805,4.033-4.033
		S10.23,3.97,8.003,3.97z M8.003,10.621c-1.446,0-2.618-1.172-2.618-2.618s1.172-2.618,2.618-2.618s2.618,1.172,2.618,2.618
		S9.449,10.621,8.003,10.621z"/>
	<circle fill="#A9A9A9" cx="12.195" cy="3.811" r="0.942"/>
</g>
</svg>
