<?xml version="1.0" encoding="utf-8"?>
<!-- Generator: Adobe Illustrator 16.0.3, SVG Export Plug-In . SVG Version: 6.00 Build 0)  -->
<!DOCTYPE svg PUBLIC "-//W3C//DTD SVG 1.1//EN" "http://www.w3.org/Graphics/SVG/1.1/DTD/svg11.dtd">
<svg version="1.1" id="Layer_1" xmlns="http://www.w3.org/2000/svg" xmlns:xlink="http://www.w3.org/1999/xlink" x="0px" y="0px"
	 width="16px" height="16px" viewBox="0 0 16 16" enable-background="new 0 0 16 16" xml:space="preserve">
<g>
	<path fill="#999999" d="M0,14.184c0-4.194,0-8.387,0-12.58c0.01-0.035,0.023-0.067,0.031-0.102c0.165-0.766,0.625-1.249,1.38-1.453
		C1.476,0.031,1.54,0.016,1.604,0c4.193,0,8.387,0,12.58,0c0.028,0.01,0.056,0.023,0.085,0.029c0.775,0.159,1.263,0.622,1.469,1.382
		c0.017,0.065,0.032,0.128,0.049,0.192c0,4.193,0,8.386,0,12.58c-0.011,0.034-0.024,0.067-0.031,0.102
		c-0.135,0.732-0.687,1.305-1.41,1.46c-0.055,0.013-0.107,0.028-0.161,0.041c-4.193,0-8.387,0-12.58,0
		c-0.028-0.011-0.057-0.023-0.087-0.029c-0.74-0.133-1.303-0.667-1.471-1.396C0.031,14.301,0.015,14.242,0,14.184z M1.825,6.686
		C1.823,6.739,1.819,6.779,1.819,6.819c-0.001,2.168-0.001,4.337,0,6.505c0,0.393,0.262,0.643,0.668,0.643
		c3.602,0.001,7.202,0.001,10.805,0.001c0.428-0.001,0.674-0.251,0.674-0.684c0.001-2.142,0-4.285,0-6.427c0-0.056,0-0.11,0-0.169
		c-0.464,0-0.908,0-1.367,0c0.34,1.5,0.1,2.884-0.823,4.111c-0.925,1.228-2.177,1.882-3.718,1.941
		c-1.291,0.049-2.437-0.354-3.388-1.224C3.24,10.21,2.786,8.576,3.179,6.686C2.725,6.686,2.285,6.686,1.825,6.686z M10.931,7.898
		c0.007-1.674-1.354-3.039-3.036-3.042C6.223,4.855,4.871,6.198,4.856,7.88c-0.015,1.671,1.342,3.039,3.028,3.051
		C9.558,10.94,10.923,9.582,10.931,7.898z M12.457,1.818c-0.292,0-0.585-0.001-0.877,0c-0.389,0.003-0.646,0.242-0.652,0.627
		c-0.008,0.597-0.008,1.192,0,1.788c0.006,0.374,0.248,0.619,0.623,0.623c0.596,0.009,1.191,0.009,1.787,0.001
		c0.387-0.005,0.628-0.265,0.629-0.65c0.002-0.58,0.002-1.16,0-1.741c-0.001-0.39-0.255-0.645-0.646-0.648
		C13.032,1.816,12.745,1.818,12.457,1.818z"/>
</g>
</svg>
