<?xml version="1.0" encoding="utf-8"?>
<!-- Generator: Adobe Illustrator 16.0.3, SVG Export Plug-In . SVG Version: 6.00 Build 0)  -->
<!DOCTYPE svg PUBLIC "-//W3C//DTD SVG 1.1//EN" "http://www.w3.org/Graphics/SVG/1.1/DTD/svg11.dtd">
<svg version="1.1" id="Layer_1" xmlns="http://www.w3.org/2000/svg" xmlns:xlink="http://www.w3.org/1999/xlink" x="0px" y="0px"
	 width="16px" height="16px" viewBox="0 0 16 16" enable-background="new 0 0 16 16" xml:space="preserve">
<g>
	<defs>
		<rect id="SVGID_1_" x="-17.915" y="-16.292" width="51.682" height="48.156"/>
	</defs>
	<clipPath id="SVGID_2_">
		<use xlink:href="#SVGID_1_"  overflow="visible"/>
	</clipPath>
	<path clip-path="url(#SVGID_2_)" fill="#A9A9A9" d="M7.92,3.894c-2.146-0.02-3.901,1.704-3.922,3.848
		c-0.02,2.145,1.703,3.902,3.849,3.922c2.146,0.02,3.901-1.704,3.922-3.849C11.789,5.671,10.066,3.914,7.92,3.894 M7.866,9.746
		C6.778,9.736,5.906,8.847,5.917,7.76c0.01-1.085,0.899-1.958,1.986-1.948c1.086,0.01,1.959,0.901,1.948,1.986
		C9.841,8.886,8.951,9.756,7.866,9.746"/>
	<path clip-path="url(#SVGID_2_)" fill="#A9A9A9" d="M7.833,0.05c-0.012,0-0.025,0-0.038,0l0,0H2.822H1.186H0.742
		C0.389,0.05,0.1,0.338,0.1,0.691v0.396v1.267v5.428c0,4.271,3.463,7.735,7.733,7.735c4.271,0,7.732-3.463,7.732-7.735
		C15.566,3.513,12.104,0.05,7.833,0.05 M2.521,7.677C2.548,4.712,4.974,2.33,7.939,2.357c2.965,0.03,5.348,2.455,5.319,5.42
		c-0.028,2.965-2.455,5.348-5.419,5.319C4.874,13.067,2.493,10.642,2.521,7.677"/>
</g>
</svg>
