<?xml version="1.0" encoding="utf-8"?>
<!-- Generator: Adobe Illustrator 16.0.3, SVG Export Plug-In . SVG Version: 6.00 Build 0)  -->
<!DOCTYPE svg PUBLIC "-//W3C//DTD SVG 1.1//EN" "http://www.w3.org/Graphics/SVG/1.1/DTD/svg11.dtd">
<svg version="1.1" id="Layer_1" xmlns="http://www.w3.org/2000/svg" xmlns:xlink="http://www.w3.org/1999/xlink" x="0px" y="0px"
	 width="16px" height="16px" viewBox="0 0 16 16" enable-background="new 0 0 16 16" xml:space="preserve">
<path fill="#999999" d="M15.899,2.8c-0.591,0.264-1.232,0.445-1.906,0.525c0.689-0.414,1.211-1.065,1.461-1.841
	c-0.641,0.38-1.356,0.658-2.115,0.808c-0.605-0.647-1.468-1.051-2.428-1.051c-1.837,0-3.326,1.49-3.326,3.327
	c0,0.261,0.031,0.515,0.087,0.759C4.906,5.187,2.453,3.864,0.814,1.85C0.528,2.34,0.361,2.911,0.361,3.523
	c0,1.155,0.588,2.171,1.482,2.77C1.297,6.276,0.782,6.126,0.337,5.875c0,0.014,0,0.028,0,0.042c0,1.611,1.145,2.958,2.669,3.265
	C2.724,9.258,2.432,9.296,2.129,9.296c-0.215,0-0.425-0.021-0.626-0.059c0.421,1.321,1.653,2.286,3.107,2.31
	c-1.138,0.896-2.575,1.428-4.134,1.428c-0.268,0-0.532-0.019-0.793-0.049c1.476,0.945,3.222,1.496,5.102,1.496
	c6.12,0,9.466-5.07,9.466-9.468c0-0.143,0-0.289-0.006-0.432C14.891,4.056,15.454,3.467,15.899,2.8z"/>
</svg>
