<svg id="Layer_1" data-name="Layer 1" xmlns="http://www.w3.org/2000/svg" viewBox="0 0 576 576"><defs><style>.cls-1{fill:#be2626;}.cls-2,.cls-4{fill:#fff;}.cls-3{fill:#be2627;}.cls-4{font-size:49.79px;font-family:Futura-Medium, Futura;}</style></defs><title>Artboard 1</title><circle class="cls-1" cx="283.85" cy="288.01" r="214.46"/><path class="cls-2" d="M287.83,401.91a112.85,112.85,0,0,1-50.12-7.9c-2.08-.76-4.07-1.76-6.1-2.65s-4-2-6-3a119,119,0,0,1-11.4-7.18,111.45,111.45,0,0,1-20-18.26,114.85,114.85,0,0,1-24.58-47.59,117.54,117.54,0,0,1-3.32-26,115.52,115.52,0,0,1,2.5-25.13A113.52,113.52,0,0,1,195.92,211a114.45,114.45,0,0,1,165-4.41c-.2.19-5.21-4.09-.57.58,1.19,1.14,2.19,2.31,3.17,3.38s1.87,2.07,2.65,3.06l2.21,2.72c.66.86,1.24,1.68,1.78,2.42l1.48,2.07c.44.64.81,1.24,1.15,1.78.69,1.08,1.22,2,1.64,2.66,1.56,2.88,1.3,3,1.08,3.18a20.05,20.05,0,0,1-1.67-2.42c-1-1.39-2.25-3.25-3.47-4.87s-2.35-3-2.93-3.75-.61-.68.34.63a113.33,113.33,0,0,0-10.88-11.69c-1-1-2-1.81-3-2.69s-2-1.72-3-2.48l-2.83-2.23L345.43,197c-.83-.57-1.58-1.13-2.29-1.59l-1.9-1.19c-1.09-.68-1.83-1.12-2.1-1.27-.54-.27.82.62,4.81,3.36a137.06,137.06,0,0,1,14.77,12.46l1.08,1.05,1,1.1,2,2.16c1.32,1.42,2.47,2.89,3.58,4.18s2,2.6,2.78,3.67a30.05,30.05,0,0,1,1.82,2.68c3.34,5.48-4.34-4.75-1,.71.9,1.31,2.09,2.91,3.22,4.79.58.92,1.2,1.88,1.8,2.88s1.17,2.06,1.75,3.1,1.14,2.09,1.66,3.14,1,2.06,1.53,3c.87,2,1.73,3.8,2.31,5.28,1,3,.26,1.59-.47.19a12.58,12.58,0,0,0-.89-1.55c-.15-.16,0,.2.61,1.67a126.76,126.76,0,0,1,4.67,14.53,117.23,117.23,0,0,1,2.84,16.77,110.22,110.22,0,0,1-2.81,36.73c-.14,0-.66,1.5-.78,1.47s0-.41.24-1.59.63-3.08,1.22-6.15a107.25,107.25,0,0,0-.07-40.91A108.21,108.21,0,0,0,305.59,183a107.19,107.19,0,0,0-41.19-1.76A108.1,108.1,0,0,0,211.87,371.6,107,107,0,0,0,248,391.16a109,109,0,0,0,40.78,4.66,108.15,108.15,0,0,0,93.08-70.47c2.11-5.88,3-9.29,3.46-10.68s.4-.8,0,1.11a97.86,97.86,0,0,1-7.42,21.5c2.61-5.72,3-5.57,5.14-11.51a7,7,0,0,1-.54,2.33c-.23.76-.54,1.7-.91,2.83L380,334.81a97.72,97.72,0,0,1-5.32,10.67,107.93,107.93,0,0,1-9.58,13.71,111.12,111.12,0,0,0,10.94-15.68c3.32-5.47.36.19.59.34l-1.19,2.08c-.4.68-.85,1.32-1.25,2-.82,1.25-1.54,2.46-2.24,3.44l-1.66,2.39a4,4,0,0,0-.58.95l.43.32a111.39,111.39,0,0,0,7.08-10.8,109.2,109.2,0,0,0,5.81-11.53l-2,4.32-1.87,3.69c-.53,1.09-1,2-1.37,2.58a4.9,4.9,0,0,0-.49,1l.47.27A104.88,104.88,0,0,1,364.57,363a120.39,120.39,0,0,1-16.72,15.37l.24.33a106.43,106.43,0,0,0,16.82-15.4,113.8,113.8,0,0,0,13.3-18.52c-1.54,2.89-2.44,4.26-2.8,5s-.28.79-.17.86l-1,1.56-1.07,1.5-2.14,3-2.3,2.89L367.59,361l-1.22,1.39-2.44,2.76-2.57,2.64-1.29,1.31-1.35,1.26-2.7,2.51a126.65,126.65,0,0,1-24.22,16.7,115.33,115.33,0,0,0,16.7-10.36,98.44,98.44,0,0,1-26.29,15.06,110.27,110.27,0,0,1-17.81,5.34A124,124,0,0,1,287.83,401.91Z"/><path class="cls-2" d="M291.21,328.44a38.24,38.24,0,0,1-15.69.71,39.84,39.84,0,0,1-15.46-6,41.25,41.25,0,0,1-11.76-11.71,42.58,42.58,0,0,1-6.12-14.62,36.25,36.25,0,0,1-.72-4.57,20.06,20.06,0,0,1-.14-2.32l0-2.35c.12-1.56.18-3.14.41-4.7l.42-2.34.22-1.17c.12-.46.26-1,.43-1.43a12.21,12.21,0,0,1,3.44-4.84,17,17,0,0,1,4.66-2.8,33,33,0,0,1,9.61-2.16,74.05,74.05,0,0,1,18.53,1,103.11,103.11,0,0,1,17.4,4.53c-.1.26-2.08,0-.28.77a27.18,27.18,0,0,1,6.08,3.19c.78.63.66.89.55,1.13a11.93,11.93,0,0,1-2.48-1c-1.1-.47-2-.81-1.16-.34-5.31-2.28-14.63-4.53-9.17-2.74.88.39,3.16,1.09,5.39,1.91a28,28,0,0,1,5.22,2.33c1.57,1.13-2.05,0-.49,1.12a66.86,66.86,0,0,1,6.66,3.35c1.45,1.16-2-.21-.41.71a40.46,40.46,0,0,1,7.16,5.62,14,14,0,0,1,2.66,3.83,8.27,8.27,0,0,1,.56,2.07,7.24,7.24,0,0,1-.15,2.07c-.13,0-.38.4-.49.37s-.09-.14-.05-.5.05-.64,0-1.26c.06-2.67-2.25-5.71-5.19-8a47.28,47.28,0,0,0-10.1-6,93.77,93.77,0,0,0-23.29-6.85,78.21,78.21,0,0,0-12.06-1,35.39,35.39,0,0,0-11.37,1.6,10.66,10.66,0,0,0-4.11,2.43,4.89,4.89,0,0,0-1.08,1.62,1.79,1.79,0,0,0-.16.44,2.71,2.71,0,0,0-.15.53l-.26,1.42A33,33,0,0,0,248,294a34.66,34.66,0,0,0,10.39,20.07,35.11,35.11,0,0,0,9.48,6.38,33.85,33.85,0,0,0,11,2.91,33.35,33.35,0,0,0,11.35-.81A35.55,35.55,0,0,0,300.66,318a34.48,34.48,0,0,0,13.91-17.53,24.86,24.86,0,0,1,1.07-2.94c.18-.43.24-.19.18.35s-.23,1.48-.46,2.61a10.92,10.92,0,0,1-.48,1.77l-.62,1.89c.54-1.71,1-1.53,1.47-3.27.08,0,.17.29.1.75a16.51,16.51,0,0,1-.44,2c-.13.44-.25,1-.46,1.49l-.78,1.75a27.12,27.12,0,0,1-2.43,4.21l1.56-2.31c.54-.76.91-1.62,1.37-2.42,1-1.58.37.18.61.31-.47.83-.87,1.69-1.25,2.29s-.62,1-.57,1l.46.3c.26-.4.62-.89,1-1.45l1-1.86a28.42,28.42,0,0,0,1.61-3.49c-.38.88-.71,1.79-1,2.44s-.53,1.08-.47,1.11l.48.26a30.49,30.49,0,0,1-3.7,5.77c-.81.91-1.55,1.89-2.37,2.72s-1.61,1.6-2.28,2.31l.27.3c.73-.66,1.53-1.44,2.37-2.27s1.57-1.84,2.37-2.78a39.62,39.62,0,0,0,3.7-5.86c-.82,1.81-.71,1.88-.47,2-.76,1.3-1.62,2.54-2.5,3.77l-1.46,1.72a17.31,17.31,0,0,1-1.53,1.67,41.64,41.64,0,0,1-3.31,3.06l-1.71,1.48L304,322.62a43.74,43.74,0,0,0,4.8-3.66,25.4,25.4,0,0,1-2.92,2.77,33.53,33.53,0,0,1-4.52,2.87,28.12,28.12,0,0,1-2.58,1.28L296.16,327c-.88.33-1.77.56-2.59.83A21.28,21.28,0,0,1,291.21,328.44Z"/><path class="cls-2" d="M284.65,367.18A74.74,74.74,0,0,1,251.22,362a73.18,73.18,0,0,1-15.65-8.56,74.2,74.2,0,0,1-13.35-12.19,76.7,76.7,0,0,1-16.39-31.74,78.64,78.64,0,0,1-2.22-17.34,77.27,77.27,0,0,1,1.63-16.77,75.67,75.67,0,0,1,18-35.6,76.49,76.49,0,0,1,110.33-3c-.2.19-3.64-2.57-.58.58a62.4,62.4,0,0,1,6.45,7.79,38.69,38.69,0,0,1,2.74,4.4c1,2,.72,2.11.49,2.25a8.78,8.78,0,0,1-1.14-1.58c-.67-.91-1.49-2.14-2.3-3.21s-1.55-2-1.94-2.48-.42-.44.2.44a76.36,76.36,0,0,0-7.21-7.73,67.94,67.94,0,0,0-7.6-6.11c-1.08-.78-2.05-1.38-2.78-1.82s-1.22-.73-1.4-.82c-.37-.16.52.44,3.14,2.27a98.29,98.29,0,0,1,9.71,8.26,53.81,53.81,0,0,1,8,9.84c2.09,3.68-3.07-3-1,.71.6.86,1.37,1.91,2.11,3.13.38.61.78,1.25,1.19,1.89s.76,1.35,1.14,2c.78,1.35,1.44,2.78,2.09,4.05s1.13,2.49,1.51,3.46c.63,2,.06,1.08-.47.19s-1.09-1.78-.28.12a86.4,86.4,0,0,1,3,9.49,78.7,78.7,0,0,1,1.84,10.94,71.71,71.71,0,0,1-1.82,23.94c-.13,0-.53,1-.64.94s-.05-.29.1-1.07.38-2,.75-4a79.35,79.35,0,1,0-3.4,10.82c1.37-3.8,1.95-6,2.3-6.91s.32-.5.07.75a60.6,60.6,0,0,1-4.62,14.07c1.66-3.75,2-3.6,3.4-7.49.09,0,0,.56-.25,1.56-.13.51-.3,1.13-.53,1.88s-.59,1.59-.95,2.56a59.76,59.76,0,0,1-3.39,7.05,68.65,68.65,0,0,1-6.23,9,74,74,0,0,0,7.18-10.29c2.21-3.57.36.19.59.34-.52.92-1.05,1.83-1.61,2.66s-1,1.62-1.47,2.27a14.58,14.58,0,0,0-1.44,2.22l.43.32a74.14,74.14,0,0,0,8.51-14.75l-1.29,2.86L345,326.05a20.69,20.69,0,0,0-1.19,2.39l.47.27a67.83,67.83,0,0,1-8.8,12.2,82.45,82.45,0,0,1-11.08,10.19l.24.32a68.3,68.3,0,0,0,11.18-10.2,76,76,0,0,0,8.81-12.31c-1,1.93-1.58,2.85-1.79,3.36s-.14.56,0,.63c-.85,1.41-1.86,2.7-2.79,4s-2,2.6-3.11,3.8a75.55,75.55,0,0,1-6.9,7,89.14,89.14,0,0,1-16.08,11.16A76.15,76.15,0,0,0,325,352a61.23,61.23,0,0,1-17.46,10.12,72.37,72.37,0,0,1-11.87,3.54A84.6,84.6,0,0,1,284.65,367.18Z"/><rect class="cls-3" x="152.3" y="149.14" width="270.57" height="144.75"/><text class="cls-4" transform="translate(155.09 283.91)">emergence</text><path class="cls-2" d="M449.56,287.69l-.18-.05a2,2,0,0,1,.49,0,19.23,19.23,0,0,0-6.09.14c-.59,0-1.12.07-1.18.2s.38.24,1,.26a1.84,1.84,0,0,1,.37.05,23.28,23.28,0,0,0,3,.46l-.67-.12c.33,0,.65.07,1,.07l-.13-.07a9.4,9.4,0,0,0,3.48-.11c.79-.23.52-.57-.62-.75Z"/><path class="cls-2" d="M447.45,286.93l2,.28.13,0,0-.19h0a14.56,14.56,0,0,1-2.56.26l-.33,0c-.16,0-.27.06-.3.11s.21.18.64.2l.5,0a10.48,10.48,0,0,0,3.82-.18c.15-.08,0-.18,0-.27s-.41-.24-1-.26-1.14.08-1.18.21l-.31,0,.24,0a4.82,4.82,0,0,1-1.14.19l-.61,0,.34.31.32,0-.06,0c.61-.08,1.19-.16,1.86-.21l.84-.1c.23-.06.21-.14,0-.2l-.37-.07.17,0-2.63-.21a1,1,0,0,0-.37,0C447.25,286.88,447.31,286.91,447.45,286.93Z"/><path class="cls-2" d="M450.49,286.91a2.14,2.14,0,0,0,.48,0l.08,0-.27-.05C450.58,286.84,450.48,286.87,450.49,286.91Z"/><path class="cls-2" d="M451.05,286.93l.12,0-.08,0h0Z"/><path class="cls-2" d="M426.59,282.41l8,.21c.09,0,.16,0,.17,0s-.07,0-.15,0l-8-.21a.48.48,0,0,0-.18,0S426.5,282.41,426.59,282.41Z"/><path class="cls-2" d="M446.58,284.45c-.06,0-.06,0,0,.05a.54.54,0,0,0,.22,0c.05,0,.05,0,0-.05Z"/><path class="cls-2" d="M446,285.93a10.21,10.21,0,0,0-1,.1,1.08,1.08,0,0,1-.18,0s0,.05-.18.06c-2.67.24-5.53.31-8.35.42a.22.22,0,0,1-.12.07,2.76,2.76,0,0,1-1,.1l-.3,0-3.71-.16c-.25,0-.54.05-.86.06-1.07.08-2.14.16-3.23.22.07,0,.11.05.11.08s-.27.11-.57.11h-.45l1.29.06H429c4.2,0,8.15-.24,12.07-.5a.77.77,0,0,1,.22,0s0,0,0,.05c-2.47.31-4.61.72-7.41.91-3.32.23-6.6.42-10,.56-1.32,0-2.61,0-3.88,0l.05-6.61,6.61-.16c4.91-.12,9.55-.11,14.35-.09,1.8,0,3.44.25,3.67.64s-.27.45-1,.6h.44l.69.05a6.27,6.27,0,0,1,1.57.28l.49.17c.64.31,1.69.58,2.22.91l-.12.12.12,0a1.58,1.58,0,0,1,.79.34l0,.15a1.35,1.35,0,0,1-.63.47q0,.09-.12.18c.28.15.42.31.19.48.17,0,.14.11-.06.14a.93.93,0,0,1-.24,0h0a1.61,1.61,0,0,0,.25.1l.26,0,.84.06a4.25,4.25,0,0,1,.55.13c.37.27.37.27.31.38l-.07,0,.39.06.15,0c0,.06,0,.06.06.08a.05.05,0,0,1,0,0c-.17.07-.17.07-.17.09l-.09,0-.31,0-.42-.16-.09.05-.09-.07.05.06-.21,0,.24.06-.7,0a3.37,3.37,0,0,0-.41,0l0,0-1.05-.06-.13,0a.86.86,0,0,1-.25,0l-.27,0h-.06l-.23,0h-.05l-1,.13-.45,0,.13,0c.08,0,0,.08.05.08,1.14.14,2.38.2,3.61.27a.86.86,0,0,1,.46.08s-.13.09-.36.1a39.1,39.1,0,0,1-8.09-.05l-2-.1.1,0-.53-.05h-.06l.4.11.28,0c1.57.06,3,.24,4.51.36.82.06,1.52.17,2.29.25.19,0,.33.05.31.09a.7.7,0,0,1-.4.06,40.87,40.87,0,0,1-7.57-.42,7.25,7.25,0,0,1-1.3-.11h0l.29.09c-.35,0-.54-.1-.86-.13l.12.12c-1.74-.09-3.61-.07-5.22-.26h-.18a18.34,18.34,0,0,1-2.21.16l.82.05c-.59,0-1.18.07-1.82.06a17.18,17.18,0,0,1-4.56-.55h-4.22l0-4.79,5.81,0a.74.74,0,0,1,.35.06s-.09.07-.26.08q-2.92.12-5.9.16l0,4.3,1.36,0-1.35-.05,0-4.14c1.58,0,3.18.11,4.8.13h.8c.26,0,.53,0,.79,0,2.66,0,5.18.06,7.89,0l6.66-.22c3.24-.13,6.2-.26,9.4-.24.42,0,.82.06.87.16s-.26.17-.69.18c-6.68.23-13.24.52-20.22.42l-2.23,0,0,0c0,.05-.08.1-.19.13l2.52.08c2.36-.08,4.71-.17,7.22-.09,1.73,0,3.29.17,4.88.28l6.07-.13a.49.49,0,0,1,.2,0s0,0-.1,0c-1.4.1-2.84.17-4.29.24.23.06.36.13.34.22s-.19.15-.47.21h1c.2,0,.36,0,.36.08s-.17.08-.36.07l-4,0-4.82.08a1.1,1.1,0,0,1,.46.21h.75c4.55-.2,9.21-.29,13.9-.21.09,0,.17,0,.17,0s-.07,0-.15,0l-4.24,0h0c.06,0,.07,0,0,0a.81.81,0,0,1-.22,0c-.07,0-.06,0,0,0-2.62,0-5.23.07-7.8.17,2.39,0,4.78,0,7.16.06l.79-.06a.47.47,0,0,1,.19,0s0,0-.1,0l-.22,0c.45,0,.8.1.79.2s-.42.17-.88.17h-3.77l-.4,0-.41,0,5.82.19c.17,0,.31,0,.31.07s-.13.06-.3.06c-3.4.12-6.85.18-10.31.22l-3.45.44h.45c3.76,0,7-.39,10.6-.45.09,0,.17,0,.18,0s-.05,0-.14,0c-1.78,0-3.41.18-5.17.27-1.46.08-2.85.15-4.21.25,2.77,0,5.44-.19,8.19-.25a1.05,1.05,0,0,1,.32,0s0,0,.07,0c.34-.05.72-.08,1.1-.11a.59.59,0,0,1,.2,0S446.08,285.92,446,285.93Zm-3.75.25.07,0-.25,0-.33-.14Zm4.26-.5h0l.2.08Zm-25.9-2.81H420l0,3.87c1.25,0,2.48.07,3.72.16h-1.06l-2.66-.14,0-3.92Zm24.49,3.88a6.9,6.9,0,0,1-1-.27,6.74,6.74,0,0,1-.78,0l-2.11-.07c.09.05-.08,0-.16.05h-.26l2.22.14C443.71,286.66,444.44,286.69,445.09,286.75Zm5.13-.15.07,0-.14.07Zm.22-.13h-.1A.07.07,0,0,1,450.44,286.47Zm-1-.1.13,0Zm-.67-2.26-.38.38.41-.37Z"/><path class="cls-2" d="M436.77,359.87l-.16-.12a2.1,2.1,0,0,1,.48.22,22.89,22.89,0,0,0-6-2.77c-.57-.29-1.12-.46-1.23-.37s.26.39.83.69a4,4,0,0,1,.34.23,30,30,0,0,0,2.74,1.85l-.6-.43c.31.19.61.37,1,.55l-.09-.12a11.15,11.15,0,0,0,3.43,1.56c.87.16.75-.27-.27-1Z"/><path class="cls-2" d="M435.05,358.18l1.8,1.2.11.1,0-.2h0a17.91,17.91,0,0,1-2.59-1l-.34-.14a.67.67,0,0,0-.33-.05c-.12.05.12.27.54.49l.47.26a11.63,11.63,0,0,0,3.79,1.64c.18,0,.09-.14.1-.24s-.29-.42-.87-.72-1.14-.46-1.24-.37l-.29-.17.26.08a5.76,5.76,0,0,1-1.19-.38l-.61-.27.2.45.33.11,0-.06c.63.22,1.22.43,1.9.7l.86.31c.25.06.27,0,.05-.2l-.33-.24.14.12-2.46-1.43a1,1,0,0,0-.37-.15C434.88,358,434.92,358.1,435.05,358.18Z"/><path class="cls-2" d="M438,359.62a4,4,0,0,0,.44.26l.1,0-.24-.18C438.13,359.6,438,359.57,438,359.62Z"/><path class="cls-2" d="M438.55,359.9l.1.08-.06-.07h0Z"/><path class="cls-2" d="M416.75,344.22l7.72,4c.08,0,.16.07.17,0s0-.06-.12-.1l-7.71-4a.39.39,0,0,0-.18-.06S416.67,344.17,416.75,344.22Z"/><path class="cls-2" d="M435.29,355.55c-.07,0-.08,0,0,0a.76.76,0,0,0,.22.11c.05,0,.06,0,0-.05A.79.79,0,0,0,435.29,355.55Z"/><path class="cls-2" d="M434.07,356.59c-.37-.15-.73-.3-1.06-.4a.68.68,0,0,1-.17-.09s-.07,0-.21,0c-2.69-1.06-5.51-2.35-8.3-3.59h-.15a3.37,3.37,0,0,1-1-.38l-.29-.17-3.53-1.9a8.12,8.12,0,0,1-.87-.36c-1.07-.43-2.14-.86-3.23-1.33.06,0,.08.1.07.12s-.32,0-.6-.17l-.43-.21,1.21.66.16.09,1.38.68c4.1,2,8,3.66,11.95,5.29a.83.83,0,0,1,.21.12s0,.05-.06,0c-2.53-.9-4.8-1.54-7.6-2.7-3.33-1.37-6.6-2.76-10-4.25-1.27-.64-2.53-1.24-3.78-1.83l2.95-5.91,6.5,3c4.82,2.22,9.32,4.43,14,6.74,1.76.82,3.24,1.86,3.29,2.31,0,.28-.47.28-1.25.06l.42.22.66.37a7.51,7.51,0,0,1,1.4,1l.4.38c.49.58,1.39,1.32,1.76,1.87l-.17.05.1.09a1.8,1.8,0,0,1,.62.67l-.1.12a1.4,1.4,0,0,1-.82.12c0,.06-.08.1-.19.11.2.27.26.47,0,.52.15.12.09.17-.12.1a1.63,1.63,0,0,1-.25-.1h0l.2.2.25.15.79.45a4.2,4.2,0,0,1,.48.37c.24.42.24.42.13.49h-.08l.36.24.12.11c0,.06,0,.06,0,.11a0,0,0,0,1,0,0c-.2,0-.2,0-.21,0l-.1,0-.31-.12-.34-.34h-.11l-.06-.12,0,.09-.19-.14.21.17-.67-.36a2.78,2.78,0,0,0-.39-.18v0l-1-.56-.1-.1a.92.92,0,0,1-.25-.1l-.26-.14-.06,0h0l-.23-.08,0,0h0l-1-.36-.43-.25.12.09c.07.06,0,.08,0,.1,1.05.67,2.23,1.31,3.39,2,.22.1.4.23.41.29s-.16,0-.39-.08a45.4,45.4,0,0,1-7.84-3.89l-1.92-1.05.08.08-.49-.3-.05,0,.34.29.25.16c1.5.8,2.81,1.64,4.23,2.46.76.45,1.4.88,2.11,1.32.19.1.31.2.26.23a.85.85,0,0,1-.41-.14,48.21,48.21,0,0,1-7.18-4,9.43,9.43,0,0,1-1.21-.72h0l.24.22c-.33-.19-.48-.34-.77-.52l.06.16c-1.65-.9-3.48-1.78-4.95-2.71l-.18-.1a22.05,22.05,0,0,1-2.22-.9l.78.43c-.59-.24-1.18-.49-1.8-.81a20.69,20.69,0,0,1-4.19-2.66l-4.1-2,2.13-4.29,5.67,2.71c.17.08.31.18.32.23s-.12,0-.29-.07c-1.93-.84-3.87-1.74-5.81-2.65l-1.91,3.85,1.33.62-1.3-.69,1.85-3.71c1.51.8,3,1.61,4.61,2.4l.78.37c.26.12.51.26.75.4,2.58,1.28,5,2.52,7.68,3.75l6.56,3c3.21,1.42,6.14,2.7,9.24,4.25.42.19.77.44.78.55s-.33,0-.75-.16c-6.59-3-13.09-5.82-19.83-9.23l-2.16-1.09a0,0,0,0,1,0,0s-.11,0-.24,0L420,346.9c2.33,1,4.66,2.09,7.06,3.34,1.65.87,3.12,1.72,4.62,2.58l6,2.77a.4.4,0,0,1,.18.11s0,0-.11,0c-1.41-.57-2.84-1.19-4.28-1.82.2.16.3.29.24.36s-.26,0-.54,0l1,.48c.2.11.34.21.31.25s-.19,0-.38-.11l-3.88-1.95-4.72-2.22a1.31,1.31,0,0,1,.36.4h0l.72.35c4.51,2,9.08,4.11,13.6,6.42.09,0,.16.09.15.11s-.08,0-.16,0q-2.06-1-4.11-2h0c.05,0,.05.06,0,0a.84.84,0,0,1-.21-.11c-.06,0,0-.06,0-.05-2.55-1.23-5.11-2.42-7.66-3.55,2.33,1.13,4.65,2.27,6.94,3.46l.79.31a.56.56,0,0,1,.18.12s0,0-.12,0l-.22-.08c.43.22.73.46.68.55s-.48,0-.93-.27l-3.66-1.78-.4-.18-.42-.16,5.58,2.94c.16.08.28.17.27.21s-.15,0-.32-.09c-3.36-1.51-6.74-3.09-10.12-4.7l-3.54-1.24.43.22c3.65,1.81,6.93,3,10.5,4.64.09,0,.16.09.16.11s-.06,0-.15,0c-1.75-.8-3.39-1.45-5.15-2.21-1.45-.63-2.83-1.22-4.2-1.78,2.71,1.31,5.37,2.42,8.07,3.67a1.33,1.33,0,0,1,.3.17h.08c.35.12.73.27,1.12.43a.57.57,0,0,1,.19.12S434.16,356.62,434.07,356.59ZM430.31,355l.06,0-.22-.15-.27-.29Zm4.36,1.57h0l.16.17Zm-23.94-14.82-.6-.31L408.4,345c1.21.61,2.39,1.24,3.55,1.91l-1-.49-2.53-1.4,1.75-3.51Zm22.1,15.12a9.34,9.34,0,0,1-.82-.71c-.25-.1-.51-.23-.77-.36l-2-1.07c.07.09-.09,0-.17,0l-.26-.11,2.1,1.18C431.53,356.17,432.23,356.54,432.83,356.91Zm5.06,2.3.05.05h-.17Zm.27,0-.1-.06A.08.08,0,0,1,438.16,359.2Zm-.9-.56.12.11Zm.34-2.35-.53.17.56-.14Z"/><path class="cls-2" d="M114.84,282.59l.16.05a1.66,1.66,0,0,1-.44,0,15,15,0,0,0,5.38,0c.52,0,1,0,1-.16s-.32-.26-.84-.29l-.34-.06a18.27,18.27,0,0,0-2.65-.55l.59.14a8.25,8.25,0,0,0-.9-.1l.11.07a7.55,7.55,0,0,0-3.08,0c-.7.22-.47.56.52.77Z"/><path class="cls-2" d="M116.68,283.41l-1.75-.34-.11-.05,0,.2h0a12,12,0,0,1,2.27-.19h.29a.47.47,0,0,0,.27-.1c.07-.09-.18-.19-.56-.22l-.44,0a7.91,7.91,0,0,0-3.37.07c-.14.07,0,.18,0,.27s.35.26.89.29,1-.05,1-.18l.27,0-.21,0a3.31,3.31,0,0,1,1-.16h.55l-.3-.32-.28,0,0,0c-.54.06-1,.12-1.65.15L114,283c-.21.05-.19.13,0,.2l.32.08-.14,0,2.31.28a.65.65,0,0,0,.32,0C116.85,283.47,116.8,283.43,116.68,283.41Z"/><path class="cls-2" d="M114,283.34a1.63,1.63,0,0,0-.42-.06l-.08,0,.24.06C113.91,283.41,114,283.38,114,283.34Z"/><path class="cls-2" d="M113.49,283.3l-.09,0,.06,0h0Z"/><path class="cls-2" d="M134.93,288.51l-7.08-.44c-.08,0-.15,0-.15,0s0,0,.12,0l7.07.43c.08,0,.15,0,.16,0S135,288.51,134.93,288.51Z"/><path class="cls-2" d="M117.36,285.91s0,0,0-.05a.41.41,0,0,0-.19,0s0,0,0,0A.69.69,0,0,0,117.36,285.91Z"/><path class="cls-2" d="M117.92,284.45a8.61,8.61,0,0,0,.93-.07.43.43,0,0,1,.16,0s0-.06.16-.07c2.36-.15,4.89-.15,7.38-.18a.19.19,0,0,1,.11-.07,2.44,2.44,0,0,1,.88-.07l.27,0,3.26.26c.23,0,.48,0,.76,0,.95-.06,1.89-.11,2.86-.14-.06,0-.1-.05-.09-.07s.24-.11.5-.09h.4l-1.13-.1-.15,0-1.26,0c-3.7-.1-7.2,0-10.66.15a.66.66,0,0,1-.2,0s0,0,0-.05c2.19-.24,4.09-.59,6.56-.7,3-.14,5.85-.24,8.86-.28,1.17.05,2.3.07,3.43.09l-.28,6.6-5.83,0c-4.34,0-8.43-.16-12.66-.32-1.59,0-3-.34-3.22-.74-.11-.24.25-.44.91-.57l-.38,0-.61-.07a5.07,5.07,0,0,1-1.38-.33l-.42-.18c-.56-.33-1.48-.63-1.93-1l.11-.11-.11,0a1.29,1.29,0,0,1-.68-.36l0-.15a1.15,1.15,0,0,1,.57-.45c0-.06,0-.12.11-.17-.25-.17-.36-.33-.15-.49-.15-.05-.12-.12.06-.15h.21l-.22-.1-.23,0-.74-.08a2.94,2.94,0,0,1-.48-.15c-.31-.27-.31-.27-.26-.39l.07,0-.35-.07a.52.52,0,0,1-.13-.05c0-.06,0-.06-.05-.09a.1.1,0,0,1,0,0c.15-.06.15-.06.16-.08l.08,0,.27,0,.36.17.09-.05.08.07,0-.06.19,0-.21-.06a5,5,0,0,0,.61,0,2.48,2.48,0,0,0,.36,0,.1.1,0,0,1,0,0l.93.1.1,0a.8.8,0,0,1,.23,0l.24,0h.05l.2,0h.05l.88-.1.4.05-.11,0c-.08,0,0-.08,0-.09-1-.17-2.09-.26-3.17-.37a.64.64,0,0,1-.4-.09c0-.05.12-.09.31-.09a30.58,30.58,0,0,1,7.14.27l1.78.16-.08,0,.46.06h0l-.35-.12-.24,0c-1.38-.1-2.63-.32-4-.48-.72-.08-1.33-.21-2-.31-.17,0-.29-.06-.27-.1s.19-.07.36-.05a31.6,31.6,0,0,1,6.66.63,6.23,6.23,0,0,1,1.14.14h0l-.25-.1c.31,0,.47.12.75.16l-.1-.12c1.53.14,3.18.17,4.59.4l.16,0a15.1,15.1,0,0,1,2-.1l-.73-.07a14.37,14.37,0,0,1,1.61,0,13.71,13.71,0,0,1,4,.68l3.72.1-.2,4.79-5.12-.11c-.15,0-.29,0-.31-.07s.08-.07.24-.07c1.72,0,3.46,0,5.2,0l.18-4.29h-1.2l1.2.09-.17,4.14c-1.4-.1-2.81-.2-4.23-.27h-.71l-.69-.05c-2.35-.1-4.58-.21-7-.22-2,0-3.84,0-5.88,0-2.87,0-5.48.1-8.3,0-.38,0-.72-.08-.76-.18s.23-.17.61-.16c5.9,0,11.7-.15,17.85.15l2,.1a.08.08,0,0,1,0,0s.06-.1.17-.13l-2.23-.15c-2.08,0-4.16,0-6.37-.11-1.52-.1-2.89-.26-4.29-.42l-5.37,0a.37.37,0,0,1-.17,0s0,0,.09,0c1.24-.06,2.51-.09,3.8-.12-.2-.07-.32-.14-.3-.23s.18-.15.42-.19l-.87,0c-.18,0-.32,0-.31-.09s.15-.08.32-.07l3.54.17,4.26,0a.9.9,0,0,1-.41-.22h0l-.65,0c-4,.07-8.14,0-12.28-.18-.08,0-.14,0-.14,0s.06,0,.13,0l3.74.15h0s-.06,0,0-.05a.45.45,0,0,1,.2,0s0,0,0,0c2.32.07,4.62.08,6.89.06-2.11-.07-4.21-.15-6.32-.27l-.69,0a.34.34,0,0,1-.17,0s0,0,.09,0h.2c-.4,0-.71-.11-.7-.21s.38-.17.79-.15l3.32.1h.36l.36,0-5.13-.36c-.15,0-.27,0-.27-.07s.12-.06.26-.06c3,0,6.06,0,9.11.07l3-.34-.39,0c-3.32-.13-6.15.19-9.37.15a.24.24,0,0,1-.16,0s0,0,.13,0c1.57,0,3-.09,4.57-.13,1.3,0,2.52-.06,3.73-.13-2.45-.06-4.81,0-7.24,0a1.09,1.09,0,0,1-.28,0l-.06,0c-.31,0-.64.06-1,.08a.48.48,0,0,1-.18,0S117.85,284.46,117.92,284.45Zm3.33-.15-.06,0,.21,0,.29.16Zm-3.78.38h0l-.16-.09Zm22.75,3.53.55,0,.16-3.87c-1.1-.05-2.19-.13-3.28-.26l.93,0,2.35.22-.16,3.92Zm-21.47-4.56a5,5,0,0,1,.84.3,5.48,5.48,0,0,1,.7,0l1.86.13c-.08,0,.06,0,.14,0h.23l-2-.2C120,283.78,119.32,283.73,118.75,283.65Zm-4.54,0,0,0,.12-.07Zm-.19.12h.09S114.05,283.81,114,283.78Zm.85.13-.12,0Zm.51,2.28.35-.37-.38.35Z"/><path class="cls-2" d="M383.05,430.11l-.12-.17a2.51,2.51,0,0,1,.4.37,24.66,24.66,0,0,0-5-4.69c-.47-.48-.95-.83-1.09-.78s.14.47.6,1a3.3,3.3,0,0,1,.27.33,27.57,27.57,0,0,0,2.13,2.71l-.46-.61a10.11,10.11,0,0,0,.78.86l-.06-.15a12.34,12.34,0,0,0,2.89,2.67c.81.45.82,0,0-1Z"/><path class="cls-2" d="M381.87,427.9l1.41,1.76.07.14.1-.18h0a19.34,19.34,0,0,1-2.24-1.82l-.29-.25a.67.67,0,0,0-.31-.16c-.13,0,0,.3.38.65l.39.41a12.68,12.68,0,0,0,3.21,2.87c.17.07.13-.11.17-.2s-.16-.5-.64-1-1-.84-1.1-.78l-.23-.27.23.17a5.73,5.73,0,0,1-1.05-.77l-.52-.46.06.49.29.23,0-.08c.55.43,1.07.82,1.65,1.32l.75.59c.23.14.27.06.11-.18l-.26-.34.11.16-2-2.21a1.27,1.27,0,0,0-.32-.28C381.74,427.71,381.76,427.78,381.87,427.9Z"/><path class="cls-2" d="M384.34,430.29a3.68,3.68,0,0,0,.35.4l.09.05-.19-.25C384.46,430.31,384.36,430.25,384.34,430.29Z"/><path class="cls-2" d="M384.78,430.74l.07.11,0-.08,0,0Z"/><path class="cls-2" d="M368.14,408.23l6.36,6.47c.07.08.14.13.15.12s0-.08-.09-.14l-6.34-6.47a.47.47,0,0,0-.16-.12S368.08,408.16,368.14,408.23Z"/><path class="cls-2" d="M382.89,425.44c-.06,0-.07,0,0,0a1,1,0,0,0,.18.17s.06,0,0,0A1,1,0,0,0,382.89,425.44Z"/><path class="cls-2" d="M381.39,426c-.32-.28-.63-.54-.92-.76a.93.93,0,0,1-.14-.14s-.08,0-.2-.09c-2.31-1.93-4.68-4.13-7-6.28,0,0-.08,0-.15,0a3.44,3.44,0,0,1-.86-.72l-.24-.25-2.88-3a9.56,9.56,0,0,1-.74-.64c-.92-.78-1.84-1.56-2.77-2.38,0,.07.06.12,0,.14s-.3-.14-.54-.37l-.36-.35,1,1.05.13.14,1.15,1.13c3.41,3.29,6.76,6.25,10.1,9.15a1.53,1.53,0,0,1,.18.18s0,.05-.07,0c-2.21-1.72-4.23-3.11-6.62-5.17-2.85-2.46-5.64-4.91-8.49-7.49-1.06-1.05-2.11-2.05-3.16-3l4.65-4.7,5.46,5.08c4,3.78,7.79,7.44,11.66,11.24,1.48,1.39,2.61,2.89,2.53,3.35-.06.28-.54.11-1.24-.37l.35.35.52.59a7.47,7.47,0,0,1,1.07,1.44l.28.5c.31.74,1,1.75,1.16,2.4h-.18l.08.13a1.78,1.78,0,0,1,.4.86l-.13.07a1.4,1.4,0,0,1-.84-.16s-.11.07-.22,0c.12.33.12.55-.18.49.1.17,0,.19-.15.06l-.21-.18h0l.13.26.2.23.64.7a3.28,3.28,0,0,1,.35.52c.12.48.12.48,0,.52l-.08,0,.28.36a1,1,0,0,1,.09.14c0,.05,0,.05,0,.11a0,0,0,0,1,0,0c-.18-.08-.18-.08-.2-.07l-.1-.05-.27-.22-.22-.45-.11,0,0-.13v.09l-.14-.19.15.23-.55-.57c-.16-.17-.31-.3-.33-.32a.06.06,0,0,1,0,0l-.81-.87-.07-.13a1.07,1.07,0,0,1-.22-.19l-.21-.22-.05,0h0l-.2-.16-.05,0h0l-.89-.7-.35-.38.09.12c.05.09-.05.07,0,.11.83,1,1.79,2,2.73,3a1.14,1.14,0,0,1,.32.42c0,.06-.17,0-.36-.21a49.7,49.7,0,0,1-6.5-6.4l-1.57-1.67.06.1-.4-.45,0,0,.25.39.2.24c1.23,1.28,2.25,2.53,3.4,3.8.61.69,1.1,1.32,1.67,2,.16.16.24.29.19.31s-.22-.12-.37-.28a51.61,51.61,0,0,1-5.83-6.26,9.33,9.33,0,0,1-1-1.1h0l.17.29c-.26-.3-.36-.5-.6-.77v.18c-1.34-1.43-2.87-2.89-4-4.29l-.14-.16c-.62-.49-1.23-1-1.9-1.62l.64.68c-.52-.44-1-.88-1.52-1.39a22,22,0,0,1-3.31-4l-3.42-3.31,3.37-3.41,4.73,4.54a.84.84,0,0,1,.25.32s-.13,0-.27-.16c-1.64-1.47-3.26-3-4.88-4.52l-3,3.05,1.11,1.05-1.06-1.1,2.91-2.95q1.86,1.94,3.79,3.88l.66.62c.21.21.42.42.61.64,2.14,2.11,4.15,4.13,6.39,6.22l5.53,5.08c2.72,2.46,5.2,4.69,7.77,7.23.35.33.62.69.6.8s-.33-.08-.68-.41c-5.57-5.1-11.07-10.06-16.65-15.63l-1.78-1.78a.06.06,0,0,1,0,0s-.12,0-.24-.05l2,2c2,1.8,3.93,3.59,5.91,5.62,1.36,1.39,2.53,2.71,3.74,4.05l5,4.69a.47.47,0,0,1,.14.17s0,0-.1,0c-1.21-1-2.42-2.11-3.64-3.21.14.22.2.39.13.43s-.27,0-.53-.22l.79.79c.16.16.27.31.23.34s-.19-.08-.34-.23l-3.21-3.21-4-3.74a1.2,1.2,0,0,1,.23.52h0l.61.59c3.81,3.44,7.64,7,11.38,10.8.08.07.13.14.11.16s-.08,0-.14-.1q-1.69-1.69-3.41-3.36h0c0,.06,0,.08,0,0a.59.59,0,0,1-.18-.17c-.05-.06,0-.07,0,0q-3.19-3.09-6.43-6c1.93,1.88,3.86,3.77,5.75,5.69l.68.57a.63.63,0,0,1,.14.18s0,0-.12-.06l-.19-.16c.36.36.58.7.51.76s-.46-.2-.84-.57l-3-3-.34-.31-.36-.29,4.58,4.72c.13.13.22.27.2.29s-.15-.05-.28-.18c-2.84-2.6-5.68-5.27-8.5-8l-3.09-2.4.35.36c3,3,5.9,5.2,8.89,8,.08.07.13.14.12.16s-.06,0-.14-.09c-1.47-1.36-2.88-2.54-4.37-3.87-1.23-1.1-2.41-2.14-3.58-3.14,2.26,2.18,4.53,4.15,6.8,6.28a1.79,1.79,0,0,1,.24.26.13.13,0,0,1,.07,0c.32.24.64.51,1,.79a.6.6,0,0,1,.15.18S381.46,426.1,381.39,426Zm-3.22-2.78.05.07-.17-.22-.17-.37Zm3.8,3h0l.1.22Zm-19-22.4-.5-.5-2.72,2.75c1,1,2,2,2.9,3l-.87-.82-2.05-2.21,2.76-2.79Zm17.09,22.07a8.68,8.68,0,0,1-.59-1c-.22-.19-.43-.39-.65-.61q-.82-.87-1.65-1.71c0,.1-.09,0-.16-.09l-.22-.2,1.7,1.85C379,424.76,379.6,425.36,380.08,425.92Zm4.26,3.93,0,.06-.17-.05Zm.27.08-.08-.09A.1.1,0,0,1,384.61,429.93Zm-.71-.83a.74.74,0,0,0,.08.13Zm1-2.15-.57,0,.59.06Z"/><path class="cls-2" d="M278.76,450.68l0-.19a2.06,2.06,0,0,1,0,.5,20.57,20.57,0,0,0-.05-6.28c0-.61-.06-1.15-.19-1.21s-.25.39-.27,1a3.59,3.59,0,0,1-.06.39,25.7,25.7,0,0,0-.5,3.11l.13-.69c0,.34-.08.68-.09,1.05l.07-.12a10.3,10.3,0,0,0,.06,3.58c.23.82.57.54.76-.62Z"/><path class="cls-2" d="M279.54,448.51c-.1.67-.2,1.35-.31,2l0,.13.2,0h0a15.91,15.91,0,0,1-.22-2.64l0-.34a.54.54,0,0,0-.1-.31c-.09-.08-.19.21-.21.66l0,.52a10.77,10.77,0,0,0,.13,3.93c.07.16.17,0,.27,0s.25-.42.27-1.05-.06-1.17-.19-1.21l0-.32,0,.25a4.89,4.89,0,0,1-.17-1.18l0-.64-.31.36,0,.33,0-.07c.07.64.14,1.23.17,1.92l.1.88c.05.23.14.21.19,0l.08-.39,0,.17.24-2.7a1.42,1.42,0,0,0,0-.38C279.6,448.3,279.56,448.36,279.54,448.51Z"/><path class="cls-2" d="M279.52,451.65a2.11,2.11,0,0,0-.06.49l0,.08.06-.28C279.59,451.74,279.56,451.64,279.52,451.65Z"/><path class="cls-2" d="M279.49,452.22l0,.12,0-.08v0Z"/><path class="cls-2" d="M284.35,427.06c-.11,2.77-.21,5.53-.32,8.28,0,.09,0,.17,0,.17s0-.06,0-.15q.17-4.12.32-8.26a.3.3,0,0,0,0-.19S284.35,427,284.35,427.06Z"/><path class="cls-2" d="M282,447.65c0-.07,0-.07,0,0a.59.59,0,0,0,0,.23c0,.05,0,.05,0,0A.81.81,0,0,0,282,447.65Z"/><path class="cls-2" d="M280.56,447c0-.38,0-.75-.08-1.08a.54.54,0,0,1,0-.18s-.05-.05-.06-.19c-.2-2.75-.24-5.7-.31-8.61a.3.3,0,0,1-.07-.13,3.24,3.24,0,0,1-.08-1l0-.32.21-3.82a7.8,7.8,0,0,1-.05-.89c-.07-1.1-.14-2.2-.18-3.33,0,.07-.05.12-.08.11s-.1-.28-.09-.58v-.46l-.08,1.31V428l0,1.47c0,4.33.13,8.4.33,12.45a.86.86,0,0,1,0,.23s0,0,0-.05c-.28-2.55-.66-4.76-.81-7.64-.19-3.44-.33-6.82-.42-10.34,0-1.36,0-2.68,0-4l6.61.14c0,2.22.05,4.47.07,6.82.05,5.06,0,9.84-.11,14.79,0,1.86-.3,3.55-.69,3.78s-.45-.29-.58-1.05l0,.45-.06.71a6.44,6.44,0,0,1-.31,1.62l-.17.5c-.32.66-.61,1.74-.94,2.27l-.12-.12,0,.13a1.54,1.54,0,0,1-.34.8l-.15,0a1.29,1.29,0,0,1-.46-.66q-.09,0-.18-.12c-.15.29-.31.43-.48.19,0,.18-.11.15-.15-.06a2,2,0,0,1,0-.25h0a1.61,1.61,0,0,0-.1.25l0,.28-.07.86a3.29,3.29,0,0,1-.14.56c-.27.38-.27.38-.38.32l0-.08-.06.41a.71.71,0,0,1-.05.15c-.06,0-.06,0-.08.06a.05.05,0,0,1-.05,0c-.06-.17-.06-.17-.08-.17a.43.43,0,0,1,0-.1l0-.32.17-.42-.05-.1.07-.1-.07.06.05-.22-.06.25c0-.52,0-.52,0-.72a2.57,2.57,0,0,0,0-.42l0,0,.07-1.09.05-.13a.9.9,0,0,1,0-.26l0-.28v-.06h0l0-.24v-.05h0l-.12-1,.05-.47,0,.14c0,.08-.08,0-.08.05-.15,1.17-.23,2.45-.32,3.72a.85.85,0,0,1-.09.47c-.05,0-.09-.14-.09-.37a40.89,40.89,0,0,1,.16-8.34l.12-2.08,0,.1.06-.54v-.06l-.11.41,0,.28c-.08,1.62-.28,3.08-.41,4.65-.08.84-.2,1.56-.29,2.35,0,.21-.05.35-.09.32s-.07-.21-.06-.41a43.73,43.73,0,0,1,.52-7.8,10.15,10.15,0,0,1,.13-1.34v0l-.09.3c0-.37.1-.56.14-.89l-.12.12c.11-1.78.12-3.72.33-5.37v-.19a22.46,22.46,0,0,1-.12-2.28l-.06.85c0-.61-.06-1.22,0-1.88a19.08,19.08,0,0,1,.61-4.69l.05-4.35,4.79.1,0,6a.62.62,0,0,1-.07.36s-.06-.1-.07-.27c0-2-.07-4-.08-6.08l-4.29-.1v1.4l.07-1.39,4.15.09c-.08,1.63-.16,3.27-.2,4.94V426q0,.41,0,.81c-.06,2.74-.14,5.34-.11,8.14,0,2.37.08,4.45.13,6.86.08,3.35.18,6.39.11,9.7a1.57,1.57,0,0,1-.17.89c-.09.05-.17-.27-.17-.71-.14-6.89-.34-13.66-.14-20.85,0-.78,0-1.54.07-2.3l0,0c-.05,0-.09-.08-.13-.2,0,.86-.08,1.72-.12,2.6.06,2.43.11,4.86,0,7.45-.08,1.77-.22,3.38-.35,5,0,2.08,0,4.17,0,6.26a.81.81,0,0,1,0,.2s0,0,0-.1c-.09-1.44-.14-2.93-.19-4.43-.06.24-.14.38-.22.36s-.15-.21-.2-.49l0,1c0,.21,0,.37-.08.37s-.08-.18-.07-.38l.1-4.14c0-1.66,0-3.32,0-5a1.14,1.14,0,0,1-.21.48h0v.76c.13,4.7.16,9.5,0,14.34,0,.1,0,.17,0,.17s0-.07,0-.15c0-1.46.08-2.92.09-4.37h0c0,.06,0,.07-.05,0a.6.6,0,0,1,0-.23c0-.07,0-.06,0,0,0-2.7,0-5.39-.06-8,0,2.46-.07,4.92-.16,7.38l.06.81a.77.77,0,0,1,0,.2s0,0,0-.11l0-.22c0,.46-.1.82-.2.81s-.17-.43-.16-.91c0-1.3,0-2.59.05-3.88v-.42l0-.42-.27,6c0,.17,0,.31-.07.32s-.06-.14-.06-.31c-.07-3.51-.09-7.07-.08-10.64l-.39-3.55v.45c-.08,3.88.28,7.18.29,10.94a.28.28,0,0,1,0,.19s0-.06,0-.15c0-1.84-.14-3.52-.2-5.34-.06-1.51-.11-2.94-.19-4.34,0,2.86.11,5.61.13,8.45a1.12,1.12,0,0,1,0,.33s0,0,0,.07c0,.35.07.74.09,1.13a.48.48,0,0,1,0,.22S280.57,447.11,280.56,447Zm-.2-3.87,0,.07,0-.25.15-.35Zm.44,4.39h0l-.08.2ZM284,420.89l0-.65-3.87-.08c0,1.29-.1,2.56-.21,3.84v-1.09c.06-.91.12-1.82.18-2.75l3.93.08Zm-4.22,25.19a6.06,6.06,0,0,1,.29-1,7.09,7.09,0,0,1,0-.8c0-.74.07-1.46.11-2.18-.06.09-.05-.08-.05-.16v-.27c-.05.75-.11,1.51-.17,2.29S279.82,445.41,279.75,446.08Zm.08,5.3,0,.06-.07-.14Zm.13.22v-.11A.08.08,0,0,1,280,451.6Zm.12-1a.48.48,0,0,0-.05.14Zm2.27-.66-.38-.4.36.43Z"/><path class="cls-2" d="M187,432.44l.14-.12a1.85,1.85,0,0,1-.28.4,18.82,18.82,0,0,0,3.39-5c.35-.47.58-.94.51-1.06s-.42.16-.77.63l-.26.28a22.13,22.13,0,0,0-2.11,2.17l.48-.47c-.22.25-.43.49-.65.78l.13-.06a9.52,9.52,0,0,0-1.91,2.88c-.26.77.17.74,1-.07Z"/><path class="cls-2" d="M188.78,431.18l-1.37,1.44-.11.08.19.08v0a14.76,14.76,0,0,1,1.26-2.21l.17-.29a.61.61,0,0,0,.09-.3c0-.12-.27.06-.54.4l-.3.39a9.92,9.92,0,0,0-2,3.19c0,.17.13.12.22.14s.44-.18.8-.67.58-1,.5-1.07l.2-.23-.1.22a4.89,4.89,0,0,1,.5-1l.33-.52-.45.11-.15.28.07,0c-.29.54-.56,1.06-.91,1.63l-.4.74c-.08.22,0,.25.19.08l.27-.26-.13.11,1.67-2a1,1,0,0,0,.2-.32C188.94,431.05,188.87,431.07,188.78,431.18Z"/><path class="cls-2" d="M187,433.65a2.92,2.92,0,0,0-.31.35l0,.09.21-.19C187.05,433.76,187.09,433.66,187,433.65Z"/><path class="cls-2" d="M186.7,434.09l-.08.07.07,0v0Z"/><path class="cls-2" d="M204.44,417l-4.78,6.37c0,.07-.08.14-.07.15s.06,0,.11-.1l4.78-6.35c.05-.07.09-.14.08-.16S204.5,416.89,204.44,417Z"/><path class="cls-2" d="M191.29,431.91c0-.06,0-.07,0,0a.57.57,0,0,0-.12.18c0,.05,0,.06,0,0A.52.52,0,0,0,191.29,431.91Z"/><path class="cls-2" d="M190.43,430.59c.2-.32.38-.63.52-.91l.1-.14s0-.07,0-.19c1.35-2.28,2.93-4.64,4.46-7a.23.23,0,0,1,0-.14,2.88,2.88,0,0,1,.5-.86l.19-.23,2.25-2.9a6.93,6.93,0,0,1,.45-.73c.55-.91,1.09-1.82,1.67-2.74,0,0-.1.06-.12,0s.07-.28.24-.52l.26-.36-.79,1-.11.13-.82,1.14c-2.4,3.41-4.49,6.72-6.54,10a.37.37,0,0,1-.13.17s-.05,0,0-.06c1.17-2.17,2.06-4.14,3.51-6.51,1.72-2.82,3.45-5.58,5.3-8.41.77-1.06,1.49-2.1,2.21-3.15l5.35,3.88c-1.19,1.77-2.39,3.56-3.66,5.43-2.72,4-5.4,7.77-8.17,11.64-1,1.47-2.19,2.63-2.63,2.59-.27,0-.22-.48.09-1.16l-.26.35-.44.53a6.24,6.24,0,0,1-1.13,1.1l-.42.3c-.62.33-1.44,1-2,1.26l0-.16-.1.07a1.61,1.61,0,0,1-.73.45l-.09-.12a1.16,1.16,0,0,1,0-.78.18.18,0,0,1-.08-.2c-.29.14-.5.15-.51-.13-.13.11-.17.05-.08-.13a2.25,2.25,0,0,1,.12-.21h0l-.22.15-.17.2-.53.64a3.87,3.87,0,0,1-.42.37c-.43.14-.43.14-.48,0v-.08l-.27.29-.12.09c-.06,0-.06,0-.11,0h0c0-.18,0-.18,0-.19l0-.1.15-.26.37-.24v-.11l.11,0h-.08l.15-.15-.18.16a6.12,6.12,0,0,0,.42-.54,3.22,3.22,0,0,0,.23-.34h0l.66-.82.1-.07a1.12,1.12,0,0,1,.13-.22l.17-.21,0-.05h0l.11-.21,0,0h0l.48-.88.28-.35-.1.09c-.06.06-.07,0-.1,0-.76.85-1.52,1.81-2.29,2.76-.12.18-.27.33-.33.32s0-.15.13-.34a38.2,38.2,0,0,1,4.68-6.5l1.25-1.58-.08.06.34-.39,0-.05-.32.26-.18.2c-1,1.24-1.91,2.28-2.88,3.44-.52.62-1,1.13-1.52,1.7-.12.16-.23.24-.25.2s.06-.21.18-.36A40.45,40.45,0,0,1,192.9,424a7.08,7.08,0,0,1,.83-1l0,0-.25.18c.23-.27.4-.38.61-.62l-.17,0c1.07-1.35,2.13-2.87,3.2-4.06l.12-.14a18.17,18.17,0,0,1,1.14-1.88l-.51.64c.3-.51.62-1,1-1.51a17.19,17.19,0,0,1,3.07-3.36l2.42-3.41,3.88,2.81-3.3,4.71a.68.68,0,0,1-.25.26s0-.12.09-.26c1.05-1.62,2.15-3.24,3.26-4.86L204.57,409l-.76,1.11.82-1.07,3.36,2.44c-1,1.24-1.92,2.5-2.87,3.8l-.45.65c-.15.21-.31.42-.48.62-1.54,2.13-3,4.15-4.53,6.38-1.28,1.9-2.4,3.58-3.65,5.5-1.75,2.69-3.34,5.15-5.2,7.72-.24.35-.52.63-.63.62s0-.31.25-.66c3.65-5.53,7.18-11,11.28-16.57.44-.61.88-1.2,1.31-1.78h0s0-.11,0-.23l-1.52,2c-1.28,1.95-2.57,3.91-4.07,5.89-1,1.36-2,2.55-3,3.77q-1.7,2.47-3.39,5a.36.36,0,0,1-.13.14s0,0,0-.1c.73-1.19,1.49-2.4,2.27-3.61-.18.15-.32.22-.37.16s0-.26.1-.5l-.58.78c-.12.17-.24.27-.27.25s0-.18.15-.34l2.35-3.21,2.7-3.94a1,1,0,0,1-.43.25h0l-.43.6c-2.46,3.79-5.06,7.61-7.82,11.35-.06.07-.11.13-.13.12s0-.08.06-.15c.84-1.13,1.66-2.26,2.46-3.4h0s-.07,0,0,0a.71.71,0,0,1,.12-.18c.05,0,.07,0,.05,0,1.5-2.12,2.94-4.26,4.34-6.39-1.37,1.92-2.75,3.85-4.17,5.74l-.39.68a.61.61,0,0,1-.14.14s0-.05,0-.11l.11-.19c-.26.36-.53.59-.61.53s.09-.44.37-.82l2.16-3,.22-.33.2-.36-3.5,4.59c-.1.14-.2.23-.23.22s0-.15.11-.28q2.8-4.23,5.75-8.46l1.62-3-.26.35c-2.18,3-3.69,5.84-5.73,8.82-.05.08-.11.13-.13.13s0-.06.06-.14c1-1.46,1.8-2.85,2.74-4.33.78-1.23,1.53-2.39,2.22-3.55-1.58,2.26-3,4.51-4.5,6.76a1.14,1.14,0,0,1-.2.25l0,.07c-.16.3-.35.62-.55.95a.51.51,0,0,1-.14.15S190.39,430.66,190.43,430.59Zm1.95-3.19,0,.05.17-.18.31-.18Zm-2,3.73h0l-.18.11Zm17.17-19.28.36-.49-3.13-2.27c-.73,1-1.48,2-2.27,2.91l.6-.86,1.65-2.07,3.18,2.3Zm-17.23,17.52a6.38,6.38,0,0,1,.78-.62c.13-.21.28-.43.44-.64l1.27-1.66c-.1,0,0-.09,0-.16l.14-.21-1.39,1.71C191.15,428.31,190.7,428.89,190.28,429.37Zm-2.83,4.24,0,0,0-.16Zm0,.25.07-.08A.08.08,0,0,1,187.43,433.86Zm.64-.72a.53.53,0,0,0-.11.09Zm2.23.77-.09-.52.06.54Z"/><path class="cls-2" d="M131.35,366.13l.18-.05a2,2,0,0,1-.41.25,18.76,18.76,0,0,0,5-3.23c.5-.29.89-.63.87-.77s-.44,0-.95.28l-.34.15a20.53,20.53,0,0,0-2.76,1.15l.62-.24a8.52,8.52,0,0,0-.9.46h.15A9.21,9.21,0,0,0,130,366c-.54.61-.13.76.91.33Z"/><path class="cls-2" d="M133.51,365.7l-1.8.78-.13,0,.14.15v0a13.77,13.77,0,0,1,2-1.52l.26-.19a.66.66,0,0,0,.2-.24c0-.12-.27-.05-.65.15l-.42.24a9.66,9.66,0,0,0-3.09,2.1c-.09.14.07.16.15.22s.47,0,1-.3.91-.64.87-.78l.28-.13-.18.16a4.94,4.94,0,0,1,.85-.74l.5-.34-.45-.08-.24.19h.07c-.47.38-.91.74-1.45,1.12l-.65.52c-.16.17-.1.23.14.15l.35-.13-.16.05,2.29-1.17a.82.82,0,0,0,.3-.21C133.7,365.64,133.64,365.64,133.51,365.7Z"/><path class="cls-2" d="M131,367.27a2.23,2.23,0,0,0-.42.2l-.06.07.26-.09C130.94,367.38,131,367.3,131,367.27Z"/><path class="cls-2" d="M130.5,367.54l-.11,0,.08,0h0Z"/><path class="cls-2" d="M153.28,358.89l-6.81,3.93c-.08.05-.14.1-.13.11s.07,0,.14,0l6.81-3.92c.07-.05.13-.1.13-.12S153.35,358.85,153.28,358.89Z"/><path class="cls-2" d="M135.53,367.37c0-.05,0-.06,0,0a.72.72,0,0,0-.19.11s0,.06,0,0A.59.59,0,0,0,135.53,367.37Z"/><path class="cls-2" d="M135.25,365.81c.3-.21.58-.42.82-.62a.6.6,0,0,1,.15-.09s0-.07.12-.15c2.1-1.56,4.45-3.09,6.74-4.62a.57.57,0,0,1,.07-.13,2.74,2.74,0,0,1,.78-.58l.27-.14,3.17-1.76a7.36,7.36,0,0,1,.69-.49c.84-.62,1.69-1.23,2.57-1.84-.06,0-.11,0-.13,0s.18-.24.42-.38l.38-.23-1.1.6-.15.08c-.4.23-.79.47-1.19.72-3.5,2.16-6.68,4.37-9.82,6.59a.58.58,0,0,1-.19.1s0,0,0-.06c1.9-1.52,3.47-3,5.7-4.56,2.66-1.9,5.3-3.74,8.07-5.6,1.11-.66,2.18-1.33,3.23-2l3.4,5.67-5.43,3.52c-4,2.61-7.91,5-11.93,7.4-1.48.95-3,1.55-3.4,1.33-.23-.13,0-.52.54-1l-.37.22-.61.31a6,6,0,0,1-1.46.56l-.49.11c-.7.06-1.72.37-2.33.36l0-.17-.12,0a1.45,1.45,0,0,1-.83.11l0-.14a1.16,1.16,0,0,1,.28-.73c-.05,0,0-.12,0-.21-.32,0-.51-.05-.41-.32-.17.05-.18,0,0-.15a1,1,0,0,1,.19-.14h0l-.25.05-.24.11-.73.38a2.9,2.9,0,0,1-.52.17c-.45,0-.45,0-.46-.16l.05-.07-.37.16-.14,0s0,0-.09,0a.07.07,0,0,1,0,0c.11-.14.11-.14.1-.16l.06-.08.24-.18.44-.07,0-.09h.12l-.08,0,.2-.07-.23.07a6,6,0,0,0,.6-.34,2.45,2.45,0,0,0,.33-.21l0,0,.91-.48.13,0a.73.73,0,0,1,.2-.15l.23-.12,0,0h0l.18-.14,0,0h0l.77-.62.39-.2-.12,0c-.08,0,0-.06-.09,0-1,.46-2.09,1.05-3.15,1.61-.18.11-.37.19-.43.16s.06-.14.25-.26a36.94,36.94,0,0,1,6.77-4.09l1.74-1-.09,0,.46-.22,0,0-.39.11-.25.11c-1.34.75-2.62,1.33-3.95,2-.71.36-1.35.62-2,1-.17.09-.3.13-.3.08s.13-.17.3-.26a39.87,39.87,0,0,1,6.54-3.51,7.56,7.56,0,0,1,1.14-.57h0l-.28.07c.3-.16.5-.19.78-.32l-.16-.05c1.49-.81,3.05-1.78,4.48-2.44l.16-.08a18.07,18.07,0,0,1,1.77-1.27l-.72.38c.48-.34,1-.67,1.49-1a16.52,16.52,0,0,1,4.1-1.86l3.51-2.17,2.47,4.11-4.82,3a.7.7,0,0,1-.33.13s0-.11.18-.2c1.58-1.07,3.2-2.12,4.84-3.16l-2.21-3.68-1.12.71,1.15-.64,2.14,3.55c-1.35.76-2.71,1.53-4.08,2.34l-.66.42c-.22.13-.44.26-.67.38-2.23,1.34-4.36,2.59-6.59,4-1.9,1.23-3.56,2.32-5.44,3.58-2.64,1.77-5,3.39-7.72,5-.35.22-.71.37-.8.31s.12-.28.47-.5c5.46-3.61,10.78-7.21,16.66-10.69l1.88-1.11,0,0s0-.11.09-.21L149.59,360c-1.92,1.27-3.85,2.55-6,3.77-1.46.83-2.83,1.53-4.22,2.24l-5,3.22a.49.49,0,0,1-.17.08s0,0,.06-.09c1.11-.8,2.28-1.6,3.45-2.4-.22.07-.37.07-.4,0s.08-.24.28-.42l-.83.49c-.17.1-.32.15-.34.11s.1-.15.26-.24l3.39-2,4-2.54a1.13,1.13,0,0,1-.5.07h0l-.62.38c-3.7,2.49-7.53,4.95-11.5,7.28-.07,0-.14.07-.16.05s0-.06.11-.1c1.2-.71,2.38-1.42,3.56-2.14h0s-.07,0,0,0a.72.72,0,0,1,.19-.11c.06,0,.07,0,0,0,2.18-1.35,4.33-2.74,6.42-4.14-2,1.23-4,2.44-6,3.61l-.62.46a.45.45,0,0,1-.18.08s0-.05.07-.09l.18-.13c-.39.22-.72.33-.77.24s.26-.37.65-.6l3.14-1.92.33-.22.32-.25-5,2.81c-.14.09-.27.13-.29.1s.07-.12.21-.2c2.78-1.84,5.63-3.66,8.5-5.46l2.64-2.13-.37.22c-3.16,1.89-5.61,3.88-8.62,5.79-.08.05-.15.08-.17.07s0-.06.11-.11c1.46-.94,2.74-1.89,4.17-2.87,1.18-.81,2.3-1.58,3.38-2.37-2.31,1.44-4.44,2.95-6.71,4.41a1.17,1.17,0,0,1-.27.14l0,0c-.26.22-.56.44-.86.66a.45.45,0,0,1-.18.08S135.18,365.86,135.25,365.81Zm3-2.13h-.07l.22-.09.36,0Zm-3.29,2.6h0l-.21,0ZM158,355.44l.53-.31-2-3.31c-1.06.62-2.12,1.21-3.19,1.77l.87-.56,2.3-1.24,2,3.37Zm-22.46,9.2a7.35,7.35,0,0,1,1-.26c.21-.14.42-.28.65-.41l1.8-1c-.1,0,0-.08.11-.13l.21-.14-1.93,1C136.77,364,136.14,364.37,135.57,364.64Zm-4.2,2.76-.07,0,.08-.14Zm-.12.22.09,0S131.29,367.63,131.25,367.62Zm.86-.4a.42.42,0,0,0-.13,0Zm1.74,1.58.12-.51-.16.52Z"/></svg>