<svg id="Layer_1" data-name="Layer 1" xmlns="http://www.w3.org/2000/svg" viewBox="0 0 428.9 428.9"><defs><style>.cls-1{fill:#be2626;}.cls-2{fill:#fff;}.cls-3{fill:#be2627;}</style></defs><title>Artboard 1 copy</title><circle class="cls-1" cx="214.44" cy="214.46" r="214.46"/><path class="cls-2" d="M218.42,328.36a112.86,112.86,0,0,1-50.12-7.91c-2.08-.75-4.06-1.75-6.1-2.64s-4-2-6-3a115.66,115.66,0,0,1-11.39-7.17,111.88,111.88,0,0,1-20-18.26,115.08,115.08,0,0,1-24.58-47.59,117,117,0,0,1-3.31-26,115,115,0,0,1,2.49-25.14,113.7,113.7,0,0,1,27.1-53.25,114.45,114.45,0,0,1,165-4.4c-.2.18-5.22-4.1-.58.58,1.19,1.14,2.19,2.31,3.17,3.37S296,139,296.77,140l2.21,2.73c.67.85,1.24,1.67,1.79,2.42s1,1.43,1.48,2.06.8,1.25,1.15,1.78c.68,1.09,1.21,2,1.63,2.67,1.56,2.88,1.3,3,1.08,3.18a21.12,21.12,0,0,1-1.67-2.42c-1-1.4-2.25-3.25-3.47-4.87s-2.35-3.05-2.93-3.76-.6-.68.35.64a114.57,114.57,0,0,0-10.89-11.7c-1-1-2-1.8-3-2.69s-2-1.72-3-2.47l-2.84-2.23L276,123.46c-.84-.58-1.59-1.14-2.3-1.59l-1.9-1.19c-1.09-.68-1.82-1.13-2.09-1.27-.55-.27.81.61,4.8,3.36a135.69,135.69,0,0,1,14.77,12.45l1.08,1.05,1,1.1,2,2.16c1.32,1.42,2.47,2.89,3.58,4.19s2,2.6,2.79,3.66a29.53,29.53,0,0,1,1.81,2.69c3.35,5.48-4.33-4.75-1,.71.91,1.31,2.09,2.91,3.22,4.78.58.93,1.21,1.89,1.81,2.89s1.16,2.05,1.75,3.09,1.14,2.1,1.66,3.14,1,2.07,1.52,3c.88,2,1.73,3.8,2.32,5.28,1,3,.25,1.6-.48.19a13.44,13.44,0,0,0-.89-1.55c-.14-.15,0,.21.61,1.67a128,128,0,0,1,4.67,14.53,117.38,117.38,0,0,1,2.84,16.78,110.24,110.24,0,0,1-2.81,36.73c-.13,0-.66,1.49-.77,1.47s0-.42.23-1.6.63-3.07,1.22-6.15a107.45,107.45,0,0,0-.06-40.91,108.19,108.19,0,0,0-81.27-84.7A107,107,0,0,0,195,107.7a108.11,108.11,0,0,0-52.54,190.35,106.79,106.79,0,0,0,36.16,19.55,108.15,108.15,0,0,0,112.83-30.9,107.59,107.59,0,0,0,21-34.91c2.11-5.87,3-9.29,3.46-10.67s.41-.8,0,1.11a98,98,0,0,1-7.42,21.5c2.61-5.72,3-5.58,5.14-11.52a6.9,6.9,0,0,1-.54,2.33c-.23.76-.53,1.71-.91,2.84s-1,2.4-1.54,3.87a98.69,98.69,0,0,1-5.32,10.68,110,110,0,0,1-9.58,13.71A111.22,111.22,0,0,0,306.68,270c3.31-5.46.36.2.59.34l-1.2,2.08c-.4.68-.84,1.32-1.24,2-.83,1.26-1.55,2.47-2.25,3.45s-1.26,1.81-1.66,2.39a5,5,0,0,0-.58.94l.44.33a113.29,113.29,0,0,0,7.08-10.8,109.89,109.89,0,0,0,5.8-11.54l-2,4.33c-.69,1.34-1.33,2.6-1.88,3.68s-1,2-1.37,2.59a5.25,5.25,0,0,0-.48,1l.47.27a105.5,105.5,0,0,1-13.29,18.42,119.94,119.94,0,0,1-16.72,15.38l.24.32A105.43,105.43,0,0,0,295.5,289.7a113.8,113.8,0,0,0,13.3-18.52c-1.53,2.88-2.44,4.25-2.79,5s-.29.8-.18.87l-1,1.55-1.07,1.51-2.14,3L299.34,286l-1.15,1.44L297,288.81l-2.45,2.76L292,294.21l-1.29,1.32-1.35,1.26-2.7,2.5A126.7,126.7,0,0,1,262.39,316a114.79,114.79,0,0,0,16.7-10.36,98.46,98.46,0,0,1-26.29,15.05A108.47,108.47,0,0,1,235,326,124.52,124.52,0,0,1,218.42,328.36Z"/><path class="cls-2" d="M221.8,254.89a38.25,38.25,0,0,1-15.69.7,39.86,39.86,0,0,1-15.45-6,40.88,40.88,0,0,1-11.76-11.71,42.36,42.36,0,0,1-6.13-14.61,36.54,36.54,0,0,1-.72-4.57,18.1,18.1,0,0,1-.13-2.33l-.06-2.35c.12-1.55.18-3.14.41-4.7l.42-2.34.22-1.17c.12-.45.26-1,.43-1.43a12.1,12.1,0,0,1,3.44-4.83,16.9,16.9,0,0,1,4.66-2.8,33.31,33.31,0,0,1,9.61-2.17,74.5,74.5,0,0,1,18.53,1,102.88,102.88,0,0,1,17.4,4.54c-.1.25-2.07,0-.28.77a26.92,26.92,0,0,1,6.08,3.19c.78.63.66.88.55,1.13a12.61,12.61,0,0,1-2.48-1c-1.1-.48-2-.82-1.16-.34-5.31-2.29-14.63-4.54-9.17-2.75.88.39,3.16,1.09,5.4,1.91a28.87,28.87,0,0,1,5.21,2.33c1.57,1.14-2,0-.48,1.13a66.86,66.86,0,0,1,6.66,3.35c1.45,1.16-2-.22-.42.7a40.56,40.56,0,0,1,7.16,5.62,14,14,0,0,1,2.66,3.83,7.94,7.94,0,0,1,.56,2.08,6.58,6.58,0,0,1-.15,2.07c-.13,0-.37.39-.49.37s-.08-.14,0-.5,0-.64,0-1.26c.06-2.68-2.25-5.71-5.19-8a46.8,46.8,0,0,0-10.09-6,93.84,93.84,0,0,0-23.3-6.85,75.7,75.7,0,0,0-12.06-1,35.05,35.05,0,0,0-11.36,1.59A10.71,10.71,0,0,0,180.5,205a4.91,4.91,0,0,0-1.08,1.61,2.18,2.18,0,0,0-.16.45,3.5,3.5,0,0,0-.14.53l-.27,1.42a33,33,0,0,0-.31,11.47,34.68,34.68,0,0,0,10.4,20.07,35.29,35.29,0,0,0,9.47,6.38,35,35,0,0,0,22.4,2.1,35.61,35.61,0,0,0,10.44-4.51,34.46,34.46,0,0,0,13.91-17.53,24.86,24.86,0,0,1,1.07-2.94c.18-.43.24-.19.18.35s-.23,1.48-.45,2.6a11.8,11.8,0,0,1-.49,1.77c-.2.62-.41,1.26-.61,1.9.54-1.71,1-1.54,1.46-3.28.09,0,.17.3.11.76a17.41,17.41,0,0,1-.45,2c-.13.44-.25,1-.46,1.49s-.49,1.12-.77,1.74a28,28,0,0,1-2.43,4.22l1.56-2.31c.53-.76.9-1.62,1.37-2.43,1-1.57.36.18.6.32-.46.82-.87,1.68-1.25,2.28s-.62,1-.56,1.05l.45.3c.26-.41.62-.89,1-1.46s.66-1.22,1-1.85a28,28,0,0,0,1.62-3.5c-.38.89-.72,1.79-1,2.44s-.53,1.09-.47,1.12l.49.25a30.26,30.26,0,0,1-3.71,5.77c-.81.92-1.55,1.9-2.37,2.72s-1.6,1.61-2.28,2.32l.27.3c.73-.67,1.54-1.44,2.38-2.27s1.57-1.84,2.37-2.79a39.93,39.93,0,0,0,3.7-5.86c-.83,1.81-.71,1.89-.48,2a44.58,44.58,0,0,1-2.5,3.76L243,241.5a16,16,0,0,1-1.53,1.66,41.63,41.63,0,0,1-3.3,3.07l-1.72,1.47-1.81,1.36a44.74,44.74,0,0,0,4.81-3.65,27.24,27.24,0,0,1-2.92,2.76,32.72,32.72,0,0,1-4.53,2.88,28.14,28.14,0,0,1-2.58,1.28l-2.65,1.07c-.87.33-1.76.55-2.59.82A20.83,20.83,0,0,1,221.8,254.89Z"/><path class="cls-2" d="M215.24,293.63a75,75,0,0,1-33.43-5.21,73,73,0,0,1-15.65-8.57,74.11,74.11,0,0,1-13.35-12.18,76.83,76.83,0,0,1-16.38-31.75,76.48,76.48,0,0,1-.6-34.1,75.68,75.68,0,0,1,18-35.61,76.46,76.46,0,0,1,110.32-3c-.2.18-3.64-2.57-.57.58a62.45,62.45,0,0,1,6.45,7.78,40.71,40.71,0,0,1,2.73,4.4c1,2,.72,2.12.5,2.26a8.5,8.5,0,0,1-1.15-1.58c-.67-.92-1.49-2.15-2.29-3.22s-1.56-2-1.95-2.48-.41-.44.2.44a75,75,0,0,0-7.2-7.72,68.88,68.88,0,0,0-7.61-6.11c-1.08-.79-2.05-1.38-2.78-1.82s-1.21-.73-1.4-.82c-.37-.16.52.44,3.14,2.27a98.29,98.29,0,0,1,9.71,8.26A54,54,0,0,1,270,175.3c2.08,3.68-3.08-3-1,.71.59.85,1.37,1.9,2.11,3.13l1.18,1.89,1.15,2c.78,1.35,1.43,2.77,2.08,4.05s1.13,2.49,1.52,3.45c.63,2,.06,1.09-.48.19s-1.09-1.77-.28.12a87.09,87.09,0,0,1,3,9.49,77.74,77.74,0,0,1,1.84,10.94,71.75,71.75,0,0,1-1.82,23.95c-.13,0-.52,1-.64.93s0-.28.1-1.06.38-2,.75-4a69.7,69.7,0,0,0-.06-26.58,70.25,70.25,0,0,0-52.8-55,69.55,69.55,0,0,0-26.73-1.12,70.1,70.1,0,0,0-34,123.43,69.48,69.48,0,0,0,23.43,12.67,70.11,70.11,0,0,0,86.79-42.62c1.38-3.81,1.95-6,2.3-6.91s.32-.5.08.74a60.78,60.78,0,0,1-4.63,14.08c1.66-3.75,2-3.6,3.4-7.49q.15,0-.24,1.56c-.13.5-.31,1.13-.54,1.88s-.59,1.59-1,2.56a59.72,59.72,0,0,1-3.39,7,67.73,67.73,0,0,1-6.23,9,72.45,72.45,0,0,0,7.18-10.3c2.22-3.56.36.2.59.34-.52.92-1.05,1.84-1.6,2.66s-1,1.63-1.48,2.28a14.26,14.26,0,0,0-1.44,2.21l.44.33a75.4,75.4,0,0,0,4.67-7.13,72.19,72.19,0,0,0,3.83-7.62c-.43,1-.87,1.94-1.28,2.85l-1.24,2.44a22.78,22.78,0,0,0-1.19,2.39l.47.27a67.88,67.88,0,0,1-8.8,12.21A82.33,82.33,0,0,1,255,277.54l.25.33a68.76,68.76,0,0,0,11.17-10.21,75.63,75.63,0,0,0,8.82-12.3c-1,1.93-1.58,2.85-1.8,3.35s-.13.56,0,.64c-.84,1.4-1.86,2.69-2.79,4s-2,2.6-3.1,3.8a78.26,78.26,0,0,1-6.91,7,88.79,88.79,0,0,1-16.08,11.16,76.54,76.54,0,0,0,11.11-6.9,60.93,60.93,0,0,1-17.46,10.13,73.06,73.06,0,0,1-11.87,3.54A86.35,86.35,0,0,1,215.24,293.63Z"/><rect class="cls-3" x="82.89" y="75.58" width="270.57" height="144.75"/><path class="cls-2" d="M110.7,199.81h-17a7.2,7.2,0,0,0,1.89,4.64,5.78,5.78,0,0,0,4.31,1.7,5.59,5.59,0,0,0,3.38-1,14,14,0,0,0,3-3.6l4.62,2.58a19,19,0,0,1-2.26,3.13,12,12,0,0,1-2.56,2.13,10.18,10.18,0,0,1-2.94,1.23,14.29,14.29,0,0,1-3.43.39,11.15,11.15,0,0,1-8.51-3.4,12.79,12.79,0,0,1-3.21-9.1,13.1,13.1,0,0,1,3.12-9.09,11.86,11.86,0,0,1,16.58-.1q3,3.32,3,9.17Zm-5.62-4.48Q103.94,191,99.56,191a5.73,5.73,0,0,0-1.87.3,5.51,5.51,0,0,0-2.82,2.25,6.5,6.5,0,0,0-.78,1.82Z"/><path class="cls-2" d="M116.68,186.68h5.47v2.19a11.38,11.38,0,0,1,2.7-2.24,6.6,6.6,0,0,1,3-.61,7.26,7.26,0,0,1,6.34,3.5,8.23,8.23,0,0,1,7-3.5q8,0,8,9.7v14.64h-5.49V197.21a10.18,10.18,0,0,0-.83-4.82A3,3,0,0,0,140,191a3.58,3.58,0,0,0-3.29,1.7,11,11,0,0,0-1,5.47v12.23h-5.5V197.28c0-4.21-1.21-6.32-3.65-6.32a3.63,3.63,0,0,0-3.36,1.72,10.75,10.75,0,0,0-1.06,5.45v12.23h-5.47Z"/><path class="cls-2" d="M177.63,199.81h-17a7.21,7.21,0,0,0,1.9,4.64,5.76,5.76,0,0,0,4.3,1.7,5.59,5.59,0,0,0,3.38-1,13.83,13.83,0,0,0,3-3.6l4.62,2.58a18.43,18.43,0,0,1-2.26,3.13,12,12,0,0,1-2.55,2.13,10.24,10.24,0,0,1-2.95,1.23,14.21,14.21,0,0,1-3.42.39,11.13,11.13,0,0,1-8.51-3.4,12.79,12.79,0,0,1-3.21-9.1,13.14,13.14,0,0,1,3.11-9.09,11.86,11.86,0,0,1,16.58-.1q3,3.32,3,9.17ZM172,195.33Q170.87,191,166.5,191a5.79,5.79,0,0,0-1.88.3,5.51,5.51,0,0,0-2.82,2.25,6.2,6.2,0,0,0-.77,1.82Z"/><path class="cls-2" d="M183.61,186.68h5.47v2.11a10.58,10.58,0,0,1,2.68-2.16,6.17,6.17,0,0,1,2.82-.61,8.83,8.83,0,0,1,4.52,1.41l-2.5,5a5.29,5.29,0,0,0-3-1.12c-3,0-4.48,2.26-4.48,6.76v12.28h-5.47Z"/><path class="cls-2" d="M225.14,209.8c0,1.12,0,2.1-.11,2.95a19.32,19.32,0,0,1-.3,2.25,10.06,10.06,0,0,1-2.29,4.6,11.09,11.09,0,0,1-8.83,3.7,11.78,11.78,0,0,1-7.8-2.56,10.44,10.44,0,0,1-3.65-7.27h5.5a6.27,6.27,0,0,0,1,2.7,5.87,5.87,0,0,0,5,2.21q6,0,6-7.36v-3.31a10.22,10.22,0,0,1-7.51,3.33,10.1,10.1,0,0,1-7.93-3.5,13,13,0,0,1-3.11-8.87,13.67,13.67,0,0,1,2.89-8.81,10.06,10.06,0,0,1,8.22-3.84,9.55,9.55,0,0,1,7.44,3.33v-2.67h5.47Zm-5.25-11.23a8,8,0,0,0-1.85-5.52,6.11,6.11,0,0,0-4.79-2.12,5.89,5.89,0,0,0-4.91,2.31,8.36,8.36,0,0,0-1.63,5.35,8.26,8.26,0,0,0,1.63,5.3,5.88,5.88,0,0,0,4.91,2.26,6,6,0,0,0,5-2.28A8.15,8.15,0,0,0,219.89,198.57Z"/><path class="cls-2" d="M253.61,199.81h-17a7.15,7.15,0,0,0,1.9,4.64,5.74,5.74,0,0,0,4.3,1.7,5.59,5.59,0,0,0,3.38-1,14,14,0,0,0,3-3.6l4.62,2.58a19,19,0,0,1-2.26,3.13,12,12,0,0,1-2.56,2.13,10.06,10.06,0,0,1-2.94,1.23,14.23,14.23,0,0,1-3.43.39,11.13,11.13,0,0,1-8.5-3.4,12.79,12.79,0,0,1-3.21-9.1,13.1,13.1,0,0,1,3.11-9.09,11.86,11.86,0,0,1,16.58-.1q3,3.32,3,9.17ZM248,195.33q-1.14-4.37-5.52-4.37a5.77,5.77,0,0,0-1.87.3,5.51,5.51,0,0,0-2.82,2.25,6.5,6.5,0,0,0-.78,1.82Z"/><path class="cls-2" d="M259.59,186.68h5.5v2.19a8.94,8.94,0,0,1,6.46-2.85,8.19,8.19,0,0,1,6.45,2.6c1.32,1.48,2,3.89,2,7.23v14.51h-5.5V197.13c0-2.33-.32-3.94-1-4.83s-1.78-1.37-3.45-1.37a4.23,4.23,0,0,0-3.87,1.8c-.74,1.19-1.11,3.25-1.11,6.2v11.43h-5.5Z"/><path class="cls-2" d="M305.32,187.7V195a13.48,13.48,0,0,0-3.35-3.14,6.57,6.57,0,0,0-3.43-.87,6.76,6.76,0,0,0-5.13,2.16,7.61,7.61,0,0,0-2,5.42,7.72,7.72,0,0,0,2,5.47,6.62,6.62,0,0,0,5.08,2.14,7,7,0,0,0,3.48-.85,13.73,13.73,0,0,0,3.42-3.21v7.22a14.25,14.25,0,0,1-6.66,1.73,12.75,12.75,0,0,1-9.19-3.55,11.85,11.85,0,0,1-3.69-8.87,12,12,0,0,1,3.74-9,12.68,12.68,0,0,1,9.19-3.65A13.7,13.7,0,0,1,305.32,187.7Z"/><path class="cls-2" d="M332.19,199.81h-17a7.2,7.2,0,0,0,1.89,4.64,5.78,5.78,0,0,0,4.31,1.7,5.59,5.59,0,0,0,3.38-1,14,14,0,0,0,3-3.6l4.62,2.58a18.43,18.43,0,0,1-2.26,3.13,12,12,0,0,1-2.56,2.13,10.06,10.06,0,0,1-2.94,1.23,14.23,14.23,0,0,1-3.43.39,11.15,11.15,0,0,1-8.51-3.4,12.78,12.78,0,0,1-3.2-9.1,13.1,13.1,0,0,1,3.11-9.09,11.86,11.86,0,0,1,16.58-.1q3,3.32,3,9.17Zm-5.62-4.48q-1.14-4.37-5.52-4.37a5.77,5.77,0,0,0-1.87.3,5.51,5.51,0,0,0-2.82,2.25,6.5,6.5,0,0,0-.78,1.82Z"/><path class="cls-2" d="M380.15,214.13l-.18,0a2.5,2.5,0,0,1,.49,0,19.53,19.53,0,0,0-6.09.14c-.59,0-1.12.07-1.17.2s.37.25,1,.26l.38,0a21.52,21.52,0,0,0,3,.46l-.67-.12c.33,0,.66.07,1,.08l-.12-.07a9.42,9.42,0,0,0,3.48-.11c.79-.24.51-.57-.62-.75Z"/><path class="cls-2" d="M378,213.37l2,.28.12,0,0-.2h0a14.36,14.36,0,0,1-2.56.26l-.33,0a.56.56,0,0,0-.3.1c-.07.09.21.19.65.21l.5,0a10.18,10.18,0,0,0,3.81-.19c.15-.07,0-.17,0-.26s-.41-.25-1-.26-1.13.08-1.17.21l-.32,0,.25,0a4.44,4.44,0,0,1-1.14.19l-.62,0,.35.31.32,0-.07,0c.61-.08,1.19-.16,1.86-.21l.85-.1c.23-.06.2-.15,0-.2l-.38-.07.17,0-2.63-.2a.86.86,0,0,0-.37,0C377.84,213.32,377.9,213.36,378,213.37Z"/><path class="cls-2" d="M381.09,213.36a2.11,2.11,0,0,0,.47,0l.09,0-.28-.06C381.18,213.29,381.08,213.31,381.09,213.36Z"/><path class="cls-2" d="M381.65,213.38l.11,0-.08,0h0Z"/><path class="cls-2" d="M357.18,208.86l8,.2c.09,0,.17,0,.17,0s-.06,0-.15,0l-8-.21c-.09,0-.16,0-.17,0S357.1,208.86,357.18,208.86Z"/><path class="cls-2" d="M377.17,210.9c-.06,0-.06,0,0,0a.81.81,0,0,0,.22,0c.05,0,.05,0,0,0A.88.88,0,0,0,377.17,210.9Z"/><path class="cls-2" d="M376.59,212.37l-1,.1h-.18s-.05.06-.18.07c-2.67.23-5.53.31-8.35.42a.31.31,0,0,1-.12.07,3,3,0,0,1-1,.09l-.31,0-3.7-.15a7.57,7.57,0,0,1-.87.05c-1.06.09-2.13.17-3.22.23.06,0,.11.05.1.07s-.27.12-.57.11h-.44l1.28.06.17,0h1.42c4.2,0,8.15-.24,12.07-.49a.59.59,0,0,1,.23,0s0,0,0,0c-2.48.31-4.62.73-7.41.92-3.33.23-6.61.42-10,.56-1.32,0-2.6,0-3.88,0l.05-6.61,6.61-.17c4.91-.12,9.55-.1,14.35-.08,1.8,0,3.45.25,3.68.64.13.23-.28.45-1,.59h.44l.69,0a6.69,6.69,0,0,1,1.57.29l.49.17c.65.31,1.69.58,2.22.9l-.12.12.13,0a1.41,1.41,0,0,1,.78.34l0,.14a1.23,1.23,0,0,1-.63.47q0,.09-.12.18c.29.15.42.31.19.49.17,0,.14.1-.06.14l-.24,0h0l.25.09.27,0,.84.06a2.88,2.88,0,0,1,.54.13c.37.26.37.26.31.37l-.07,0,.4.05.14,0c0,.06,0,.06.06.08a.08.08,0,0,1,0,0c-.17.06-.17.06-.18.08l-.09,0-.31,0-.41-.16-.09,0-.1-.07.05.07-.21,0,.24.06-.7,0a1.94,1.94,0,0,0-.4,0v0l-1.05-.06-.12,0a.61.61,0,0,1-.25,0h-.34l-.23,0H378l-1,.13-.45,0,.13,0c.09,0,0,.08.05.09,1.14.13,2.39.19,3.61.27a.75.75,0,0,1,.46.08s-.13.09-.35.09a38.4,38.4,0,0,1-8.09,0l-2-.1.1,0-.52-.05h-.06l.4.11.27,0c1.57.06,3,.23,4.51.35.82.07,1.52.17,2.29.26.2,0,.34,0,.31.09a.68.68,0,0,1-.4.06,41.81,41.81,0,0,1-7.57-.42,8.41,8.41,0,0,1-1.3-.11h0l.29.09c-.35,0-.54-.1-.86-.13l.12.12c-1.73-.09-3.61-.07-5.21-.26h-.19a20.64,20.64,0,0,1-2.21.16l.83,0a20.34,20.34,0,0,1-6.39-.48h-4.21l0-4.79,5.8,0a.59.59,0,0,1,.36.06s-.1.07-.27.07c-2,.09-3.92.13-5.9.17l0,4.29,1.35,0-1.35-.05,0-4.15c1.59.06,3.18.11,4.8.13h.8a6.89,6.89,0,0,1,.79,0c2.66,0,5.18.07,7.9,0l6.65-.22c3.25-.13,6.2-.27,9.4-.24a1.48,1.48,0,0,1,.87.15c.05.09-.26.18-.69.18-6.68.23-13.24.53-20.22.42l-2.23,0a.05.05,0,0,1,0,0s-.07.09-.19.13l2.53.08c2.35-.09,4.71-.17,7.22-.1,1.72.05,3.28.18,4.87.29l6.08-.13a.34.34,0,0,1,.19,0s0,0-.1,0c-1.4.11-2.84.18-4.29.25.23.05.37.13.35.21s-.2.16-.47.21l1,0c.21,0,.37,0,.36.08s-.17.07-.36.07l-4,0-4.82.08a1.33,1.33,0,0,1,.47.2h.74c4.55-.2,9.21-.3,13.91-.21.09,0,.16,0,.16,0s-.07,0-.15,0c-1.42,0-2.83,0-4.24,0h0c.05,0,.07,0,0,0a.55.55,0,0,1-.22,0c-.06,0-.06,0,0,0-2.63,0-5.24.07-7.81.17,2.39,0,4.78,0,7.17.06l.78-.07a.53.53,0,0,1,.2,0s0,0-.11,0l-.22,0c.45,0,.8.09.79.19s-.41.18-.88.17h-4.17l-.41,0,5.82.18c.17,0,.31,0,.31.07s-.13.07-.29.07c-3.41.11-6.86.18-10.32.22l-3.44.43h.44c3.76,0,7-.38,10.61-.44a.26.26,0,0,1,.18,0s-.06,0-.15,0c-1.78.05-3.4.19-5.17.28-1.46.07-2.85.14-4.21.25,2.78,0,5.44-.19,8.19-.25a1.05,1.05,0,0,1,.32,0l.07,0,1.1-.1a.44.44,0,0,1,.21,0S376.67,212.36,376.59,212.37Zm-3.76.26.07,0-.24,0-.34-.15Zm4.26-.5h0l.19.08Zm-25.89-2.81h-.63l0,3.87q1.88,0,3.72.15l-1.05,0-2.67-.14,0-3.93Zm24.48,3.88a10,10,0,0,1-1-.27c-.25,0-.51,0-.78,0l-2.11-.08c.09.06-.07,0-.16,0l-.26,0,2.22.13C374.3,213.11,375,213.14,375.68,213.2Zm5.14-.15h.06l-.14.08Zm.22-.13h-.11S381,212.89,381,212.92Zm-1-.11a.43.43,0,0,0,.14,0Zm-.67-2.26-.38.38.42-.36Z"/><path class="cls-2" d="M367.36,286.32l-.16-.13a2.51,2.51,0,0,1,.48.23,22.57,22.57,0,0,0-6-2.77c-.57-.3-1.12-.47-1.23-.38s.26.4.83.7l.35.22a25.13,25.13,0,0,0,2.73,1.85l-.59-.42c.3.18.6.37,1,.55l-.09-.12a11,11,0,0,0,3.43,1.55c.87.16.75-.27-.28-1Z"/><path class="cls-2" d="M365.64,284.63l1.8,1.2.11.1.05-.2h0a15.55,15.55,0,0,1-2.6-1l-.33-.13a.6.6,0,0,0-.34-.05c-.11.05.13.27.54.49l.48.25a11.86,11.86,0,0,0,3.78,1.65c.18,0,.1-.15.1-.24s-.28-.42-.87-.72-1.13-.47-1.23-.37l-.29-.18.25.08a5.79,5.79,0,0,1-1.19-.37l-.61-.27.2.44.33.12-.05-.06c.63.22,1.23.42,1.9.7l.87.31c.24.05.26,0,0-.2l-.33-.24.15.12-2.47-1.43a1.11,1.11,0,0,0-.37-.16C365.47,284.49,365.51,284.55,365.64,284.63Z"/><path class="cls-2" d="M368.61,286.06a2.11,2.11,0,0,0,.44.27l.09,0-.24-.18C368.73,286,368.62,286,368.61,286.06Z"/><path class="cls-2" d="M369.14,286.35l.1.07-.06-.06h0Z"/><path class="cls-2" d="M347.34,270.66l7.72,4a.31.31,0,0,0,.18.06s-.05-.07-.13-.11l-7.7-4a.34.34,0,0,0-.19-.06S347.26,270.62,347.34,270.66Z"/><path class="cls-2" d="M365.88,282c-.07,0-.07,0,0,.05a.55.55,0,0,0,.22.1c.06,0,.06,0,0,0A.84.84,0,0,0,365.88,282Z"/><path class="cls-2" d="M364.67,283c-.38-.16-.74-.3-1.07-.41l-.17-.08s-.07,0-.21,0c-2.69-1.06-5.51-2.35-8.3-3.59,0,0-.07,0-.14,0a3.49,3.49,0,0,1-1-.39l-.29-.16-3.53-1.9a8,8,0,0,1-.86-.36c-1.08-.43-2.15-.87-3.24-1.33.06.05.09.09.07.12s-.31,0-.6-.18l-.43-.21,1.22.67.16.09,1.38.68c4.09,2,8,3.66,12,5.29a.84.84,0,0,1,.21.11s0,.05-.06,0c-2.54-.89-4.8-1.54-7.6-2.69-3.33-1.37-6.61-2.76-10-4.26-1.28-.64-2.53-1.24-3.78-1.82l2.94-5.92,6.5,3c4.82,2.23,9.32,4.44,14,6.74,1.77.82,3.24,1.86,3.29,2.32,0,.28-.46.28-1.25.06l.43.21.65.38a6.91,6.91,0,0,1,1.4,1l.4.38c.49.59,1.39,1.33,1.76,1.87l-.17.05.11.09c.36.28.58.52.61.68l-.1.11a1.32,1.32,0,0,1-.82.12c0,.07-.08.1-.19.11.21.27.27.48,0,.53.15.12.09.16-.12.1l-.24-.1h0a1.86,1.86,0,0,0,.2.2l.25.15.79.45a3.83,3.83,0,0,1,.47.38c.24.41.24.41.14.49h-.09l.36.24a.71.71,0,0,1,.12.11c0,.06,0,.06,0,.1a.12.12,0,0,1,0,.05c-.19,0-.19,0-.21,0h-.1l-.31-.12-.34-.34h-.11l-.06-.11,0,.09-.18-.14.21.17c-.48-.27-.48-.27-.67-.36a4.39,4.39,0,0,0-.4-.19s0,0,0,0l-1-.56-.1-.09-.25-.1-.26-.15-.06,0h0l-.24-.09h-.05l-1-.37-.42-.24.11.09c.07.06,0,.07,0,.1,1.05.66,2.23,1.31,3.38,2,.22.1.4.23.41.29s-.16,0-.38-.09a44.3,44.3,0,0,1-7.84-3.88L358,281.32l.08.07-.48-.29-.06,0,.34.29.25.16c1.5.8,2.81,1.63,4.23,2.46.77.44,1.4.87,2.11,1.31.19.1.31.2.27.23s-.24,0-.42-.13a48.47,48.47,0,0,1-7.17-4,8.55,8.55,0,0,1-1.22-.71h0l.24.22c-.33-.19-.47-.35-.77-.53l.06.17c-1.65-.91-3.48-1.78-4.95-2.71l-.18-.1a22.13,22.13,0,0,1-2.21-.91l.78.44c-.6-.24-1.19-.5-1.8-.81a20.41,20.41,0,0,1-4.19-2.66l-4.11-2,2.14-4.28,5.66,2.71c.17.08.31.17.32.22s-.12,0-.29-.06c-1.93-.85-3.86-1.74-5.8-2.65l-1.92,3.84,1.33.63-1.29-.69,1.84-3.72c1.52.81,3.05,1.61,4.61,2.4l.78.38c.26.12.51.25.76.39,2.57,1.29,5,2.52,7.67,3.75l6.57,3c3.21,1.42,6.14,2.7,9.24,4.24.41.2.77.45.77.56s-.32,0-.74-.17c-6.6-3-13.1-5.82-19.84-9.23-.73-.36-1.44-.73-2.15-1.09v.05s-.11.05-.24,0l2.42,1.27c2.32,1,4.65,2.08,7.06,3.34,1.65.87,3.11,1.72,4.61,2.57l6,2.77a.61.61,0,0,1,.18.12s0,0-.11,0q-2.11-.87-4.28-1.82c.19.16.29.29.24.35s-.26.05-.55,0l.95.48c.2.1.34.21.32.24s-.2,0-.39-.1l-3.88-2L356,277.08a1.22,1.22,0,0,1,.36.41h0l.72.36c4.51,2,9.08,4.11,13.61,6.41.09.05.15.1.15.12s-.09,0-.17-.05q-2-1-4.1-2h0c.05,0,.05.06,0,0a.88.88,0,0,1-.22-.1c-.06-.05,0-.06,0-.05-2.56-1.24-5.12-2.42-7.66-3.56,2.32,1.14,4.64,2.28,6.93,3.47l.8.31a.5.5,0,0,1,.17.12s0,0-.12,0l-.22-.09c.44.23.74.47.69.55s-.49,0-.94-.26l-3.66-1.79-.4-.18-.41-.15,5.57,2.93c.16.08.29.18.27.21s-.15,0-.31-.08c-3.36-1.52-6.75-3.09-10.13-4.7l-3.53-1.25.42.22c3.65,1.82,6.94,3,10.51,4.64a.4.4,0,0,1,.16.11s-.07,0-.16,0c-1.75-.81-3.39-1.46-5.14-2.21-1.46-.63-2.84-1.23-4.21-1.78,2.71,1.3,5.37,2.42,8.08,3.67a1.19,1.19,0,0,1,.3.17s0,0,.07,0c.36.12.74.27,1.12.43a.63.63,0,0,1,.19.11S364.75,283.07,364.67,283Zm-3.77-1.56.06.06-.22-.15-.26-.3Zm4.36,1.58h0l.15.17Zm-23.93-14.83-.61-.3L339,271.39c1.2.61,2.39,1.24,3.55,1.91l-1-.49L339,271.42l1.76-3.52Zm22.09,15.12a7.94,7.94,0,0,1-.82-.7l-.77-.36-2-1.07c.06.09-.1,0-.18,0l-.26-.12,2.1,1.18C362.12,282.61,362.82,283,363.42,283.35Zm5.06,2.3,0,.05h-.16Zm.27,0-.1-.06A.09.09,0,0,1,368.75,285.64Zm-.89-.55a.5.5,0,0,0,.11.1Zm.34-2.35-.54.16.56-.13Z"/><path class="cls-2" d="M45.43,209l.16,0a1.53,1.53,0,0,1-.43,0,15.21,15.21,0,0,0,5.38,0c.52,0,1,0,1-.17s-.33-.25-.85-.29a2.19,2.19,0,0,1-.33-.06,18.65,18.65,0,0,0-2.65-.54l.58.14a7.91,7.91,0,0,0-.9-.11l.11.08a7.34,7.34,0,0,0-3.07,0c-.71.21-.48.56.52.77Z"/><path class="cls-2" d="M47.27,209.86l-1.74-.34-.11-.05,0,.2h0a10.47,10.47,0,0,1,2.26-.19l.29,0q.23,0,.27-.09c.07-.09-.18-.19-.56-.22l-.44,0a7.89,7.89,0,0,0-3.37.08c-.14.07,0,.17,0,.26s.35.26.89.29,1,0,1-.18l.28,0-.22,0a3.79,3.79,0,0,1,1-.16h.55l-.3-.31-.28,0,.06,0c-.55.06-1.06.12-1.65.15l-.75.08c-.2.05-.19.14,0,.2l.33.08-.15,0,2.31.27a.71.71,0,0,0,.33,0S47.39,209.87,47.27,209.86Z"/><path class="cls-2" d="M44.58,209.79a1.56,1.56,0,0,0-.42-.06l-.07,0,.24.06C44.5,209.85,44.59,209.83,44.58,209.79Z"/><path class="cls-2" d="M44.09,209.75l-.1,0,.06,0h0Z"/><path class="cls-2" d="M65.52,215l-7.08-.43c-.08,0-.15,0-.15,0s.05,0,.13,0l7.07.44c.08,0,.14,0,.15,0S65.59,215,65.52,215Z"/><path class="cls-2" d="M48,212.35c.06,0,0,0,0,0a.45.45,0,0,0-.2,0s0,0,0,0A.46.46,0,0,0,48,212.35Z"/><path class="cls-2" d="M48.52,210.9c.33,0,.64,0,.92-.08h.16s0-.05.17-.06c2.35-.16,4.88-.16,7.37-.19l.11-.06a2.27,2.27,0,0,1,.88-.07l.27,0,3.27.26a4.55,4.55,0,0,1,.76,0c.94-.06,1.89-.11,2.85-.14-.06,0-.09,0-.09-.08s.25-.1.51-.09h.39L65,210.32l-.15,0-1.25-.05c-3.71-.09-7.2,0-10.67.16a.44.44,0,0,1-.2,0s0,0,0,0c2.19-.24,4.1-.6,6.57-.71,2.94-.14,5.84-.23,8.85-.28,1.17,0,2.3.08,3.43.09l-.27,6.61-5.84,0c-4.33,0-8.42-.16-12.66-.32-1.59,0-3-.35-3.22-.74-.11-.24.26-.45.92-.57l-.39,0-.61-.07a5.07,5.07,0,0,1-1.38-.33l-.42-.18c-.56-.33-1.47-.63-1.93-1l.11-.12-.11,0a1.22,1.22,0,0,1-.68-.36l0-.14a1.1,1.1,0,0,1,.57-.45.23.23,0,0,1,.11-.18c-.24-.16-.35-.32-.15-.49-.15-.05-.12-.11.06-.14h.21l-.21-.11-.24,0-.74-.08a2.53,2.53,0,0,1-.47-.14c-.32-.28-.32-.28-.26-.39l.06,0-.35-.07-.12,0c0-.07,0-.07,0-.09a.05.05,0,0,1,0-.05c.15-.06.15-.06.15-.08l.08,0,.27,0,.37.18.08-.06.08.08,0-.07.18.05-.21-.07a4,4,0,0,0,.62,0,2.47,2.47,0,0,0,.36,0l0,0,.93.09.11.05a.49.49,0,0,1,.22,0l.24,0H47l.21,0h0l.89-.1.4.05-.12,0c-.07,0,0-.08,0-.08-1-.17-2.1-.27-3.18-.38a.64.64,0,0,1-.4-.09s.12-.08.32-.08a30,30,0,0,1,7.13.27l1.78.15-.08,0,.46.07h0l-.34-.12-.25,0c-1.38-.1-2.63-.32-4-.48-.71-.09-1.33-.21-2-.32-.18,0-.3-.05-.28-.1a.61.61,0,0,1,.36,0,33,33,0,0,1,6.66.63,6.3,6.3,0,0,1,1.15.15h0l-.25-.1c.31,0,.47.12.75.16l-.09-.13c1.52.14,3.18.17,4.58.41l.17,0a14.85,14.85,0,0,1,2-.1l-.72-.07c.52,0,1,0,1.61,0a14,14,0,0,1,4,.68l3.72.11-.19,4.79L66.22,215a.57.57,0,0,1-.31-.06s.09-.07.24-.07c1.72,0,3.46,0,5.21,0l.17-4.29-1.19,0,1.19.09-.17,4.15c-1.4-.11-2.8-.2-4.23-.27l-.71,0c-.23,0-.46,0-.69,0-2.35-.1-4.57-.21-7-.22-2,0-3.84,0-5.88,0-2.86,0-5.47.09-8.3,0-.37,0-.72-.09-.76-.18s.24-.17.61-.17c5.91,0,11.7-.14,17.86.15l2,.1a.05.05,0,0,1,0,0c0-.05.07-.09.17-.12l-2.22-.16c-2.08,0-4.17,0-6.38-.1-1.52-.1-2.89-.27-4.29-.42l-5.36,0a.37.37,0,0,1-.17,0s0,0,.08,0c1.25-.07,2.52-.1,3.8-.12-.2-.07-.32-.15-.3-.23s.18-.15.42-.2l-.87,0c-.18,0-.32-.05-.31-.09s.15-.07.32-.06l3.54.16,4.26.06a1,1,0,0,1-.4-.22h0l-.66,0c-4,.07-8.13,0-12.27-.19-.08,0-.15,0-.15,0s.06,0,.13,0c1.25.07,2.5.12,3.74.15h0s-.06,0,0-.05a.62.62,0,0,1,.19,0c.06,0,.05,0,0,0q3.48.09,6.9.05c-2.11-.07-4.22-.14-6.32-.27l-.7.05a.37.37,0,0,1-.17,0s0,0,.1,0h.19c-.4,0-.7-.12-.69-.22s.37-.16.78-.14l3.32.1h.36l.36,0-5.13-.35c-.14,0-.27,0-.27-.08s.12-.06.27-.05c3,0,6.05,0,9.11.07l3.05-.34-.39,0c-3.32-.14-6.16.18-9.38.14-.08,0-.14,0-.15,0s0,0,.13,0c1.57,0,3-.09,4.57-.13,1.29,0,2.52-.07,3.72-.13-2.45-.06-4.81,0-7.24,0a1.14,1.14,0,0,1-.28,0l-.06,0c-.3,0-.63.06-1,.07a.32.32,0,0,1-.18,0S48.44,210.9,48.52,210.9Zm3.32-.15-.06,0,.21.05.3.16Zm-3.77.38h0L47.9,211Zm22.74,3.53.55,0,.16-3.87c-1.1-.06-2.19-.14-3.28-.26h.94l2.34.22-.16,3.93Zm-21.46-4.57a7.28,7.28,0,0,1,.84.3h.69l1.86.14c-.08-.06.07,0,.14,0h.23l-2-.2C50.56,210.22,49.91,210.18,49.35,210.09Zm-4.54,0-.06,0,.13-.07Zm-.2.13h.09S44.64,210.26,44.61,210.23Zm.85.13-.12-.05Zm.51,2.28.35-.37-.38.35Z"/><path class="cls-2" d="M313.64,356.55l-.12-.17a2.66,2.66,0,0,1,.4.38,24.73,24.73,0,0,0-5-4.7c-.46-.47-.95-.82-1.09-.78s.14.48.61,1c.09.11.21.24.27.33a29.88,29.88,0,0,0,2.12,2.71l-.46-.61c.25.28.49.56.78.86l-.05-.15A11.9,11.9,0,0,0,314,358c.8.45.81,0,0-1Z"/><path class="cls-2" d="M312.46,354.34l1.41,1.77.07.13.11-.17h0a17.8,17.8,0,0,1-2.25-1.83l-.29-.24c-.14-.11-.25-.17-.31-.16s0,.3.38.65l.39.41a12.85,12.85,0,0,0,3.21,2.87c.18.07.14-.11.17-.2s-.16-.5-.64-1-1-.83-1.09-.77l-.23-.27.22.16a5.93,5.93,0,0,1-1-.76l-.52-.47.07.49.28.23,0-.08c.55.43,1.07.83,1.65,1.32l.76.59c.22.14.26.07.1-.17l-.25-.34.1.16-2-2.22a1.37,1.37,0,0,0-.31-.27C312.34,354.15,312.36,354.22,312.46,354.34Z"/><path class="cls-2" d="M314.94,356.73a2.32,2.32,0,0,0,.35.41l.08.05-.18-.25C315.06,356.75,315,356.69,314.94,356.73Z"/><path class="cls-2" d="M315.37,357.19l.08.11,0-.09h0Z"/><path class="cls-2" d="M298.74,334.68l6.35,6.47c.07.07.14.12.16.11s0-.07-.1-.14l-6.34-6.47c-.07-.07-.14-.12-.16-.11S298.67,334.61,298.74,334.68Z"/><path class="cls-2" d="M313.48,351.89c-.06,0-.07,0,0,0a1,1,0,0,0,.18.17c.05,0,.07,0,0,0A.72.72,0,0,0,313.48,351.89Z"/><path class="cls-2" d="M312,352.48c-.32-.27-.63-.53-.92-.75l-.14-.14s-.08,0-.19-.1c-2.32-1.93-4.69-4.13-7.05-6.27a.33.33,0,0,1-.14,0,3.9,3.9,0,0,1-.87-.72l-.23-.26-2.89-3a9.28,9.28,0,0,1-.74-.63c-.92-.78-1.84-1.57-2.76-2.38,0,.07.05.12,0,.14s-.3-.14-.53-.38l-.36-.35,1,1.06.13.14,1.14,1.12c3.41,3.3,6.76,6.25,10.11,9.16a.58.58,0,0,1,.17.18s0,0-.06,0c-2.22-1.73-4.24-3.11-6.63-5.18-2.85-2.45-5.64-4.9-8.49-7.49-1.06-1-2.1-2.05-3.15-3l4.64-4.7,5.46,5.09c4.06,3.78,7.8,7.44,11.66,11.24,1.48,1.39,2.61,2.89,2.53,3.35-.06.27-.54.11-1.24-.37l.35.35.53.58a7.93,7.93,0,0,1,1.07,1.45l.28.5c.3.73,1,1.75,1.16,2.4h-.18l.07.12a1.87,1.87,0,0,1,.41.86l-.14.08a1.49,1.49,0,0,1-.84-.16c0,.05-.11.06-.22,0,.13.34.12.55-.18.5.11.17,0,.19-.15.05a1.42,1.42,0,0,1-.21-.17h0l.14.26.2.23.64.71a4.48,4.48,0,0,1,.35.52c.11.48.11.48,0,.51l-.08,0,.29.35a1.23,1.23,0,0,1,.08.15s0,0,0,.11a0,0,0,0,1,0,0c-.18-.09-.18-.09-.2-.08l-.1-.05a2.5,2.5,0,0,1-.26-.22l-.23-.44-.11,0,0-.13v.09l-.14-.2.15.24a7.25,7.25,0,0,0-.55-.58,2.89,2.89,0,0,0-.33-.31.06.06,0,0,1,0,0l-.81-.88-.06-.13a.56.56,0,0,1-.22-.18l-.22-.22-.05,0h0l-.21-.16,0,0h0l-.9-.69-.34-.39.08.13c.06.08-.05.06,0,.1.82,1,1.79,2,2.72,3,.19.17.33.36.32.42s-.17,0-.35-.21a48.63,48.63,0,0,1-6.51-6.41L306,348.57l.06.1-.39-.45-.05-.05.25.39.2.24c1.23,1.28,2.26,2.53,3.4,3.81.62.69,1.11,1.32,1.67,2,.16.16.24.3.19.31a1,1,0,0,1-.37-.27,52.16,52.16,0,0,1-5.82-6.26,11.46,11.46,0,0,1-1-1.1v0l.17.29c-.27-.29-.37-.49-.6-.77V347c-1.34-1.43-2.87-2.89-4-4.29l-.14-.15c-.61-.49-1.23-1-1.9-1.63l.64.68c-.52-.43-1-.87-1.52-1.38a21.83,21.83,0,0,1-3.3-4L290,332.88l3.36-3.41,4.73,4.53a.81.81,0,0,1,.25.33s-.13,0-.27-.16c-1.63-1.47-3.26-3-4.88-4.52l-3,3.05,1.11,1.05-1.06-1.1,2.92-2.95c1.24,1.29,2.49,2.58,3.79,3.87l.65.63c.22.2.42.42.62.64,2.13,2.11,4.14,4.12,6.39,6.21l5.53,5.09c2.71,2.46,5.19,4.69,7.77,7.23.34.33.61.69.59.79s-.33-.08-.68-.41c-5.56-5.1-11.07-10.05-16.64-15.62l-1.78-1.79s0,0,0,0-.13,0-.25-.05c.65.68,1.32,1.36,2,2.05,2,1.79,3.93,3.59,5.9,5.62,1.36,1.39,2.54,2.71,3.74,4l5,4.69a.57.57,0,0,1,.14.17s0,0-.11,0c-1.21-1-2.42-2.11-3.64-3.2.14.22.2.38.13.42s-.27,0-.52-.21l.78.78c.16.17.27.32.24.34s-.19-.07-.35-.23l-3.21-3.2-4-3.74a1.45,1.45,0,0,1,.24.51h0l.6.59c3.82,3.44,7.65,7,11.38,10.8.08.08.13.15.12.16s-.08,0-.15-.09c-1.13-1.14-2.26-2.26-3.41-3.37h0c0,.05,0,.08,0,0a1,1,0,0,1-.18-.18c0-.06,0-.07,0,0-2.13-2.06-4.28-4.08-6.43-6,1.93,1.88,3.86,3.77,5.75,5.69l.68.57a.61.61,0,0,1,.14.17s-.05,0-.11,0l-.19-.16c.36.36.58.69.5.76s-.46-.2-.83-.57c-1-1-2-2-3.05-3l-.34-.31-.36-.29,4.58,4.72c.13.13.23.26.2.29s-.15-.06-.28-.19q-4.26-3.9-8.5-8l-3.08-2.39.35.35c3,3,5.89,5.21,8.88,8a.42.42,0,0,1,.13.16s-.07,0-.15-.09c-1.47-1.37-2.87-2.55-4.37-3.87C306.2,347,305,346,303.85,345c2.26,2.17,4.54,4.15,6.8,6.27a1.21,1.21,0,0,1,.25.27l.07,0c.31.24.63.51,1,.8a.44.44,0,0,1,.15.17S312.06,352.54,312,352.48Zm-3.21-2.77,0,.07-.17-.22-.17-.38Zm3.79,3h0l.1.21Zm-19-22.41-.5-.49-2.72,2.75c1,1,2,2,2.9,3l-.86-.82-2.06-2.2,2.76-2.79Zm17.09,22.07a9.32,9.32,0,0,1-.59-1c-.21-.18-.43-.39-.64-.6l-1.65-1.72c0,.11-.1,0-.17-.09l-.22-.2,1.7,1.86C309.62,351.21,310.19,351.81,310.67,352.36Zm4.26,3.94,0,.06-.16-.05Zm.27.08-.08-.09A.1.1,0,0,1,315.2,356.38Zm-.71-.84a.87.87,0,0,0,.08.14Zm1-2.15-.58,0,.59.06Z"/><path class="cls-2" d="M209.35,377.12l0-.19a2.15,2.15,0,0,1,0,.51,20.57,20.57,0,0,0,0-6.28c0-.61-.06-1.15-.18-1.21s-.25.38-.28,1c0,.13,0,.29,0,.38a24,24,0,0,0-.51,3.11l.13-.68c0,.34-.08.67-.09,1.05l.08-.13a10.14,10.14,0,0,0,.05,3.59c.23.82.57.54.77-.63Z"/><path class="cls-2" d="M210.14,375c-.1.68-.21,1.36-.31,2.05l-.05.13.2,0v0a15.57,15.57,0,0,1-.23-2.63l0-.35a.52.52,0,0,0-.1-.31c-.09-.08-.18.22-.21.67l0,.51a11,11,0,0,0,.13,3.93c.08.16.18,0,.27,0s.25-.41.27-1-.06-1.17-.19-1.22l0-.32.05.26a4.81,4.81,0,0,1-.18-1.18l0-.64-.31.35,0,.34,0-.07c.07.63.14,1.23.18,1.92l.09.87c0,.24.14.22.2,0l.07-.38,0,.17.24-2.7a1,1,0,0,0,0-.39C210.19,374.75,210.15,374.81,210.14,375Z"/><path class="cls-2" d="M210.11,378.09a2.31,2.31,0,0,0-.05.49l0,.09.06-.28C210.18,378.19,210.15,378.08,210.11,378.09Z"/><path class="cls-2" d="M210.08,378.67l0,.12,0-.08v0Z"/><path class="cls-2" d="M214.94,353.51c-.11,2.76-.21,5.52-.32,8.27,0,.1,0,.18,0,.18s0-.07,0-.15c.1-2.76.21-5.5.32-8.27,0-.09,0-.17,0-.18S214.94,353.42,214.94,353.51Z"/><path class="cls-2" d="M212.62,374.09c0-.06,0-.06-.05,0a.81.81,0,0,0,0,.22c0,.06,0,.06.05,0A.88.88,0,0,0,212.62,374.09Z"/><path class="cls-2" d="M211.16,373.47c0-.39,0-.76-.09-1.08a.53.53,0,0,1,0-.18s-.06-.06-.07-.2c-.19-2.75-.23-5.7-.3-8.61a.22.22,0,0,1-.07-.12,3,3,0,0,1-.08-1l0-.31.21-3.82a8,8,0,0,1,0-.89c-.08-1.1-.14-2.2-.19-3.33,0,.07,0,.11-.07.11s-.11-.28-.1-.59V353c0,.44,0,.88-.08,1.32v.18c0,.48,0,1,0,1.46,0,4.33.13,8.41.33,12.45a.87.87,0,0,1,0,.23s0,0-.05,0c-.27-2.55-.66-4.76-.81-7.65-.18-3.43-.33-6.82-.42-10.33,0-1.36,0-2.69,0-4l6.61.14c0,2.22.05,4.46.08,6.82.05,5.06,0,9.84-.12,14.79,0,1.85-.3,3.54-.69,3.78-.23.13-.45-.29-.58-1.06l0,.45-.06.72a6.54,6.54,0,0,1-.31,1.62l-.17.49c-.32.67-.6,1.74-.94,2.28l-.11-.12,0,.12a1.57,1.57,0,0,1-.35.81l-.14,0a1.35,1.35,0,0,1-.47-.66c-.06,0-.12,0-.17-.12-.16.29-.32.42-.49.19-.05.17-.11.14-.14-.07a1.81,1.81,0,0,1,0-.25h0l-.1.26c0,.17,0,.27,0,.27,0,.46,0,.46-.07.87a4.19,4.19,0,0,1-.13.56c-.27.38-.27.38-.38.31l0-.07-.06.41,0,.14c-.06,0-.06,0-.09.07h0c-.07-.17-.07-.17-.09-.18l0-.1,0-.31.16-.43-.05-.09.08-.1-.07.05,0-.21-.06.24c0-.51,0-.51,0-.72s0-.4,0-.42a.06.06,0,0,1,0,0l.08-1.09,0-.12a1,1,0,0,1,0-.26v-.34h0l0-.24V375h0c0-.17,0-.41-.11-1l0-.46,0,.13c0,.09-.08,0-.09.06-.15,1.17-.23,2.45-.32,3.71a.82.82,0,0,1-.09.47s-.09-.13-.09-.36a41.61,41.61,0,0,1,.16-8.34c0-.7.09-1.39.13-2.09l0,.1,0-.54v-.06l-.12.41,0,.29c-.08,1.61-.27,3.08-.41,4.64-.08.84-.19,1.56-.29,2.36,0,.2,0,.34-.09.32a.77.77,0,0,1-.06-.42,43.81,43.81,0,0,1,.53-7.8,8.64,8.64,0,0,1,.12-1.33v0l-.1.29c0-.36.11-.55.15-.88l-.13.12c.12-1.79.12-3.72.33-5.37l0-.19a19.9,19.9,0,0,1-.13-2.28l-.06.85c0-.62-.06-1.23,0-1.88a18.63,18.63,0,0,1,.62-4.7l0-4.34,4.79.1,0,6a.81.81,0,0,1-.06.37s-.07-.1-.07-.28c-.06-2-.08-4-.09-6.08l-4.29-.09V348c0-.47.05-.93.07-1.4l4.15.09c-.08,1.63-.15,3.28-.2,4.95v.82c0,.28,0,.54,0,.81-.06,2.75-.13,5.35-.1,8.15,0,2.36.08,4.45.12,6.86.09,3.34.18,6.39.11,9.69,0,.44-.07.85-.17.9s-.17-.27-.17-.71c-.13-6.89-.33-13.66-.13-20.86l.06-2.3,0,0s-.09-.07-.13-.2c0,.86-.07,1.73-.11,2.61.05,2.43.1,4.86,0,7.44-.07,1.78-.22,3.38-.35,5,0,2.08,0,4.17,0,6.26a.38.38,0,0,1,0,.2s0,0,0-.1c-.08-1.45-.14-2.93-.18-4.43-.07.24-.14.37-.22.35s-.16-.2-.21-.48l0,1c0,.21,0,.38-.09.37s-.07-.17-.07-.37l.11-4.14c0-1.67,0-3.32,0-5a1.15,1.15,0,0,1-.21.47h0v.77c.14,4.69.16,9.5,0,14.34,0,.09,0,.17,0,.17s0-.07,0-.16c.05-1.46.08-2.91.09-4.37h0c0,.06,0,.07,0,0a.54.54,0,0,1,0-.22c0-.07,0-.07,0,0q0-4.07-.06-8.05c0,2.47-.08,4.93-.17,7.39l.06.81a.53.53,0,0,1,0,.2s0,0,0-.11v-.23c0,.47-.11.83-.21.82s-.17-.43-.16-.92c0-1.3,0-2.59.05-3.88v-.42l0-.42c-.09,2-.18,4-.27,6,0,.17,0,.32-.07.32s-.06-.13-.06-.31c-.07-3.51-.09-7.06-.08-10.64-.12-1.17-.25-2.36-.38-3.55l0,.46c-.08,3.88.29,7.18.3,10.94a.44.44,0,0,1,0,.18s0-.05,0-.15c0-1.83-.13-3.51-.2-5.33-.06-1.51-.11-2.94-.19-4.35,0,2.87.11,5.62.14,8.45a1.48,1.48,0,0,1,0,.33.1.1,0,0,1,0,.07q.06.54.09,1.14a.44.44,0,0,1,0,.21S211.17,373.55,211.16,373.47Zm-.2-3.88,0,.07,0-.25.15-.34Zm.44,4.4h0l-.09.2Zm3.16-26.66,0-.64-3.87-.08c0,1.28-.1,2.56-.2,3.83v-1.09c.05-.9.11-1.82.17-2.75l3.93.09Zm-4.22,25.19a9.37,9.37,0,0,1,.29-1q0-.39,0-.81c0-.73.07-1.45.1-2.17,0,.09,0-.08,0-.17v-.27c-.06.76-.12,1.52-.17,2.29S210.41,371.86,210.34,372.52Zm.09,5.3,0,.07-.08-.15Zm.12.23v-.11S210.58,378,210.55,378.05Zm.12-1c0,.06,0,.1,0,.14Zm2.27-.66-.38-.39.36.43Z"/><path class="cls-2" d="M117.54,358.89l.14-.12a3.12,3.12,0,0,1-.27.4,19.18,19.18,0,0,0,3.38-5c.36-.47.58-.94.51-1.07s-.41.17-.77.64a3.43,3.43,0,0,1-.26.27,23.54,23.54,0,0,0-2.11,2.18l.48-.47c-.21.24-.43.49-.64.78l.13-.06a9.35,9.35,0,0,0-1.92,2.87c-.26.78.18.75,1-.06Z"/><path class="cls-2" d="M119.38,357.62,118,359.06l-.12.08.19.08v0a14.7,14.7,0,0,1,1.25-2.21l.17-.28a.45.45,0,0,0,.09-.3c0-.12-.27.06-.53.4l-.31.39a10.07,10.07,0,0,0-2,3.18c0,.17.13.12.22.15s.44-.19.8-.67.59-1,.5-1.07l.21-.24-.11.23a4.46,4.46,0,0,1,.5-1l.34-.52-.45.1-.16.28.07,0c-.29.54-.56,1.05-.9,1.62l-.4.74c-.09.22,0,.25.18.08l.27-.26-.13.12,1.68-2a1,1,0,0,0,.19-.31C119.53,357.49,119.47,357.52,119.38,357.62Z"/><path class="cls-2" d="M117.64,360.09a2.37,2.37,0,0,0-.31.36l0,.08.2-.19C117.64,360.21,117.68,360.11,117.64,360.09Z"/><path class="cls-2" d="M117.3,360.53l-.09.08.07,0v0Z"/><path class="cls-2" d="M135,343.4c-1.6,2.13-3.19,4.25-4.79,6.36-.05.08-.08.14-.07.16s.07,0,.12-.1l4.77-6.35c.06-.08.09-.14.08-.16S135.09,343.33,135,343.4Z"/><path class="cls-2" d="M121.89,358.36c0-.06,0-.07,0,0a.37.37,0,0,0-.13.17c0,.05,0,.06,0,0A.68.68,0,0,0,121.89,358.36Z"/><path class="cls-2" d="M121,357c.2-.32.38-.62.52-.9a.4.4,0,0,1,.11-.14s0-.08,0-.19c1.34-2.29,2.92-4.65,4.45-7a.37.37,0,0,1,0-.14,3.1,3.1,0,0,1,.5-.85l.19-.24,2.26-2.9a8.13,8.13,0,0,1,.45-.73c.54-.91,1.09-1.82,1.67-2.73-.06,0-.1.06-.13,0s.07-.29.24-.52l.26-.36-.79,1-.1.13c-.28.37-.55.75-.83,1.14-2.39,3.41-4.49,6.72-6.53,10a.62.62,0,0,1-.14.18s0,0,0-.06c1.17-2.18,2.06-4.15,3.51-6.51,1.72-2.82,3.46-5.58,5.3-8.41.77-1.06,1.5-2.11,2.21-3.15l5.36,3.88L135.91,344c-2.72,4-5.39,7.77-8.17,11.63-1,1.48-2.18,2.64-2.63,2.6-.27,0-.21-.49.1-1.17l-.26.35-.44.53a6.35,6.35,0,0,1-1.14,1.11l-.42.29c-.62.34-1.44,1-2,1.27l0-.17-.1.08a1.46,1.46,0,0,1-.72.44l-.1-.12a1.22,1.22,0,0,1,0-.78c-.06,0-.08-.09-.08-.2-.29.14-.49.16-.5-.12-.14.11-.17.05-.09-.14l.13-.2h0l-.21.14-.18.2-.53.65a3.54,3.54,0,0,1-.41.36c-.43.15-.43.15-.49,0v-.07l-.27.29-.12.09s0,0-.1,0a.08.08,0,0,1-.05,0c.05-.17.05-.17,0-.19l0-.09.15-.26.37-.25v-.1l.12,0h-.09l.16-.15-.19.16c.31-.39.31-.39.42-.55a2.59,2.59,0,0,0,.23-.33h0l.66-.81.11-.07a.61.61,0,0,1,.12-.22l.17-.21,0-.06h0l.11-.2,0,0h0l.47-.88.29-.34-.1.09c-.07.05-.07,0-.1,0-.77.84-1.53,1.81-2.3,2.76-.12.18-.27.32-.32.32s0-.16.12-.34a37.72,37.72,0,0,1,4.69-6.5l1.24-1.58-.08.06.34-.4,0,0-.32.25-.19.21c-1,1.23-1.91,2.28-2.88,3.44-.52.62-1,1.12-1.52,1.7-.12.15-.23.24-.25.2s.06-.21.18-.37a41,41,0,0,1,4.69-5.86,7.23,7.23,0,0,1,.84-1h0l-.24.18c.22-.27.39-.38.6-.62l-.17,0c1.07-1.34,2.13-2.87,3.21-4.05l.11-.15a20.24,20.24,0,0,1,1.15-1.87c-.18.21-.34.42-.52.64a17.12,17.12,0,0,1,1-1.51,16.89,16.89,0,0,1,3.07-3.36l2.41-3.42,3.88,2.81-3.29,4.72c-.1.14-.21.25-.26.25s0-.12.1-.26c1.05-1.62,2.14-3.24,3.25-4.85l-3.48-2.52-.76,1.1c.27-.35.55-.7.82-1.06l3.36,2.43c-1,1.25-1.92,2.51-2.87,3.8l-.45.65c-.15.22-.31.42-.47.62-1.55,2.14-3,4.15-4.54,6.38-1.28,1.91-2.39,3.58-3.64,5.5-1.76,2.7-3.35,5.16-5.21,7.73-.24.35-.52.63-.62.61s0-.31.24-.66c3.66-5.53,7.19-11,11.28-16.57l1.31-1.78h0s0-.11,0-.23l-1.52,2c-1.28,1.95-2.56,3.9-4.06,5.88-1,1.36-2,2.55-3,3.77l-3.38,5a.52.52,0,0,1-.14.15s0,0,0-.11c.72-1.19,1.49-2.39,2.27-3.6-.18.15-.32.21-.38.15s0-.25.1-.5l-.58.79c-.12.16-.24.27-.27.24s0-.18.15-.33l2.35-3.22,2.7-3.94a1,1,0,0,1-.43.26h0l-.43.6c-2.45,3.79-5,7.6-7.82,11.35-.05.07-.11.12-.13.11s0-.08.06-.14c.84-1.13,1.66-2.27,2.47-3.41h0s-.07,0,0,0a.55.55,0,0,1,.13-.17c.05-.05.06,0,0,0,1.5-2.13,3-4.27,4.35-6.4-1.38,1.93-2.76,3.86-4.17,5.75l-.4.67a.45.45,0,0,1-.13.14s0,0,0-.11l.11-.18c-.27.36-.54.59-.62.52s.1-.44.37-.81l2.16-3,.22-.34.2-.35-3.5,4.59c-.09.13-.2.23-.23.21s0-.14.12-.28c1.86-2.81,3.79-5.64,5.75-8.45.53-1,1.07-2,1.62-3l-.26.36c-2.19,3-3.69,5.84-5.74,8.82,0,.07-.1.13-.12.12s0-.06,0-.13c1-1.47,1.81-2.86,2.75-4.34.78-1.22,1.52-2.38,2.21-3.54-1.58,2.25-3,4.5-4.5,6.76a1,1,0,0,1-.2.24.12.12,0,0,1,0,.07c-.16.31-.35.63-.55,1a.36.36,0,0,1-.13.16S121,357.1,121,357Zm2-3.18-.06,0,.17-.17.32-.19Zm-2,3.73h0l-.18.11ZM138.1,338.3l.37-.5-3.14-2.27c-.73,1-1.48,2-2.26,2.92l.59-.86c.54-.69,1.09-1.37,1.65-2.07l3.18,2.3Zm-17.23,17.52a7,7,0,0,1,.78-.62,6.62,6.62,0,0,1,.44-.64l1.27-1.66c-.09,0,0-.09,0-.16l.14-.22-1.39,1.72C121.74,354.76,121.29,355.33,120.87,355.82Zm-2.82,4.24-.06,0,0-.16Zm0,.25.07-.08S118.07,360.3,118,360.31Zm.65-.72-.12.08Zm2.22.77-.09-.53.06.55Z"/><path class="cls-2" d="M62,292.58l.17-.06a2.13,2.13,0,0,1-.4.26,18.86,18.86,0,0,0,5-3.23c.5-.29.89-.63.87-.77s-.44,0-.95.27l-.34.15a23.54,23.54,0,0,0-2.76,1.15l.62-.24c-.29.14-.58.28-.89.46h.14a9,9,0,0,0-2.85,1.87c-.53.61-.13.75.91.32Z"/><path class="cls-2" d="M64.11,292.15l-1.81.77-.13,0,.14.15v0a14.32,14.32,0,0,1,2-1.53l.27-.19c.12-.1.19-.19.19-.24s-.27-.05-.64.16l-.43.23a9.83,9.83,0,0,0-3.09,2.11c-.08.14.08.16.15.22s.47,0,1-.3.9-.65.87-.78l.27-.13-.18.16a4.69,4.69,0,0,1,.86-.75l.5-.33-.45-.09-.25.2h.07c-.47.38-.91.74-1.44,1.13l-.66.52c-.16.16-.09.23.14.15l.35-.14-.16,0,2.3-1.16a.9.9,0,0,0,.29-.21C64.3,292.09,64.23,292.09,64.11,292.15Z"/><path class="cls-2" d="M61.57,293.72a2.56,2.56,0,0,0-.42.2l-.06.06.26-.09C61.53,293.82,61.6,293.75,61.57,293.72Z"/><path class="cls-2" d="M61.09,294l-.1,0h.09Z"/><path class="cls-2" d="M83.87,285.34l-6.81,3.93c-.08,0-.13.09-.13.11s.08,0,.15-.05l6.8-3.92c.07,0,.13-.09.13-.11S83.94,285.3,83.87,285.34Z"/><path class="cls-2" d="M66.12,293.82c0-.05,0-.07,0,0a.49.49,0,0,0-.18.11s0,.06,0,0A.78.78,0,0,0,66.12,293.82Z"/><path class="cls-2" d="M65.84,292.26c.3-.21.58-.42.82-.62l.15-.09s0-.08.12-.15c2.1-1.56,4.45-3.09,6.75-4.63a.22.22,0,0,1,.06-.12,3.11,3.11,0,0,1,.78-.59l.27-.14L78,284.16c.2-.15.43-.32.69-.49.85-.61,1.7-1.23,2.58-1.84-.07,0-.12,0-.13,0s.17-.23.42-.38l.37-.23-1.1.61-.15.07-1.19.72c-3.49,2.17-6.68,4.37-9.82,6.59a.72.72,0,0,1-.19.11s0,0,0-.06c1.9-1.53,3.47-3,5.71-4.57,2.65-1.89,5.29-3.73,8.07-5.59,1.1-.67,2.17-1.33,3.22-2l3.41,5.66-5.43,3.52c-4,2.61-7.91,5-11.93,7.4-1.49.95-3,1.55-3.4,1.34-.24-.13,0-.53.53-1l-.37.22-.6.31a6.34,6.34,0,0,1-1.46.56l-.5.1c-.7.07-1.71.37-2.32.36l0-.16-.13,0a1.47,1.47,0,0,1-.83.12l0-.15a1.18,1.18,0,0,1,.28-.72.2.2,0,0,1,0-.21c-.31,0-.51-.06-.41-.32-.16.05-.17,0,0-.15a.94.94,0,0,1,.19-.14h0a1.51,1.51,0,0,0-.26,0L63,294l-.74.38a4.47,4.47,0,0,1-.52.17c-.44,0-.44,0-.45-.17l0-.06-.36.15-.14,0c0-.05,0-.05-.1,0s0,0,0,0c.1-.15.1-.15.09-.16l.07-.08.24-.18.43-.08,0-.09h.12l-.08,0,.19-.07-.23.07.6-.33c.18-.1.32-.2.34-.21l0,0,.92-.49.12,0a.73.73,0,0,1,.2-.15l.24-.13,0,0h0l.17-.14,0,0h0l.77-.62.4-.2-.13,0c-.08,0,0-.07-.09-.05-1,.47-2.09,1.05-3.15,1.61a.79.79,0,0,1-.42.17c-.05,0,.06-.14.24-.26a38,38,0,0,1,6.78-4.1l1.74-1-.1,0,.47-.23,0,0-.38.11-.25.12c-1.34.75-2.62,1.33-3.95,2-.72.36-1.36.63-2,1-.17.1-.31.14-.31.09s.14-.17.3-.26a39.12,39.12,0,0,1,6.54-3.51,7.12,7.12,0,0,1,1.14-.57h0l-.29.07c.3-.16.5-.19.78-.33l-.16,0c1.5-.81,3.05-1.79,4.49-2.44l.16-.09a17.87,17.87,0,0,1,1.76-1.26l-.71.38c.47-.35,1-.67,1.48-1a17.07,17.07,0,0,1,4.1-1.86l3.51-2.16,2.47,4.1-4.82,3c-.14.09-.28.15-.33.13s.05-.1.19-.2c1.58-1.06,3.2-2.11,4.83-3.15l-2.21-3.68-1.12.71,1.16-.65,2.13,3.56c-1.35.76-2.71,1.53-4.07,2.34l-.66.41c-.22.14-.45.26-.68.38-2.23,1.34-4.36,2.6-6.59,4-1.9,1.24-3.56,2.33-5.44,3.59-2.63,1.77-5,3.39-7.71,5-.36.22-.72.36-.81.31s.13-.28.48-.51c5.45-3.61,10.78-7.21,16.66-10.69l1.88-1.11,0,0s0-.12.09-.21l-2.15,1.22c-1.92,1.28-3.84,2.56-6,3.77-1.46.84-2.82,1.53-4.21,2.25l-5,3.21a.36.36,0,0,1-.17.08s0,0,.06-.08c1.12-.81,2.28-1.6,3.46-2.4-.23.07-.38.07-.4,0s.08-.23.28-.42l-.83.5c-.18.1-.33.15-.34.11s.1-.15.26-.25l3.38-2,4-2.53a1,1,0,0,1-.49.06h0l-.63.38c-3.69,2.5-7.53,5-11.49,7.28-.08.05-.15.07-.16.06s0-.07.11-.11c1.19-.7,2.38-1.41,3.55-2.14h0c-.06,0-.08,0,0,0a.71.71,0,0,1,.18-.12c.06,0,.07,0,0,0q3.28-2,6.43-4.13c-2,1.22-4,2.44-6,3.61l-.62.45a.49.49,0,0,1-.17.08s0-.05.06-.09l.18-.12c-.38.22-.72.32-.76.23s.25-.36.65-.59l3.13-1.93.33-.22.32-.25-5,2.82c-.13.08-.27.13-.29.1s.08-.12.22-.21c2.78-1.84,5.62-3.66,8.49-5.46l2.65-2.13-.38.22c-3.16,1.9-5.61,3.88-8.62,5.8a.24.24,0,0,1-.16.06s0,0,.1-.1c1.46-.95,2.74-1.89,4.17-2.87,1.18-.82,2.31-1.59,3.38-2.37-2.3,1.44-4.44,2.94-6.7,4.4a1,1,0,0,1-.28.14s0,0,0,.06c-.27.22-.56.44-.87.65a.38.38,0,0,1-.18.09S65.78,292.31,65.84,292.26Zm3-2.14-.06,0,.22-.09.36-.05Zm-3.29,2.6h0l-.2,0Zm23.08-10.83.52-.31-2-3.32c-1,.62-2.11,1.21-3.19,1.77l.87-.55,2.3-1.24,2,3.36Zm-22.46,9.2a6.58,6.58,0,0,1,1-.26c.2-.14.42-.28.64-.41l1.8-1c-.1,0,0-.07.11-.12l.21-.14-1.93,1C67.37,290.46,66.74,290.81,66.17,291.09ZM62,293.85H61.9l.07-.13Zm-.12.22.1-.05C61.92,294.07,61.89,294.07,61.84,294.07Zm.87-.41-.14,0Zm1.73,1.59.12-.52-.15.52Z"/></svg>