<?xml version="1.0" encoding="utf-8"?>
<!-- Generator: Adobe Illustrator 22.0.1, SVG Export Plug-In . SVG Version: 6.00 Build 0)  -->
<svg version="1.1" id="Layer_1" xmlns="http://www.w3.org/2000/svg" xmlns:xlink="http://www.w3.org/1999/xlink" x="0px" y="0px"
	 viewBox="0 0 576 576" style="enable-background:new 0 0 576 576;" xml:space="preserve">
<style type="text/css">
	.st0{fill:#BE2626;}
	.st1{fill:#FFFFFF;}
	.st2{fill:none;stroke:#000000;stroke-miterlimit:10;}
	.st3{fill:#BE2627;}
	.st4{font-family:'Futura-Medium';}
	.st5{font-size:49.793px;}
</style>
<circle class="st0" cx="283.9" cy="288" r="214.5"/>
<g>
	<g>
		<g>
			<path class="st1" d="M287.8,401.9c-16.3,1.3-33.7-1.3-50.1-7.9c-2.1-0.8-4.1-1.8-6.1-2.6c-2-0.9-4-2-6-3
				c-3.9-2.2-7.8-4.5-11.4-7.2c-7.3-5.2-14.1-11.4-20-18.3c-11.9-13.7-20.4-30.4-24.6-47.6c-2.1-8.6-3.2-17.4-3.3-26
				c-0.1-8.6,0.8-17.1,2.5-25.1c4-19.4,13.3-38.1,27.1-53.3c13.8-15.1,31.9-26.6,51.7-32.6c19.8-6.1,41.3-6.3,61.1-1.3
				c19.8,5.1,38.1,15.4,52.2,29.5c-0.2,0.2-5.2-4.1-0.6,0.6c1.2,1.1,2.2,2.3,3.2,3.4c1,1.1,1.9,2.1,2.7,3.1c0.8,1,1.5,1.9,2.2,2.7
				c0.7,0.9,1.2,1.7,1.8,2.4c0.5,0.7,1,1.4,1.5,2.1c0.4,0.6,0.8,1.2,1.1,1.8c0.7,1.1,1.2,2,1.6,2.7c1.6,2.9,1.3,3,1.1,3.2
				c-0.1,0-0.7-1-1.7-2.4c-1-1.4-2.2-3.2-3.5-4.9c-1.2-1.6-2.4-3-2.9-3.8c-0.6-0.7-0.6-0.7,0.3,0.6c-3.1-3.8-6.8-8-10.9-11.7
				c-1-1-2-1.8-3-2.7c-1-0.9-2-1.7-3-2.5c-1-0.8-1.9-1.5-2.8-2.2c-0.9-0.7-1.8-1.3-2.6-1.9c-0.8-0.6-1.6-1.1-2.3-1.6
				c-0.7-0.4-1.4-0.8-1.9-1.2c-1.1-0.7-1.8-1.1-2.1-1.3c-0.5-0.3,0.8,0.6,4.8,3.4c2.6,1.9,9.1,6.7,14.8,12.5l1.1,1.1l1,1.1
				c0.7,0.7,1.4,1.5,2,2.2c1.3,1.4,2.5,2.9,3.6,4.2c1.1,1.3,2,2.6,2.8,3.7c0.8,1.1,1.4,2,1.8,2.7c3.3,5.5-4.3-4.8-1,0.7
				c0.9,1.3,2.1,2.9,3.2,4.8c0.6,0.9,1.2,1.9,1.8,2.9c0.6,1,1.2,2.1,1.7,3.1c0.6,1,1.1,2.1,1.7,3.1c0.5,1,1,2.1,1.5,3
				c0.9,2,1.7,3.8,2.3,5.3c1,3,0.3,1.6-0.5,0.2c-0.3-0.7-0.8-1.4-0.9-1.6c-0.1-0.2,0,0.2,0.6,1.7c1.7,4.4,3.3,9.3,4.7,14.5
				c1.3,5.3,2.3,10.9,2.8,16.8c1.2,11.8,0.2,24.5-2.8,36.7c-0.1,0-0.7,1.5-0.8,1.5c-0.1,0,0-0.4,0.2-1.6c0.2-1.2,0.6-3.1,1.2-6.1
				c2.6-13.5,2.6-27.4-0.1-40.9c-2.6-13.5-7.9-26.5-15.3-38.1c-7.5-11.6-17.1-21.7-28.4-29.7c-11.3-8-24.1-13.7-37.5-16.9
				c-13.4-3.2-27.5-3.9-41.2-1.8c-13.7,2.1-26.9,6.8-38.9,13.9c-11.9,7-22.5,16.4-30.9,27.4c-8.4,11-14.7,23.6-18.3,37
				c-3.7,13.3-4.8,27.4-3.2,41.1c1.6,13.7,5.9,27.1,12.5,39.3c6.6,12.1,15.6,23,26.2,31.7c10.7,8.8,23,15.5,36.2,19.6
				c13.2,4.1,27.1,5.7,40.8,4.7c13.7-1.1,27.2-4.8,39.5-10.9c12.3-6.1,23.4-14.5,32.6-24.7c9.2-10.2,16.3-22.1,21-34.9
				c2.1-5.9,3-9.3,3.5-10.7c0.4-1.5,0.4-0.8,0,1.1c-0.8,3.8-3.3,13-7.4,21.5c2.6-5.7,3-5.6,5.1-11.5c0.1,0-0.1,0.8-0.5,2.3
				c-0.2,0.8-0.5,1.7-0.9,2.8c-0.4,1.1-1,2.4-1.5,3.9c-1.2,2.9-3,6.5-5.3,10.7c-2.4,4.1-5.5,8.8-9.6,13.7
				c4.1-4.9,7.7-10.1,10.9-15.7c3.3-5.5,0.4,0.2,0.6,0.3c-0.4,0.7-0.8,1.4-1.2,2.1c-0.4,0.7-0.8,1.3-1.2,2c-0.8,1.3-1.5,2.5-2.2,3.4
				c-0.7,1-1.3,1.8-1.7,2.4c-0.4,0.6-0.6,0.9-0.6,0.9c0.1,0.1,0.3,0.2,0.4,0.3c1.9-2.6,4.7-6.6,7.1-10.8c2.5-4.2,4.5-8.6,5.8-11.5
				c-0.7,1.5-1.3,2.9-2,4.3c-0.7,1.3-1.3,2.6-1.9,3.7c-0.5,1.1-1,2-1.4,2.6c-0.3,0.6-0.5,1-0.5,1c0.1,0.1,0.4,0.2,0.5,0.3
				c-3.2,5.7-7.8,12.4-13.3,18.4c-5.4,6.1-11.5,11.5-16.7,15.4l0.2,0.3c5.3-3.8,11.4-9.3,16.8-15.4c5.4-6.1,10.1-12.9,13.3-18.5
				c-1.5,2.9-2.4,4.3-2.8,5c-0.4,0.7-0.3,0.8-0.2,0.9l-1,1.6l-1.1,1.5l-2.1,3l-2.3,2.9l-1.2,1.4l-1.2,1.4l-2.4,2.8l-2.6,2.6
				l-1.3,1.3l-1.3,1.3l-2.7,2.5c-7.4,6.5-15.5,12.1-24.2,16.7c5.8-3,11.4-6.4,16.7-10.4c-5,4.2-14.8,10.6-26.3,15.1
				c-5.7,2.3-11.9,4.1-17.8,5.3C298.5,400.8,292.8,401.6,287.8,401.9z"/>
		</g>
	</g>
</g>
<g>
	<g>
		<g>
			<path class="st1" d="M291.2,328.4c-4.9,1.3-10.3,1.6-15.7,0.7c-5.4-0.9-10.8-2.9-15.5-6c-4.7-3.1-8.7-7.1-11.8-11.7
				c-3-4.6-5.1-9.6-6.1-14.6c-0.4-1.5-0.5-3-0.7-4.6c-0.1-0.8-0.1-1.5-0.1-2.3l-0.1-2.3c0.1-1.6,0.2-3.1,0.4-4.7l0.4-2.3l0.2-1.2
				c0.1-0.5,0.3-1,0.4-1.4c0.7-1.9,2-3.6,3.4-4.8c1.5-1.3,3.1-2.1,4.7-2.8c3.2-1.3,6.4-1.9,9.6-2.2c6.3-0.5,12.5,0,18.5,1
				c6,1,11.8,2.5,17.4,4.5c-0.1,0.3-2.1,0-0.3,0.8c3.6,1.5,5.3,2.6,6.1,3.2c0.8,0.6,0.7,0.9,0.5,1.1c-0.1,0.1-1.4-0.5-2.5-1
				c-1.1-0.5-2-0.8-1.2-0.3c-5.3-2.3-14.6-4.5-9.2-2.7c0.9,0.4,3.2,1.1,5.4,1.9c2.2,0.8,4.4,1.8,5.2,2.3c1.6,1.1-2.1,0-0.5,1.1
				c1.7,0.7,5.1,2.4,6.7,3.4c1.4,1.2-2-0.2-0.4,0.7c2.3,1.5,4.9,3.3,7.2,5.6c1.1,1.2,2.1,2.5,2.7,3.8c0.3,0.7,0.5,1.4,0.6,2.1
				c0.1,0.7,0,1.4-0.1,2.1c-0.1,0-0.4,0.4-0.5,0.4c-0.1,0-0.1-0.1,0-0.5c0-0.3,0-0.6,0-1.3c0.1-2.7-2.3-5.7-5.2-8
				c-2.9-2.4-6.5-4.3-10.1-6c-7.3-3.3-15.3-5.6-23.3-6.8c-4-0.6-8.1-1-12.1-1c-4,0-8,0.4-11.4,1.6c-1.7,0.6-3.2,1.4-4.1,2.4
				c-0.5,0.5-0.8,1-1.1,1.6c-0.1,0.1-0.1,0.3-0.2,0.4c0,0.2-0.1,0.3-0.1,0.5l-0.3,1.4c-0.7,3.8-0.9,7.7-0.3,11.5
				c1.1,7.6,4.8,14.8,10.4,20.1c2.8,2.6,6,4.8,9.5,6.4c3.5,1.6,7.3,2.5,11,2.9c3.8,0.3,7.7,0.2,11.4-0.8c3.7-0.9,7.2-2.5,10.4-4.5
				c6.5-4,11.3-10.4,13.9-17.5c0.5-1.7,0.9-2.6,1.1-2.9c0.2-0.4,0.2-0.2,0.2,0.4c-0.1,0.6-0.2,1.5-0.5,2.6c-0.1,0.6-0.3,1.2-0.5,1.8
				c-0.2,0.6-0.4,1.3-0.6,1.9c0.5-1.7,1-1.5,1.5-3.3c0.1,0,0.2,0.3,0.1,0.8c-0.1,0.5-0.2,1.1-0.4,2c-0.1,0.4-0.2,1-0.5,1.5
				c-0.2,0.5-0.5,1.1-0.8,1.7c-0.5,1.3-1.4,2.6-2.4,4.2l1.6-2.3c0.5-0.8,0.9-1.6,1.4-2.4c1-1.6,0.4,0.2,0.6,0.3
				c-0.5,0.8-0.9,1.7-1.3,2.3c-0.4,0.6-0.6,1-0.6,1c0.1,0.1,0.3,0.2,0.5,0.3c0.3-0.4,0.6-0.9,1-1.5c0.3-0.6,0.7-1.2,1-1.9
				c0.7-1.2,1.2-2.6,1.6-3.5c-0.4,0.9-0.7,1.8-1,2.4c-0.3,0.6-0.5,1.1-0.5,1.1c0.1,0.1,0.4,0.2,0.5,0.3c-0.8,1.8-2.2,3.8-3.7,5.8
				c-0.8,0.9-1.6,1.9-2.4,2.7c-0.8,0.8-1.6,1.6-2.3,2.3l0.3,0.3c0.7-0.7,1.5-1.4,2.4-2.3c0.8-0.8,1.6-1.8,2.4-2.8
				c1.5-2,2.8-4.1,3.7-5.9c-0.8,1.8-0.7,1.9-0.5,2c-0.8,1.3-1.6,2.5-2.5,3.8l-1.5,1.7c-0.5,0.6-1,1.2-1.5,1.7
				c-1.1,1-2.1,2.1-3.3,3.1c-0.6,0.5-1.1,1-1.7,1.5c-0.6,0.4-1.2,0.9-1.8,1.4c1.7-1.1,3.2-2.4,4.8-3.7c-0.7,0.8-1.7,1.7-2.9,2.8
				c-1.3,0.9-2.8,2.1-4.5,2.9c-0.9,0.4-1.7,0.9-2.6,1.3c-0.9,0.4-1.8,0.7-2.6,1.1c-0.9,0.3-1.8,0.6-2.6,0.8
				C292.7,328,292,328.3,291.2,328.4z"/>
		</g>
	</g>
</g>
<g>
	<g>
		<g>
			<path class="st1" d="M284.6,367.2c-10.8,0.9-22.5-0.8-33.4-5.2c-5.5-2.2-10.8-5.1-15.7-8.6c-4.9-3.5-9.4-7.6-13.4-12.2
				c-7.9-9.2-13.6-20.3-16.4-31.7c-1.4-5.7-2.1-11.6-2.2-17.3c-0.1-5.7,0.5-11.4,1.6-16.8c2.6-12.9,8.8-25.5,18-35.6
				c9.2-10.1,21.3-17.8,34.5-21.8c13.2-4.1,27.6-4.2,40.9-0.9c13.3,3.4,25.5,10.3,34.9,19.7c-0.2,0.2-3.6-2.6-0.6,0.6
				c3,3.2,5.1,5.8,6.5,7.8c1.4,2,2.2,3.5,2.7,4.4c1,2,0.7,2.1,0.5,2.3c-0.1,0-0.5-0.6-1.1-1.6c-0.7-0.9-1.5-2.1-2.3-3.2
				c-0.8-1.1-1.6-2-1.9-2.5c-0.4-0.4-0.4-0.4,0.2,0.4c-2-2.5-4.5-5.3-7.2-7.7c-2.7-2.4-5.4-4.6-7.6-6.1c-1.1-0.8-2.1-1.4-2.8-1.8
				c-0.7-0.4-1.2-0.7-1.4-0.8c-0.4-0.2,0.5,0.4,3.1,2.3c1.7,1.3,6,4.5,9.7,8.3c3.8,3.7,7,8,8,9.8c2.1,3.7-3.1-3-1,0.7
				c0.6,0.9,1.4,1.9,2.1,3.1c0.4,0.6,0.8,1.2,1.2,1.9c0.4,0.7,0.8,1.3,1.1,2c0.8,1.4,1.4,2.8,2.1,4c0.6,1.3,1.1,2.5,1.5,3.5
				c0.6,2,0.1,1.1-0.5,0.2c-0.5-0.9-1.1-1.8-0.3,0.1c1.1,2.9,2.1,6.1,3,9.5c0.8,3.4,1.5,7.1,1.8,10.9c0.8,7.7,0.1,16-1.8,23.9
				c-0.1,0-0.5,1-0.6,0.9c-0.1,0,0-0.3,0.1-1.1c0.1-0.8,0.4-2,0.8-4c1.7-8.7,1.7-17.8-0.1-26.6c-1.7-8.8-5.1-17.2-10-24.7
				c-4.9-7.5-11.1-14.1-18.5-19.3c-7.3-5.2-15.6-8.9-24.4-11c-8.7-2.1-17.9-2.5-26.7-1.1c-8.9,1.3-17.5,4.4-25.2,9
				c-7.7,4.6-14.6,10.6-20,17.8c-5.5,7.1-9.5,15.3-11.9,24c-2.4,8.7-3.1,17.8-2.1,26.7c1,8.9,3.8,17.6,8.1,25.5
				c4.3,7.9,10.1,14.9,17,20.6c6.9,5.7,14.9,10,23.4,12.7c8.5,2.7,17.5,3.7,26.4,3c8.9-0.7,17.6-3.1,25.6-7c8-3.9,15.2-9.4,21.1-16
				c5.9-6.6,10.6-14.3,13.7-22.6c1.4-3.8,2-6,2.3-6.9c0.3-1,0.3-0.5,0.1,0.7c-0.4,2.5-2,8.5-4.6,14.1c1.7-3.7,2-3.6,3.4-7.5
				c0.1,0,0,0.6-0.2,1.6c-0.1,0.5-0.3,1.1-0.5,1.9c-0.3,0.7-0.6,1.6-1,2.6c-0.8,1.9-1.9,4.3-3.4,7c-1.6,2.7-3.6,5.8-6.2,9
				c2.7-3.2,5.1-6.7,7.2-10.3c2.2-3.6,0.4,0.2,0.6,0.3c-0.5,0.9-1.1,1.8-1.6,2.7c-0.5,0.8-1,1.6-1.5,2.3c-0.9,1.3-1.5,2.2-1.4,2.2
				c0.1,0.1,0.3,0.2,0.4,0.3c1.3-1.7,3.1-4.3,4.7-7.1c1.6-2.8,3-5.7,3.8-7.6c-0.4,1-0.9,1.9-1.3,2.9c-0.5,0.9-0.9,1.7-1.2,2.4
				c-0.7,1.4-1.3,2.3-1.2,2.4c0.1,0.1,0.4,0.2,0.5,0.3c-2.1,3.8-5.2,8.2-8.8,12.2c-3.6,4-7.7,7.6-11.1,10.2l0.2,0.3
				c3.5-2.5,7.6-6.1,11.2-10.2c3.6-4.1,6.7-8.5,8.8-12.3c-1,1.9-1.6,2.8-1.8,3.4c-0.2,0.5-0.1,0.6,0,0.6c-0.8,1.4-1.9,2.7-2.8,4
				c-1,1.3-2,2.6-3.1,3.8c-2.1,2.5-4.5,4.8-6.9,7c-4.9,4.3-10.3,8.1-16.1,11.2c3.9-2,7.6-4.3,11.1-6.9c-3.3,2.9-9.8,7.2-17.5,10.1
				c-3.8,1.5-7.9,2.7-11.9,3.5C291.7,366.4,287.9,367,284.6,367.2z"/>
		</g>
	</g>
</g>
<rect x="152.3" y="149.1" class="st3" width="270.6" height="144.8"/>
<text transform="matrix(1 0 0 1 155.0865 283.9147)" class="st1 st4 st5">emergence</text>
<g>
	<g>
		<g>
			<g>
				<path class="st1" d="M449.6,287.7c-0.1,0-0.1,0-0.2,0c0.1,0,0.3,0,0.5,0c-1.9-0.3-4.5-0.2-6.1,0.1c-0.6,0-1.1,0.1-1.2,0.2
					c-0.1,0.1,0.4,0.2,1,0.3c0.1,0,0.3,0,0.4,0c0.8,0.2,1.9,0.3,3,0.5l-0.7-0.1c0.3,0,0.7,0.1,1,0.1l-0.1-0.1
					c1.1,0.2,2.7,0.1,3.5-0.1c0.8-0.2,0.5-0.6-0.6-0.8L449.6,287.7z"/>
				<path class="st1" d="M447.4,286.9c0.7,0.1,1.3,0.2,2,0.3l0.1,0l0-0.2l0,0c-0.6,0.2-1.6,0.2-2.6,0.3l-0.3,0
					c-0.2,0-0.3,0.1-0.3,0.1c-0.1,0.1,0.2,0.2,0.6,0.2l0.5,0c1.2,0.1,3.1,0.1,3.8-0.2c0.2-0.1,0-0.2,0-0.3c0-0.1-0.4-0.2-1-0.3
					c-0.6,0-1.1,0.1-1.2,0.2l-0.3,0c0.1,0,0.2,0,0.2,0c-0.2,0.1-0.7,0.1-1.1,0.2l-0.6,0l0.3,0.3l0.3,0c0,0-0.1,0-0.1,0
					c0.6-0.1,1.2-0.2,1.9-0.2l0.8-0.1c0.2-0.1,0.2-0.1,0-0.2l-0.4-0.1c0.1,0,0.1,0,0.2,0c-0.9-0.1-1.7-0.1-2.6-0.2
					c-0.1,0-0.3,0-0.4,0C447.2,286.9,447.3,286.9,447.4,286.9z"/>
				<g>
					<path class="st1" d="M450.5,286.9c0.1,0,0.3,0.1,0.5,0c0,0,0.1,0,0.1,0c-0.1,0-0.2,0-0.3-0.1
						C450.6,286.8,450.5,286.9,450.5,286.9z"/>
					<path class="st1" d="M451.1,286.9c0.1,0,0.1,0,0.1,0L451.1,286.9C451.1,286.9,451.1,286.9,451.1,286.9
						C451.1,286.9,451.1,286.9,451.1,286.9z"/>
					<path class="st1" d="M426.6,282.4c2.7,0.1,5.4,0.1,8,0.2c0.1,0,0.2,0,0.2,0c0,0-0.1,0-0.1,0C432,282.5,429.3,282.4,426.6,282.4
						c-0.1-0.1-0.1-0.1-0.1,0C426.4,282.4,426.5,282.4,426.6,282.4z"/>
					<path class="st1" d="M446.6,284.5C446.5,284.5,446.5,284.5,446.6,284.5c0.1,0.1,0.2,0.1,0.2,0c0.1,0,0.1,0,0,0
						C446.7,284.4,446.6,284.4,446.6,284.5z"/>
					<path class="st1" d="M446,285.9c-0.4,0-0.7,0.1-1,0.1c-0.1,0-0.1,0-0.2,0c0,0-0.1,0.1-0.2,0.1c-2.7,0.2-5.5,0.3-8.3,0.4
						c0,0-0.1,0-0.1,0.1c-0.2,0.1-0.6,0.1-1,0.1l-0.3,0c-1.2-0.1-2.5-0.1-3.7-0.2c-0.3,0-0.5,0.1-0.9,0.1c-1.1,0.1-2.1,0.2-3.2,0.2
						c0.1,0,0.1,0,0.1,0.1c0,0.1-0.3,0.1-0.6,0.1l-0.4,0c0.4,0,0.9,0,1.3,0.1c0.1,0,0.1,0,0.2,0c0.5,0,0.9,0,1.4,0
						c4.2,0,8.2-0.2,12.1-0.5c0.1,0,0.2,0,0.2,0c0,0,0,0,0,0c-2.5,0.3-4.6,0.7-7.4,0.9c-3.3,0.2-6.6,0.4-10,0.6c-1.3,0-2.6,0-3.9,0
						l0.1-6.6c2.2-0.1,4.3-0.1,6.6-0.2c4.9-0.1,9.5-0.1,14.3-0.1c1.8,0,3.4,0.2,3.7,0.6c0.1,0.2-0.3,0.5-1,0.6l0.4,0l0.7,0.1
						c0.7,0.1,1.2,0.2,1.6,0.3l0.5,0.2c0.6,0.3,1.7,0.6,2.2,0.9l-0.1,0.1l0.1,0c0.4,0.1,0.7,0.2,0.8,0.3l0,0.1
						c-0.1,0.2-0.3,0.3-0.6,0.5c0,0.1,0,0.1-0.1,0.2c0.3,0.2,0.4,0.3,0.2,0.5c0.2,0,0.1,0.1-0.1,0.1c-0.1,0-0.2,0-0.2,0l0,0
						c0.1,0,0.1,0.1,0.2,0.1c0.2,0,0.3,0,0.3,0c0.4,0,0.4,0,0.8,0.1c0.3,0.1,0.5,0.1,0.5,0.1c0.4,0.3,0.4,0.3,0.3,0.4l-0.1,0
						c0.3,0,0.3,0,0.4,0.1c0.1,0,0.1,0,0.1,0c0,0.1,0,0.1,0.1,0.1c0,0,0,0,0,0c-0.2,0.1-0.2,0.1-0.2,0.1c0,0-0.1,0-0.1,0
						c-0.2,0-0.3,0-0.3,0c-0.4-0.2-0.4-0.2-0.4-0.2c-0.1,0.1-0.1,0.1-0.1,0.1c-0.1-0.1-0.1-0.1-0.1-0.1c0.1,0.1,0.1,0.1,0.1,0.1
						c-0.2,0-0.2,0-0.2,0c0.2,0.1,0.2,0.1,0.2,0.1c-0.5,0-0.5,0-0.7,0c-0.2,0-0.4,0-0.4,0c0,0,0,0,0,0c-0.5,0-0.5,0-1.1-0.1l-0.1,0
						c-0.1,0-0.1,0-0.3,0l-0.3,0l-0.1,0l0,0c-0.1,0-0.2,0-0.2,0c0,0,0,0,0,0l0,0c-0.2,0-0.4,0-1,0.1c-0.2,0-0.3,0-0.5,0l0.1,0
						c0.1,0,0,0.1,0.1,0.1c1.1,0.1,2.4,0.2,3.6,0.3c0.2,0,0.4,0,0.5,0.1c0,0-0.1,0.1-0.4,0.1c-2.5,0.3-5.5,0.2-8.1,0
						c-0.7,0-1.4-0.1-2-0.1l0.1,0l-0.5,0l-0.1,0l0.4,0.1l0.3,0c1.6,0.1,3,0.2,4.5,0.4c0.8,0.1,1.5,0.2,2.3,0.3c0.2,0,0.3,0,0.3,0.1
						c0,0-0.2,0.1-0.4,0.1c-2.6,0.1-5.5,0-7.6-0.4c-0.5,0-0.9,0-1.3-0.1l0,0l0.3,0.1c-0.4,0-0.5-0.1-0.9-0.1l0.1,0.1
						c-1.7-0.1-3.6-0.1-5.2-0.3l-0.2,0c-0.7,0.1-1.4,0.2-2.2,0.2c0.3,0,0.5,0,0.8,0c-0.6,0-1.2,0.1-1.8,0.1c-1.7,0-3.7-0.2-4.6-0.6
						l-4.2,0l0-4.8c1.9,0,3.9,0,5.8-0.1c0.2,0,0.3,0,0.4,0.1c0,0-0.1,0.1-0.3,0.1c-1.9,0.1-3.9,0.1-5.9,0.2l0,4.3l1.4,0
						c-0.5,0-0.9,0-1.4-0.1l0-4.1c1.6,0.1,3.2,0.1,4.8,0.1l0.8,0c0.3,0,0.5,0,0.8,0c2.7,0,5.2,0.1,7.9,0c2.3-0.1,4.3-0.1,6.7-0.2
						c3.2-0.1,6.2-0.3,9.4-0.2c0.4,0,0.8,0.1,0.9,0.2c0.1,0.1-0.3,0.2-0.7,0.2c-6.7,0.2-13.2,0.5-20.2,0.4c-0.8,0-1.5,0-2.2,0
						c0,0,0,0,0,0c0,0.1-0.1,0.1-0.2,0.1c0.8,0,1.7,0.1,2.5,0.1c2.4-0.1,4.7-0.2,7.2-0.1c1.7,0.1,3.3,0.2,4.9,0.3c2,0,4-0.1,6.1-0.1
						c0.1,0,0.2,0,0.2,0c0,0,0,0-0.1,0c-1.4,0.1-2.8,0.2-4.3,0.2c0.2,0.1,0.4,0.1,0.3,0.2c0,0.1-0.2,0.2-0.5,0.2l1,0
						c0.2,0,0.4,0,0.4,0.1c0,0-0.2,0.1-0.4,0.1l-4-0.1c-1.6,0-3.2,0.1-4.8,0.1c0.2,0.1,0.4,0.1,0.5,0.2l0,0l0.7,0
						c4.6-0.2,9.2-0.3,13.9-0.2c0.1,0,0.2,0,0.2,0c0,0-0.1,0-0.2,0c-1.4,0-2.8,0-4.2,0l0,0c0.1,0,0.1,0,0,0c-0.1,0-0.2,0-0.2,0
						c-0.1,0-0.1,0,0,0c-2.6,0-5.2,0.1-7.8,0.2c2.4,0,4.8,0,7.2,0.1l0.8-0.1c0.1,0,0.2,0,0.2,0c0,0,0,0-0.1,0l-0.2,0
						c0.5,0,0.8,0.1,0.8,0.2c0,0.1-0.4,0.2-0.9,0.2c-1.3,0-2.5,0-3.8,0l-0.4,0l-0.4,0c1.9,0.1,3.9,0.1,5.8,0.2c0.2,0,0.3,0,0.3,0.1
						c0,0-0.1,0.1-0.3,0.1c-3.4,0.1-6.9,0.2-10.3,0.2c-1.1,0.1-2.3,0.3-3.4,0.4l0.4,0c3.8,0,7-0.4,10.6-0.4c0.1,0,0.2,0,0.2,0
						c0,0-0.1,0-0.1,0c-1.8,0-3.4,0.2-5.2,0.3c-1.5,0.1-2.9,0.1-4.2,0.3c2.8,0,5.4-0.2,8.2-0.3c0.1,0,0.2,0,0.3,0c0,0,0,0,0.1,0
						c0.3,0,0.7-0.1,1.1-0.1C446,285.9,446,285.9,446,285.9C446.1,285.9,446.1,285.9,446,285.9z M442.2,286.2
						C442.3,286.2,442.3,286.2,442.2,286.2c0,0-0.1,0-0.2,0c0,0,0,0-0.3-0.1C441.7,286,442,286.1,442.2,286.2z M446.5,285.7
						L446.5,285.7c0.1,0,0.2,0.1,0.2,0.1C446.6,285.7,446.5,285.7,446.5,285.7z M420.6,282.9l-0.6,0l0,3.9c1.2,0,2.5,0.1,3.7,0.2
						l-1.1,0c-0.9,0-1.8-0.1-2.7-0.1l0-3.9C420.2,282.8,420.4,282.9,420.6,282.9z M445.1,286.8c-0.4-0.1-0.7-0.2-1-0.3
						c-0.3,0-0.5,0-0.8,0c-0.7,0-1.4,0-2.1-0.1c0.1,0.1-0.1,0-0.2,0.1l-0.3,0c0.7,0,1.5,0.1,2.2,0.1
						C443.7,286.7,444.4,286.7,445.1,286.8z M450.2,286.6L450.2,286.6C450.3,286.6,450.3,286.6,450.2,286.6
						C450.1,286.7,450.2,286.7,450.2,286.6z M450.4,286.5l-0.1,0C450.4,286.4,450.4,286.4,450.4,286.5z M449.5,286.4
						c0.1,0,0.1,0,0.1,0C449.5,286.4,449.5,286.4,449.5,286.4z M448.8,284.1l-0.4,0.4L448.8,284.1L448.8,284.1z"/>
				</g>
			</g>
		</g>
	</g>
</g>
<g>
	<g>
		<g>
			<g>
				<path class="st1" d="M436.8,359.9c-0.1,0-0.1-0.1-0.2-0.1c0.1,0,0.3,0.1,0.5,0.2c-1.7-1.2-4.3-2.3-6-2.8
					c-0.6-0.3-1.1-0.5-1.2-0.4c-0.1,0.1,0.3,0.4,0.8,0.7c0.1,0.1,0.3,0.2,0.3,0.2c0.7,0.6,1.7,1.2,2.7,1.8l-0.6-0.4
					c0.3,0.2,0.6,0.4,1,0.6l-0.1-0.1c1,0.7,2.6,1.4,3.4,1.6c0.9,0.2,0.8-0.3-0.3-1L436.8,359.9z"/>
				<path class="st1" d="M435,358.2c0.6,0.4,1.2,0.8,1.8,1.2l0.1,0.1l0-0.2l0,0c-0.7-0.1-1.7-0.6-2.6-1l-0.3-0.1
					c-0.2-0.1-0.3-0.1-0.3,0c-0.1,0,0.1,0.3,0.5,0.5l0.5,0.3c1.1,0.7,3,1.6,3.8,1.6c0.2,0,0.1-0.1,0.1-0.2c0.1-0.1-0.3-0.4-0.9-0.7
					c-0.6-0.3-1.1-0.5-1.2-0.4l-0.3-0.2c0.1,0,0.2,0.1,0.3,0.1c-0.2,0-0.8-0.2-1.2-0.4l-0.6-0.3l0.2,0.4l0.3,0.1
					c0,0-0.1-0.1-0.1-0.1c0.6,0.2,1.2,0.4,1.9,0.7l0.9,0.3c0.2,0.1,0.3,0,0-0.2l-0.3-0.2c0.1,0,0.1,0.1,0.1,0.1
					c-0.8-0.5-1.6-0.9-2.5-1.4c-0.1-0.1-0.3-0.1-0.4-0.2C434.9,358,434.9,358.1,435,358.2z"/>
				<g>
					<path class="st1" d="M438,359.6c0.1,0.1,0.2,0.2,0.4,0.3c0.1,0,0.1,0,0.1,0c-0.1,0-0.2-0.1-0.2-0.2
						C438.1,359.6,438,359.6,438,359.6z"/>
					<path class="st1" d="M438.5,359.9c0.1,0,0.1,0.1,0.1,0.1L438.5,359.9C438.6,359.9,438.6,359.9,438.5,359.9
						C438.6,359.9,438.6,359.9,438.5,359.9z"/>
					<path class="st1" d="M416.7,344.2c2.6,1.3,5.1,2.7,7.7,4c0.1,0,0.2,0.1,0.2,0.1c0,0,0-0.1-0.1-0.1
						C421.9,346.8,419.4,345.5,416.7,344.2c0-0.1-0.1-0.1-0.1-0.1C416.6,344.1,416.7,344.2,416.7,344.2z"/>
					<path class="st1" d="M435.3,355.5C435.2,355.5,435.2,355.5,435.3,355.5c0,0.1,0.1,0.1,0.2,0.2c0.1,0,0.1,0,0,0
						C435.4,355.6,435.3,355.6,435.3,355.5z"/>
					<path class="st1" d="M434.1,356.6c-0.4-0.2-0.7-0.3-1.1-0.4c-0.1,0-0.1-0.1-0.2-0.1c0,0-0.1,0-0.2,0c-2.7-1.1-5.5-2.3-8.3-3.6
						c0,0-0.1,0-0.1,0c-0.2,0-0.6-0.2-1-0.4l-0.3-0.2c-1.2-0.6-2.4-1.3-3.5-1.9c-0.3-0.1-0.6-0.2-0.9-0.4c-1.1-0.4-2.1-0.9-3.2-1.3
						c0.1,0.1,0.1,0.1,0.1,0.1c0,0-0.3,0-0.6-0.2l-0.4-0.2l1.2,0.7l0.2,0.1c0.5,0.2,0.9,0.5,1.4,0.7c4.1,2,8,3.7,11.9,5.3
						c0.1,0,0.2,0.1,0.2,0.1c0,0,0,0-0.1,0c-2.5-0.9-4.8-1.5-7.6-2.7c-3.3-1.4-6.6-2.8-10-4.3c-1.3-0.6-2.5-1.2-3.8-1.8l2.9-5.9
						c2.1,1,4.3,2,6.5,3c4.8,2.2,9.3,4.4,14,6.7c1.8,0.8,3.2,1.9,3.3,2.3c0,0.3-0.5,0.3-1.2,0.1l0.4,0.2l0.7,0.4
						c0.6,0.4,1.1,0.7,1.4,1l0.4,0.4c0.5,0.6,1.4,1.3,1.8,1.9l-0.2,0.1l0.1,0.1c0.4,0.3,0.6,0.5,0.6,0.7l-0.1,0.1
						c-0.2,0.1-0.4,0.2-0.8,0.1c0,0.1-0.1,0.1-0.2,0.1c0.2,0.3,0.3,0.5,0,0.5c0.1,0.1,0.1,0.2-0.1,0.1c-0.1,0-0.2-0.1-0.2-0.1l0,0
						c0.1,0.1,0.1,0.1,0.2,0.2c0.2,0.1,0.2,0.1,0.2,0.1c0.4,0.2,0.4,0.2,0.8,0.5c0.3,0.2,0.5,0.4,0.5,0.4c0.2,0.4,0.2,0.4,0.1,0.5
						l-0.1,0c0.3,0.2,0.3,0.2,0.4,0.2c0.1,0.1,0.1,0.1,0.1,0.1c0,0.1,0,0.1,0,0.1c0,0,0,0,0,0c-0.2,0-0.2,0-0.2,0c0,0-0.1,0-0.1,0
						c-0.2-0.1-0.3-0.1-0.3-0.1c-0.3-0.3-0.3-0.3-0.3-0.3c-0.1,0-0.1,0-0.1,0c-0.1-0.1-0.1-0.1-0.1-0.1c0,0.1,0,0.1,0,0.1
						c-0.2-0.1-0.2-0.1-0.2-0.1c0.2,0.2,0.2,0.2,0.2,0.2c-0.5-0.3-0.5-0.3-0.7-0.4c-0.2-0.1-0.4-0.2-0.4-0.2c0,0,0,0,0,0
						c-0.5-0.3-0.5-0.3-1-0.6l-0.1-0.1c-0.1,0-0.2,0-0.3-0.1l-0.3-0.1l-0.1,0l0,0c-0.1,0-0.2-0.1-0.2-0.1c0,0,0,0,0,0l0,0
						c-0.2-0.1-0.4-0.1-1-0.4c-0.1-0.1-0.3-0.2-0.4-0.2l0.1,0.1c0.1,0.1,0,0.1,0,0.1c1,0.7,2.2,1.3,3.4,2c0.2,0.1,0.4,0.2,0.4,0.3
						c0,0.1-0.2,0-0.4-0.1c-2.5-0.9-5.5-2.4-7.8-3.9c-0.6-0.4-1.3-0.7-1.9-1.1l0.1,0.1l-0.5-0.3l-0.1,0l0.3,0.3l0.3,0.2
						c1.5,0.8,2.8,1.6,4.2,2.5c0.8,0.4,1.4,0.9,2.1,1.3c0.2,0.1,0.3,0.2,0.3,0.2c0,0-0.2,0-0.4-0.1c-2.5-1.2-5.3-2.7-7.2-4
						c-0.5-0.2-0.9-0.5-1.2-0.7l0,0l0.2,0.2c-0.3-0.2-0.5-0.3-0.8-0.5l0.1,0.2c-1.6-0.9-3.5-1.8-5-2.7l-0.2-0.1
						c-0.7-0.3-1.4-0.5-2.2-0.9c0.3,0.1,0.5,0.3,0.8,0.4c-0.6-0.2-1.2-0.5-1.8-0.8c-1.7-0.8-3.4-1.9-4.2-2.7l-4.1-2l2.1-4.3
						c1.9,0.9,3.8,1.8,5.7,2.7c0.2,0.1,0.3,0.2,0.3,0.2c0,0-0.1,0-0.3-0.1c-1.9-0.8-3.9-1.7-5.8-2.7l-1.9,3.8l1.3,0.6
						c-0.4-0.2-0.9-0.5-1.3-0.7l1.8-3.7c1.5,0.8,3,1.6,4.6,2.4l0.8,0.4c0.3,0.1,0.5,0.3,0.8,0.4c2.6,1.3,5,2.5,7.7,3.7
						c2.3,1,4.3,1.9,6.6,3c3.2,1.4,6.1,2.7,9.2,4.2c0.4,0.2,0.8,0.4,0.8,0.6c0,0.1-0.3,0-0.7-0.2c-6.6-3-13.1-5.8-19.8-9.2
						c-0.7-0.4-1.4-0.7-2.2-1.1c0,0,0,0,0,0c0,0-0.1,0.1-0.2,0c0.8,0.4,1.6,0.8,2.4,1.3c2.3,1,4.7,2.1,7.1,3.3
						c1.7,0.9,3.1,1.7,4.6,2.6c2,0.9,4,1.8,6,2.8c0.1,0,0.2,0.1,0.2,0.1c0,0,0,0-0.1,0c-1.4-0.6-2.8-1.2-4.3-1.8
						c0.2,0.2,0.3,0.3,0.2,0.4c-0.1,0.1-0.3,0-0.5,0l1,0.5c0.2,0.1,0.3,0.2,0.3,0.2c0,0-0.2,0-0.4-0.1l-3.9-2
						c-1.6-0.7-3.1-1.5-4.7-2.2c0.2,0.2,0.3,0.3,0.4,0.4l0,0l0.7,0.4c4.5,2,9.1,4.1,13.6,6.4c0.1,0,0.2,0.1,0.1,0.1c0,0-0.1,0-0.2,0
						c-1.4-0.7-2.7-1.4-4.1-2l0,0c0,0,0.1,0.1,0,0c-0.1,0-0.2-0.1-0.2-0.1c-0.1,0,0-0.1,0,0c-2.6-1.2-5.1-2.4-7.7-3.6
						c2.3,1.1,4.6,2.3,6.9,3.5l0.8,0.3c0.1,0,0.2,0.1,0.2,0.1c0,0,0,0-0.1,0l-0.2-0.1c0.4,0.2,0.7,0.5,0.7,0.6
						c-0.1,0.1-0.5,0-0.9-0.3c-1.2-0.6-2.4-1.2-3.7-1.8l-0.4-0.2l-0.4-0.2c1.9,1,3.7,2,5.6,2.9c0.2,0.1,0.3,0.2,0.3,0.2
						c0,0-0.2,0-0.3-0.1c-3.4-1.5-6.7-3.1-10.1-4.7c-1.2-0.4-2.4-0.8-3.5-1.2l0.4,0.2c3.6,1.8,6.9,3,10.5,4.6c0.1,0,0.2,0.1,0.2,0.1
						c0,0-0.1,0-0.2,0c-1.7-0.8-3.4-1.5-5.1-2.2c-1.5-0.6-2.8-1.2-4.2-1.8c2.7,1.3,5.4,2.4,8.1,3.7c0.1,0.1,0.2,0.1,0.3,0.2
						c0,0,0,0,0.1,0c0.4,0.1,0.7,0.3,1.1,0.4c0.1,0,0.2,0.1,0.2,0.1C434.2,356.6,434.2,356.6,434.1,356.6z M430.3,355
						C430.3,355.1,430.3,355.1,430.3,355c0,0-0.1,0-0.2-0.1c0,0,0,0-0.3-0.3C429.9,354.6,430.1,354.8,430.3,355z M434.7,356.6
						L434.7,356.6c0.1,0.1,0.2,0.2,0.2,0.2C434.8,356.7,434.7,356.7,434.7,356.6z M410.7,341.8l-0.6-0.3l-1.7,3.5
						c1.2,0.6,2.4,1.2,3.6,1.9l-1-0.5c-0.8-0.5-1.7-0.9-2.5-1.4l1.8-3.5C410.3,341.6,410.5,341.7,410.7,341.8z M432.8,356.9
						c-0.3-0.3-0.6-0.5-0.8-0.7c-0.3-0.1-0.5-0.2-0.8-0.4c-0.7-0.4-1.3-0.7-2-1.1c0.1,0.1-0.1,0-0.2,0l-0.3-0.1
						c0.7,0.4,1.4,0.8,2.1,1.2C431.5,356.2,432.2,356.5,432.8,356.9z M437.9,359.2L437.9,359.2c0.1,0,0.1,0-0.1,0
						C437.8,359.3,437.8,359.2,437.9,359.2z M438.2,359.2L438.2,359.2C438.1,359.1,438.1,359.2,438.2,359.2z M437.3,358.6
						c0,0,0.1,0.1,0.1,0.1C437.3,358.6,437.3,358.6,437.3,358.6z M437.6,356.3l-0.5,0.2L437.6,356.3L437.6,356.3z"/>
				</g>
			</g>
		</g>
	</g>
</g>
<g>
	<g>
		<g>
			<g>
				<path class="st1" d="M114.8,282.6c0.1,0,0.1,0,0.2,0c-0.1,0-0.3,0-0.4,0c1.7,0.4,3.9,0.3,5.4,0c0.5,0,1,0,1-0.2
					c0.1-0.1-0.3-0.3-0.8-0.3c-0.1,0-0.2,0-0.3-0.1c-0.7-0.2-1.6-0.4-2.7-0.5l0.6,0.1c-0.3,0-0.6-0.1-0.9-0.1l0.1,0.1
					c-1-0.2-2.4-0.2-3.1,0c-0.7,0.2-0.5,0.6,0.5,0.8L114.8,282.6z"/>
				<path class="st1" d="M116.7,283.4c-0.6-0.1-1.2-0.2-1.7-0.3l-0.1,0l0,0.2l0,0c0.5-0.1,1.4-0.2,2.3-0.2l0.3,0
					c0.1,0,0.2-0.1,0.3-0.1c0.1-0.1-0.2-0.2-0.6-0.2l-0.4,0c-1.1-0.2-2.8-0.2-3.4,0.1c-0.1,0.1,0,0.2,0,0.3c0,0.1,0.4,0.3,0.9,0.3
					c0.5,0,1,0,1-0.2l0.3,0c-0.1,0-0.1,0-0.2,0c0.2-0.1,0.6-0.1,1-0.2l0.5,0l-0.3-0.3l-0.3,0c0,0,0.1,0,0.1,0
					c-0.5,0.1-1.1,0.1-1.6,0.2l-0.7,0.1c-0.2,0-0.2,0.1,0,0.2l0.3,0.1c-0.1,0-0.1,0-0.1,0c0.8,0.1,1.5,0.2,2.3,0.3
					c0.1,0,0.3,0,0.3,0C116.8,283.5,116.8,283.4,116.7,283.4z"/>
				<g>
					<path class="st1" d="M114,283.3c-0.1,0-0.2-0.1-0.4-0.1c0,0-0.1,0-0.1,0c0.1,0,0.2,0,0.2,0.1C113.9,283.4,114,283.4,114,283.3z
						"/>
					<path class="st1" d="M113.5,283.3C113.4,283.3,113.4,283.3,113.5,283.3L113.5,283.3C113.5,283.3,113.5,283.3,113.5,283.3
						C113.5,283.3,113.5,283.3,113.5,283.3z"/>
					<path class="st1" d="M134.9,288.5c-2.4-0.1-4.7-0.3-7.1-0.4c-0.1,0-0.1,0-0.2,0c0,0,0.1,0,0.1,0
						C130.2,288.3,132.5,288.4,134.9,288.5c0,0.1,0.1,0.1,0.1,0C135.1,288.5,135,288.5,134.9,288.5z"/>
					<path class="st1" d="M117.4,285.9C117.4,285.9,117.4,285.9,117.4,285.9c-0.1-0.1-0.1-0.1-0.2-0.1c0,0,0,0,0,0
						C117.2,285.9,117.3,285.9,117.4,285.9z"/>
					<path class="st1" d="M117.9,284.4c0.3,0,0.6,0,0.9-0.1c0.1,0,0.1,0,0.2,0c0,0,0-0.1,0.2-0.1c2.4-0.2,4.9-0.2,7.4-0.2
						c0,0,0.1,0,0.1-0.1c0.2-0.1,0.5-0.1,0.9-0.1l0.3,0c1.1,0.1,2.2,0.2,3.3,0.3c0.2,0,0.5,0,0.8,0c0.9-0.1,1.9-0.1,2.9-0.1
						c-0.1,0-0.1,0-0.1-0.1c0-0.1,0.2-0.1,0.5-0.1l0.4,0c-0.4,0-0.7-0.1-1.1-0.1c-0.1,0-0.1,0-0.1,0c-0.4,0-0.8,0-1.3,0
						c-3.7-0.1-7.2,0-10.7,0.2c-0.1,0-0.1,0-0.2,0c0,0,0,0,0,0c2.2-0.2,4.1-0.6,6.6-0.7c2.9-0.1,5.8-0.2,8.9-0.3
						c1.2,0,2.3,0.1,3.4,0.1l-0.3,6.6c-1.9,0-3.8,0-5.8,0c-4.3,0-8.4-0.2-12.7-0.3c-1.6,0-3-0.3-3.2-0.7c-0.1-0.2,0.3-0.4,0.9-0.6
						l-0.4,0l-0.6-0.1c-0.6-0.1-1.1-0.2-1.4-0.3l-0.4-0.2c-0.6-0.3-1.5-0.6-1.9-1l0.1-0.1l-0.1,0c-0.4-0.1-0.6-0.2-0.7-0.4l0-0.1
						c0.1-0.2,0.3-0.3,0.6-0.5c0-0.1,0-0.1,0.1-0.2c-0.2-0.2-0.4-0.3-0.2-0.5c-0.1,0-0.1-0.1,0.1-0.1c0.1,0,0.1,0,0.2,0l0,0
						c-0.1,0-0.1-0.1-0.2-0.1c-0.1,0-0.2,0-0.2,0c-0.4,0-0.4,0-0.7-0.1c-0.3-0.1-0.5-0.1-0.5-0.1c-0.3-0.3-0.3-0.3-0.3-0.4l0.1,0
						c-0.3,0-0.3-0.1-0.3-0.1c-0.1,0-0.1,0-0.1,0c0-0.1,0-0.1-0.1-0.1c0,0,0,0,0,0c0.1-0.1,0.1-0.1,0.2-0.1c0,0,0.1,0,0.1,0
						c0.2,0,0.2,0,0.3,0c0.4,0.2,0.4,0.2,0.4,0.2c0.1-0.1,0.1-0.1,0.1-0.1c0.1,0.1,0.1,0.1,0.1,0.1c0-0.1,0-0.1,0-0.1
						c0.2,0,0.2,0,0.2,0c-0.2-0.1-0.2-0.1-0.2-0.1c0.4,0,0.4,0,0.6,0c0.2,0,0.3,0,0.4,0c0,0,0,0,0,0c0.5,0,0.5,0,0.9,0.1l0.1,0
						c0,0,0.1,0,0.2,0l0.2,0l0.1,0l0,0c0.1,0,0.1,0,0.2,0c0,0,0,0,0,0l0,0c0.1,0,0.3,0,0.9-0.1l0.4,0l-0.1,0c-0.1,0,0-0.1,0-0.1
						c-1-0.2-2.1-0.3-3.2-0.4c-0.2,0-0.4,0-0.4-0.1c0,0,0.1-0.1,0.3-0.1c2.2-0.2,4.9-0.1,7.1,0.3c0.6,0.1,1.2,0.1,1.8,0.2l-0.1,0
						l0.5,0.1l0.1,0l-0.3-0.1c-0.1,0-0.2,0-0.2,0c-1.4-0.1-2.6-0.3-4-0.5c-0.7-0.1-1.3-0.2-2-0.3c-0.2,0-0.3-0.1-0.3-0.1
						c0,0,0.2-0.1,0.4-0.1c2.3,0,4.9,0.2,6.7,0.6c0.4,0,0.8,0.1,1.1,0.1l0,0l-0.3-0.1c0.3,0,0.5,0.1,0.8,0.2l-0.1-0.1
						c1.5,0.1,3.2,0.2,4.6,0.4l0.2,0c0.6-0.1,1.2-0.1,2-0.1c-0.2,0-0.5,0-0.7-0.1c0.5,0,1,0,1.6,0c1.5,0.1,3.2,0.3,4,0.7l3.7,0.1
						l-0.2,4.8c-1.7,0-3.4-0.1-5.1-0.1c-0.2,0-0.3,0-0.3-0.1c0,0,0.1-0.1,0.2-0.1c1.7,0,3.5,0,5.2,0l0.2-4.3l-1.2,0
						c0.4,0,0.8,0.1,1.2,0.1l-0.2,4.1c-1.4-0.1-2.8-0.2-4.2-0.3l-0.7,0c-0.2,0-0.5,0-0.7,0c-2.3-0.1-4.6-0.2-7-0.2c-2,0-3.8,0-5.9,0
						c-2.9,0-5.5,0.1-8.3,0c-0.4,0-0.7-0.1-0.8-0.2c0-0.1,0.2-0.2,0.6-0.2c5.9,0,11.7-0.1,17.9,0.1c0.7,0,1.3,0.1,2,0.1c0,0,0,0,0,0
						c0-0.1,0.1-0.1,0.2-0.1c-0.7,0-1.5-0.1-2.2-0.2c-2.1,0-4.2,0-6.4-0.1c-1.5-0.1-2.9-0.3-4.3-0.4c-1.8,0-3.6,0-5.4,0
						c-0.1,0-0.1,0-0.2,0c0,0,0,0,0.1,0c1.2-0.1,2.5-0.1,3.8-0.1c-0.2-0.1-0.3-0.1-0.3-0.2c0-0.1,0.2-0.2,0.4-0.2l-0.9,0
						c-0.2,0-0.3,0-0.3-0.1c0,0,0.1-0.1,0.3-0.1l3.5,0.2c1.4,0,2.8,0,4.3,0.1c-0.2-0.1-0.3-0.1-0.4-0.2l0,0l-0.7,0
						c-4,0.1-8.1,0-12.3-0.2c-0.1,0-0.1,0-0.1,0c0,0,0.1,0,0.1,0c1.2,0.1,2.5,0.1,3.7,0.2l0,0c0,0-0.1,0,0,0c0,0,0.1,0,0.2,0
						c0.1,0,0.1,0,0,0c2.3,0.1,4.6,0.1,6.9,0.1c-2.1-0.1-4.2-0.1-6.3-0.3l-0.7,0c-0.1,0-0.1,0-0.2,0c0,0,0,0,0.1,0l0.2,0
						c-0.4,0-0.7-0.1-0.7-0.2c0-0.1,0.4-0.2,0.8-0.1c1.1,0,2.2,0.1,3.3,0.1l0.4,0l0.4,0c-1.7-0.1-3.4-0.2-5.1-0.4
						c-0.1,0-0.3,0-0.3-0.1c0,0,0.1-0.1,0.3-0.1c3,0,6.1,0,9.1,0.1c1-0.1,2-0.2,3.1-0.3l-0.4,0c-3.3-0.1-6.2,0.2-9.4,0.1
						c-0.1,0-0.1,0-0.2,0c0,0,0,0,0.1,0c1.6,0,3-0.1,4.6-0.1c1.3,0,2.5-0.1,3.7-0.1c-2.5-0.1-4.8,0-7.2,0c-0.1,0-0.2,0-0.3,0
						c0,0,0,0-0.1,0c-0.3,0-0.6,0.1-1,0.1C118,284.5,117.9,284.5,117.9,284.4C117.8,284.5,117.9,284.5,117.9,284.4z M121.2,284.3
						C121.2,284.3,121.2,284.3,121.2,284.3c0,0,0.1,0,0.2,0c0,0,0,0,0.3,0.2C121.7,284.5,121.5,284.4,121.2,284.3z M117.5,284.7
						L117.5,284.7c-0.1-0.1-0.2-0.1-0.2-0.1C117.4,284.6,117.4,284.7,117.5,284.7z M140.2,288.2l0.6,0l0.2-3.9
						c-1.1-0.1-2.2-0.1-3.3-0.3l0.9,0c0.8,0.1,1.6,0.1,2.3,0.2l-0.2,3.9C140.6,288.3,140.4,288.2,140.2,288.2z M118.8,283.6
						c0.3,0.1,0.6,0.2,0.8,0.3c0.2,0,0.5,0,0.7,0c0.6,0,1.2,0.1,1.9,0.1c-0.1-0.1,0.1,0,0.1,0l0.2,0c-0.6-0.1-1.3-0.1-2-0.2
						C120,283.8,119.3,283.7,118.8,283.6z M114.2,283.7L114.2,283.7C114.2,283.6,114.2,283.6,114.2,283.7
						C114.3,283.6,114.3,283.6,114.2,283.7z M114,283.8L114,283.8C114.1,283.8,114,283.8,114,283.8z M114.9,283.9c0,0-0.1,0-0.1,0
						C114.9,283.9,114.9,283.9,114.9,283.9z M115.4,286.2l0.3-0.4L115.4,286.2L115.4,286.2z"/>
				</g>
			</g>
		</g>
	</g>
</g>
<g>
	<g>
		<g>
			<g>
				<path class="st1" d="M383,430.1c0-0.1-0.1-0.1-0.1-0.2c0.1,0.1,0.3,0.2,0.4,0.4c-1.3-1.8-3.5-3.6-5-4.7c-0.5-0.5-1-0.8-1.1-0.8
					c-0.1,0,0.1,0.5,0.6,1c0.1,0.1,0.2,0.2,0.3,0.3c0.5,0.8,1.3,1.7,2.1,2.7l-0.5-0.6c0.2,0.3,0.5,0.6,0.8,0.9l-0.1-0.2
					c0.8,1,2.1,2.2,2.9,2.7c0.8,0.5,0.8,0,0-1L383,430.1z"/>
				<path class="st1" d="M381.9,427.9c0.5,0.6,0.9,1.2,1.4,1.8l0.1,0.1l0.1-0.2l0,0c-0.6-0.4-1.5-1.1-2.2-1.8l-0.3-0.2
					c-0.1-0.1-0.3-0.2-0.3-0.2c-0.1,0,0,0.3,0.4,0.7l0.4,0.4c0.9,1,2.4,2.6,3.2,2.9c0.2,0.1,0.1-0.1,0.2-0.2c0.1-0.1-0.2-0.5-0.6-1
					c-0.5-0.5-1-0.8-1.1-0.8l-0.2-0.3l0.2,0.2c-0.2-0.1-0.7-0.5-1.1-0.8l-0.5-0.5l0.1,0.5l0.3,0.2c0,0,0-0.1,0-0.1
					c0.6,0.4,1.1,0.8,1.6,1.3l0.8,0.6c0.2,0.1,0.3,0.1,0.1-0.2l-0.3-0.3c0,0.1,0.1,0.1,0.1,0.2c-0.7-0.7-1.3-1.5-2-2.2
					c-0.1-0.1-0.2-0.2-0.3-0.3C381.7,427.7,381.8,427.8,381.9,427.9z"/>
				<g>
					<path class="st1" d="M384.3,430.3c0.1,0.1,0.2,0.3,0.4,0.4c0,0,0.1,0,0.1,0.1c0-0.1-0.1-0.2-0.2-0.3
						C384.5,430.3,384.4,430.2,384.3,430.3z"/>
					<path class="st1" d="M384.8,430.7c0,0.1,0.1,0.1,0.1,0.1C384.8,430.8,384.8,430.8,384.8,430.7
						C384.8,430.8,384.8,430.8,384.8,430.7C384.8,430.8,384.8,430.8,384.8,430.7z"/>
					<path class="st1" d="M368.1,408.2c2.1,2.2,4.2,4.3,6.4,6.5c0.1,0.1,0.1,0.1,0.2,0.1c0,0,0-0.1-0.1-0.1
						C372.4,412.5,370.3,410.4,368.1,408.2c0-0.1-0.1-0.1-0.1-0.1C368,408.1,368.1,408.2,368.1,408.2z"/>
					<path class="st1" d="M382.9,425.4C382.8,425.4,382.8,425.4,382.9,425.4c0,0.1,0.1,0.2,0.1,0.2c0.1,0,0.1,0,0,0
						C383,425.6,382.9,425.5,382.9,425.4z"/>
					<path class="st1" d="M381.4,426c-0.3-0.3-0.6-0.5-0.9-0.8c-0.1,0-0.1-0.1-0.1-0.1c0,0-0.1,0-0.2-0.1c-2.3-1.9-4.7-4.1-7-6.3
						c0,0-0.1,0-0.1,0c-0.2-0.1-0.6-0.4-0.9-0.7l-0.2-0.3c-1-1-1.9-2-2.9-3c-0.2-0.2-0.5-0.4-0.7-0.6c-0.9-0.8-1.8-1.6-2.8-2.4
						c0,0.1,0.1,0.1,0,0.1c-0.1,0-0.3-0.1-0.5-0.4l-0.4-0.4l1,1.1l0.1,0.1c0.4,0.4,0.8,0.7,1.1,1.1c3.4,3.3,6.8,6.2,10.1,9.2
						c0.1,0,0.1,0.1,0.2,0.2c0,0,0,0.1-0.1,0c-2.2-1.7-4.2-3.1-6.6-5.2c-2.8-2.5-5.6-4.9-8.5-7.5c-1.1-1-2.1-2.1-3.2-3l4.6-4.7
						c1.8,1.7,3.6,3.3,5.5,5.1c4.1,3.8,7.8,7.4,11.7,11.2c1.5,1.4,2.6,2.9,2.5,3.4c-0.1,0.3-0.5,0.1-1.2-0.4l0.3,0.4l0.5,0.6
						c0.5,0.6,0.9,1.1,1.1,1.4l0.3,0.5c0.3,0.7,1,1.7,1.2,2.4l-0.2,0l0.1,0.1c0.3,0.4,0.4,0.7,0.4,0.9l-0.1,0.1
						c-0.2,0.1-0.5,0-0.8-0.2c0,0.1-0.1,0.1-0.2,0c0.1,0.3,0.1,0.6-0.2,0.5c0.1,0.2,0,0.2-0.2,0.1c-0.1,0-0.1-0.1-0.2-0.2l0,0
						c0,0.1,0.1,0.1,0.1,0.3c0.1,0.1,0.2,0.2,0.2,0.2c0.3,0.4,0.3,0.4,0.6,0.7c0.2,0.3,0.3,0.5,0.3,0.5c0.1,0.5,0.1,0.5,0,0.5
						l-0.1,0c0.2,0.3,0.2,0.3,0.3,0.4c0.1,0.1,0.1,0.1,0.1,0.1c0,0.1,0,0.1,0,0.1c0,0,0,0,0,0c-0.2-0.1-0.2-0.1-0.2-0.1
						c0,0-0.1-0.1-0.1-0.1c-0.2-0.1-0.2-0.2-0.3-0.2c-0.2-0.4-0.2-0.4-0.2-0.4c-0.1,0-0.1,0-0.1,0c0-0.1,0-0.1,0-0.1
						c0,0.1,0,0.1,0,0.1c-0.1-0.2-0.1-0.2-0.1-0.2c0.2,0.2,0.2,0.2,0.2,0.2c-0.4-0.4-0.4-0.4-0.5-0.6c-0.2-0.2-0.3-0.3-0.3-0.3
						c0,0,0,0,0,0c-0.4-0.4-0.4-0.4-0.8-0.9c0,0,0-0.1-0.1-0.1c-0.1,0-0.1-0.1-0.2-0.2l-0.2-0.2l-0.1,0l0,0
						c-0.1-0.1-0.1-0.1-0.2-0.2c0,0,0,0,0,0l0,0c-0.1-0.1-0.3-0.3-0.9-0.7c-0.1-0.1-0.2-0.3-0.3-0.4l0.1,0.1c0.1,0.1,0,0.1,0,0.1
						c0.8,1,1.8,2,2.7,3c0.2,0.2,0.3,0.4,0.3,0.4c0,0.1-0.2,0-0.4-0.2c-2.2-1.7-4.6-4.2-6.5-6.4l-1.6-1.7l0.1,0.1l-0.4-0.4l0,0
						l0.2,0.4l0.2,0.2c1.2,1.3,2.3,2.5,3.4,3.8c0.6,0.7,1.1,1.3,1.7,2c0.2,0.2,0.2,0.3,0.2,0.3c0,0-0.2-0.1-0.4-0.3
						c-2.1-2-4.4-4.4-5.8-6.3c-0.4-0.4-0.7-0.8-1-1.1l0,0l0.2,0.3c-0.3-0.3-0.4-0.5-0.6-0.8l0,0.2c-1.3-1.4-2.9-2.9-4-4.3l-0.1-0.2
						c-0.6-0.5-1.2-1-1.9-1.6c0.2,0.2,0.4,0.5,0.6,0.7c-0.5-0.4-1-0.9-1.5-1.4c-1.4-1.4-2.8-3-3.3-4l-3.4-3.3l3.4-3.4
						c1.6,1.5,3.1,3,4.7,4.5c0.1,0.1,0.2,0.3,0.2,0.3c0,0-0.1,0-0.3-0.2c-1.6-1.5-3.3-3-4.9-4.5l-3,3.1l1.1,1.1
						c-0.4-0.4-0.7-0.7-1.1-1.1l2.9-2.9c1.2,1.3,2.5,2.6,3.8,3.9l0.7,0.6c0.2,0.2,0.4,0.4,0.6,0.6c2.1,2.1,4.1,4.1,6.4,6.2
						c1.9,1.8,3.6,3.3,5.5,5.1c2.7,2.5,5.2,4.7,7.8,7.2c0.3,0.3,0.6,0.7,0.6,0.8c0,0.1-0.3-0.1-0.7-0.4
						c-5.6-5.1-11.1-10.1-16.6-15.6c-0.6-0.6-1.2-1.2-1.8-1.8c0,0,0,0,0,0c0,0-0.1,0-0.2-0.1c0.7,0.7,1.3,1.4,2,2
						c2,1.8,3.9,3.6,5.9,5.6c1.4,1.4,2.5,2.7,3.7,4c1.7,1.6,3.3,3.1,5,4.7c0.1,0.1,0.1,0.1,0.1,0.2c0,0,0,0-0.1,0
						c-1.2-1-2.4-2.1-3.6-3.2c0.1,0.2,0.2,0.4,0.1,0.4c-0.1,0-0.3,0-0.5-0.2l0.8,0.8c0.2,0.2,0.3,0.3,0.2,0.3c0,0-0.2-0.1-0.3-0.2
						l-3.2-3.2c-1.3-1.3-2.6-2.5-4-3.7c0.1,0.2,0.2,0.4,0.2,0.5l0,0l0.6,0.6c3.8,3.4,7.6,7,11.4,10.8c0.1,0.1,0.1,0.1,0.1,0.2
						c0,0-0.1,0-0.1-0.1c-1.1-1.1-2.3-2.3-3.4-3.4l0,0c0,0.1,0,0.1,0,0c-0.1,0-0.1-0.1-0.2-0.2c0-0.1,0-0.1,0,0
						c-2.1-2.1-4.3-4.1-6.4-6c1.9,1.9,3.9,3.8,5.7,5.7l0.7,0.6c0.1,0.1,0.1,0.1,0.1,0.2c0,0-0.1,0-0.1-0.1l-0.2-0.2
						c0.4,0.4,0.6,0.7,0.5,0.8c-0.1,0.1-0.5-0.2-0.8-0.6c-1-1-2-2-3-3l-0.3-0.3l-0.4-0.3c1.5,1.6,3.1,3.2,4.6,4.7
						c0.1,0.1,0.2,0.3,0.2,0.3c0,0-0.2-0.1-0.3-0.2c-2.8-2.6-5.7-5.3-8.5-8c-1-0.8-2.1-1.6-3.1-2.4l0.4,0.4c3,3,5.9,5.2,8.9,8
						c0.1,0.1,0.1,0.1,0.1,0.2c0,0-0.1,0-0.1-0.1c-1.5-1.4-2.9-2.5-4.4-3.9c-1.2-1.1-2.4-2.1-3.6-3.1c2.3,2.2,4.5,4.2,6.8,6.3
						c0.1,0.1,0.2,0.2,0.2,0.3c0,0,0,0,0.1,0c0.3,0.2,0.6,0.5,1,0.8c0.1,0.1,0.1,0.1,0.2,0.2C381.5,426.1,381.5,426.1,381.4,426z
						 M378.2,423.3C378.2,423.3,378.2,423.3,378.2,423.3c0,0-0.1-0.1-0.1-0.1c0,0,0,0-0.2-0.4C377.9,422.7,378,423,378.2,423.3z
						 M382,426.3L382,426.3c0.1,0.1,0.1,0.2,0.1,0.2C382,426.4,382,426.3,382,426.3z M363,403.8l-0.5-0.5l-2.7,2.8c1,1,2,2,2.9,3
						l-0.9-0.8c-0.7-0.7-1.4-1.5-2.1-2.2l2.8-2.8L363,403.8z M380.1,425.9c-0.3-0.4-0.4-0.7-0.6-1c-0.2-0.2-0.4-0.4-0.6-0.6
						c-0.6-0.6-1.1-1.1-1.7-1.7c0,0.1-0.1,0-0.2-0.1l-0.2-0.2c0.6,0.6,1.1,1.2,1.7,1.9C379,424.8,379.6,425.4,380.1,425.9z
						 M384.3,429.9L384.3,429.9c0,0.1,0,0.1-0.1,0C384.2,429.9,384.3,429.9,384.3,429.9z M384.6,429.9L384.6,429.9
						C384.6,429.8,384.6,429.9,384.6,429.9z M383.9,429.1c0,0.1,0.1,0.1,0.1,0.1C383.9,429.1,383.9,429.1,383.9,429.1z M384.9,426.9
						l-0.6,0L384.9,426.9L384.9,426.9z"/>
				</g>
			</g>
		</g>
	</g>
</g>
<g>
	<g>
		<g>
			<g>
				<path class="st1" d="M278.8,450.7c0-0.1,0-0.1,0-0.2c0,0.1,0,0.3,0,0.5c0.4-2,0.2-4.6-0.1-6.3c0-0.6-0.1-1.1-0.2-1.2
					c-0.1-0.1-0.2,0.4-0.3,1c0,0.1,0,0.3-0.1,0.4c-0.2,0.9-0.4,1.9-0.5,3.1l0.1-0.7c0,0.3-0.1,0.7-0.1,1.1l0.1-0.1
					c-0.2,1.2-0.2,2.8,0.1,3.6c0.2,0.8,0.6,0.5,0.8-0.6L278.8,450.7z"/>
				<path class="st1" d="M279.5,448.5c-0.1,0.7-0.2,1.4-0.3,2l0,0.1l0.2,0l0,0c-0.2-0.6-0.2-1.7-0.2-2.6l0-0.3
					c0-0.2-0.1-0.3-0.1-0.3c-0.1-0.1-0.2,0.2-0.2,0.7l0,0.5c-0.1,1.3-0.2,3.2,0.1,3.9c0.1,0.2,0.2,0,0.3,0c0.1,0.1,0.3-0.4,0.3-1
					c0-0.6-0.1-1.2-0.2-1.2l0-0.3c0,0.1,0,0.2,0,0.3c-0.1-0.2-0.1-0.8-0.2-1.2l0-0.6l-0.3,0.4l0,0.3c0,0,0-0.1,0-0.1
					c0.1,0.6,0.1,1.2,0.2,1.9l0.1,0.9c0.1,0.2,0.1,0.2,0.2,0l0.1-0.4c0,0.1,0,0.1,0,0.2c0.1-0.9,0.2-1.8,0.2-2.7c0-0.1,0-0.3,0-0.4
					C279.6,448.3,279.6,448.4,279.5,448.5z"/>
				<g>
					<path class="st1" d="M279.5,451.6c0,0.1-0.1,0.3-0.1,0.5c0,0.1,0,0.1,0,0.1c0-0.1,0-0.2,0.1-0.3
						C279.6,451.7,279.6,451.6,279.5,451.6z"/>
					<path class="st1" d="M279.5,452.2c0,0.1,0,0.1,0,0.1C279.5,452.3,279.5,452.3,279.5,452.2C279.5,452.2,279.5,452.2,279.5,452.2
						C279.5,452.2,279.5,452.2,279.5,452.2z"/>
					<path class="st1" d="M284.3,427.1c-0.1,2.8-0.2,5.5-0.3,8.3c0,0.1,0,0.2,0,0.2c0,0,0-0.1,0-0.2
						C284.2,432.6,284.3,429.9,284.3,427.1c0.1-0.1,0.1-0.1,0-0.1C284.4,426.9,284.4,427,284.3,427.1z"/>
					<path class="st1" d="M282,447.6C282,447.6,282,447.6,282,447.6c-0.1,0.1-0.1,0.2-0.1,0.2c0,0.1,0,0.1,0,0
						C282,447.8,282,447.7,282,447.6z"/>
					<path class="st1" d="M280.6,447c0-0.4,0-0.8-0.1-1.1c0-0.1,0-0.1,0-0.2c0,0-0.1-0.1-0.1-0.2c-0.2-2.7-0.2-5.7-0.3-8.6
						c0,0,0-0.1-0.1-0.1c-0.1-0.2-0.1-0.6-0.1-1l0-0.3c0.1-1.3,0.1-2.5,0.2-3.8c0-0.3,0-0.6,0-0.9c-0.1-1.1-0.1-2.2-0.2-3.3
						c0,0.1,0,0.1-0.1,0.1c-0.1,0-0.1-0.3-0.1-0.6l0-0.5c0,0.4-0.1,0.9-0.1,1.3c0,0.1,0,0.1,0,0.2c0,0.5,0,1,0,1.5
						c0,4.3,0.1,8.4,0.3,12.5c0,0.1,0,0.2,0,0.2c0,0,0,0,0,0c-0.3-2.6-0.7-4.8-0.8-7.6c-0.2-3.4-0.3-6.8-0.4-10.3c0-1.4,0-2.7,0-4
						l6.6,0.1c0,2.2,0,4.5,0.1,6.8c0.1,5.1,0,9.8-0.1,14.8c0,1.9-0.3,3.5-0.7,3.8c-0.2,0.1-0.4-0.3-0.6-1.1l0,0.5l-0.1,0.7
						c-0.1,0.7-0.2,1.3-0.3,1.6l-0.2,0.5c-0.3,0.7-0.6,1.7-0.9,2.3l-0.1-0.1l0,0.1c-0.1,0.4-0.2,0.7-0.3,0.8l-0.1,0
						c-0.2-0.1-0.3-0.3-0.5-0.7c-0.1,0-0.1,0-0.2-0.1c-0.2,0.3-0.3,0.4-0.5,0.2c0,0.2-0.1,0.1-0.1-0.1c0-0.1,0-0.2,0-0.2l0,0
						c0,0.1-0.1,0.1-0.1,0.3c0,0.2,0,0.3,0,0.3c0,0.5,0,0.5-0.1,0.9c-0.1,0.3-0.1,0.6-0.1,0.6c-0.3,0.4-0.3,0.4-0.4,0.3l0-0.1
						c0,0.3,0,0.3-0.1,0.4c0,0.1,0,0.1,0,0.1c-0.1,0-0.1,0-0.1,0.1c0,0,0,0,0,0c-0.1-0.2-0.1-0.2-0.1-0.2c0,0,0-0.1,0-0.1
						c0-0.2,0-0.3,0-0.3c0.2-0.4,0.2-0.4,0.2-0.4c-0.1-0.1-0.1-0.1-0.1-0.1c0.1-0.1,0.1-0.1,0.1-0.1c-0.1,0.1-0.1,0.1-0.1,0.1
						c0-0.2,0-0.2,0-0.2c-0.1,0.2-0.1,0.2-0.1,0.2c0-0.5,0-0.5,0-0.7c0-0.2,0-0.4,0-0.4c0,0,0,0,0,0c0-0.5,0-0.5,0.1-1.1l0-0.1
						c0-0.1,0-0.2,0-0.3l0-0.3l0-0.1l0,0c0-0.1,0-0.2,0-0.2c0,0,0,0,0,0l0,0c0-0.2,0-0.4-0.1-1c0-0.2,0-0.3,0-0.5l0,0.1
						c0,0.1-0.1,0-0.1,0.1c-0.1,1.2-0.2,2.5-0.3,3.7c0,0.2,0,0.4-0.1,0.5c0,0-0.1-0.1-0.1-0.4c-0.3-2.6-0.1-5.7,0.2-8.3
						c0-0.7,0.1-1.4,0.1-2.1l0,0.1l0.1-0.5l0-0.1l-0.1,0.4l0,0.3c-0.1,1.6-0.3,3.1-0.4,4.6c-0.1,0.8-0.2,1.6-0.3,2.4
						c0,0.2-0.1,0.3-0.1,0.3c0,0-0.1-0.2-0.1-0.4c0-2.7,0.1-5.7,0.5-7.8c0-0.5,0.1-1,0.1-1.3l0,0l-0.1,0.3c0-0.4,0.1-0.6,0.1-0.9
						l-0.1,0.1c0.1-1.8,0.1-3.7,0.3-5.4l0-0.2c-0.1-0.7-0.1-1.4-0.1-2.3c0,0.3,0,0.6-0.1,0.9c0-0.6-0.1-1.2,0-1.9
						c0-1.8,0.3-3.8,0.6-4.7l0-4.3l4.8,0.1c0,2,0,4,0,6c0,0.2,0,0.3-0.1,0.4c0,0-0.1-0.1-0.1-0.3c-0.1-2-0.1-4-0.1-6.1l-4.3-0.1
						l0,1.4c0-0.5,0-0.9,0.1-1.4l4.1,0.1c-0.1,1.6-0.2,3.3-0.2,4.9l0,0.8c0,0.3,0,0.5,0,0.8c-0.1,2.7-0.1,5.3-0.1,8.1
						c0,2.4,0.1,4.5,0.1,6.9c0.1,3.3,0.2,6.4,0.1,9.7c0,0.4-0.1,0.8-0.2,0.9c-0.1,0.1-0.2-0.3-0.2-0.7c-0.1-6.9-0.3-13.7-0.1-20.9
						c0-0.8,0-1.5,0.1-2.3c0,0,0,0,0,0c-0.1,0-0.1-0.1-0.1-0.2c0,0.9-0.1,1.7-0.1,2.6c0.1,2.4,0.1,4.9,0,7.4c-0.1,1.8-0.2,3.4-0.4,5
						c0,2.1,0,4.2,0,6.3c0,0.1,0,0.2,0,0.2c0,0,0,0,0-0.1c-0.1-1.4-0.1-2.9-0.2-4.4c-0.1,0.2-0.1,0.4-0.2,0.4
						c-0.1,0-0.2-0.2-0.2-0.5l0,1c0,0.2,0,0.4-0.1,0.4c0,0-0.1-0.2-0.1-0.4l0.1-4.1c0-1.7,0-3.3,0-5c-0.1,0.2-0.1,0.4-0.2,0.5l0,0
						l0,0.8c0.1,4.7,0.2,9.5,0,14.3c0,0.1,0,0.2,0,0.2c0,0,0-0.1,0-0.2c0-1.5,0.1-2.9,0.1-4.4l0,0c0,0.1,0,0.1,0,0
						c0-0.1,0-0.2,0-0.2c0-0.1,0-0.1,0,0c0-2.7,0-5.4-0.1-8c0,2.5-0.1,4.9-0.2,7.4l0.1,0.8c0,0.1,0,0.2,0,0.2c0,0,0,0,0-0.1l0-0.2
						c0,0.5-0.1,0.8-0.2,0.8c-0.1,0-0.2-0.4-0.2-0.9c0-1.3,0-2.6,0-3.9l0-0.4l0-0.4c-0.1,2-0.2,4-0.3,6c0,0.2,0,0.3-0.1,0.3
						c0,0-0.1-0.1-0.1-0.3c-0.1-3.5-0.1-7.1-0.1-10.6c-0.1-1.2-0.3-2.4-0.4-3.6l0,0.5c-0.1,3.9,0.3,7.2,0.3,10.9c0,0.1,0,0.2,0,0.2
						c0,0,0-0.1,0-0.1c0-1.8-0.1-3.5-0.2-5.3c-0.1-1.5-0.1-2.9-0.2-4.3c0,2.9,0.1,5.6,0.1,8.5c0,0.1,0,0.2,0,0.3c0,0,0,0,0,0.1
						c0,0.4,0.1,0.7,0.1,1.1C280.6,447,280.6,447.1,280.6,447C280.6,447.2,280.6,447.1,280.6,447z M280.4,443.1
						C280.4,443.2,280.3,443.2,280.4,443.1c0,0,0-0.1,0-0.2c0,0,0,0,0.2-0.3C280.5,442.6,280.5,442.9,280.4,443.1z M280.8,447.5
						L280.8,447.5c0,0.1-0.1,0.2-0.1,0.2C280.8,447.7,280.8,447.6,280.8,447.5z M284,420.9l0-0.6l-3.9-0.1c0,1.3-0.1,2.6-0.2,3.8
						l0-1.1c0.1-0.9,0.1-1.8,0.2-2.7l3.9,0.1C284,420.5,284,420.7,284,420.9z M279.7,446.1c0.1-0.4,0.2-0.7,0.3-1c0-0.3,0-0.5,0-0.8
						c0-0.7,0.1-1.5,0.1-2.2c-0.1,0.1,0-0.1,0-0.2l0-0.3c-0.1,0.8-0.1,1.5-0.2,2.3C279.9,444.7,279.8,445.4,279.7,446.1z
						 M279.8,451.4L279.8,451.4C279.8,451.4,279.8,451.4,279.8,451.4C279.7,451.3,279.8,451.3,279.8,451.4z M280,451.6l0-0.1
						C280,451.5,280,451.6,280,451.6z M280.1,450.6c0,0.1,0,0.1,0,0.1C280.1,450.6,280.1,450.6,280.1,450.6z M282.3,449.9l-0.4-0.4
						L282.3,449.9L282.3,449.9z"/>
				</g>
			</g>
		</g>
	</g>
</g>
<g>
	<g>
		<g>
			<g>
				<path class="st1" d="M186.9,432.4c0,0,0.1-0.1,0.1-0.1c0,0.1-0.1,0.2-0.3,0.4c1.4-1.4,2.7-3.5,3.4-5c0.4-0.5,0.6-0.9,0.5-1.1
					c-0.1-0.1-0.4,0.2-0.8,0.6c-0.1,0.1-0.2,0.2-0.3,0.3c-0.7,0.6-1.4,1.3-2.1,2.2l0.5-0.5c-0.2,0.2-0.4,0.5-0.6,0.8l0.1-0.1
					c-0.8,0.8-1.7,2.1-1.9,2.9c-0.3,0.8,0.2,0.7,1-0.1L186.9,432.4z"/>
				<path class="st1" d="M188.8,431.2c-0.5,0.5-0.9,1-1.4,1.4l-0.1,0.1l0.2,0.1l0,0c0.2-0.6,0.8-1.4,1.3-2.2l0.2-0.3
					c0.1-0.1,0.1-0.2,0.1-0.3c0-0.1-0.3,0.1-0.5,0.4l-0.3,0.4c-0.8,0.9-1.9,2.4-2,3.2c0,0.2,0.1,0.1,0.2,0.1
					c0.1,0.1,0.4-0.2,0.8-0.7c0.4-0.5,0.6-1,0.5-1.1l0.2-0.2c0,0.1-0.1,0.1-0.1,0.2c0-0.2,0.3-0.7,0.5-1l0.3-0.5l-0.4,0.1l-0.2,0.3
					c0,0,0.1,0,0.1,0c-0.3,0.5-0.6,1.1-0.9,1.6l-0.4,0.7c-0.1,0.2,0,0.3,0.2,0.1l0.3-0.3c0,0-0.1,0.1-0.1,0.1c0.6-0.7,1.1-1.3,1.7-2
					c0.1-0.1,0.2-0.2,0.2-0.3C188.9,431,188.9,431.1,188.8,431.2z"/>
				<g>
					<path class="st1" d="M187,433.6c-0.1,0.1-0.2,0.2-0.3,0.4c0,0,0,0.1,0,0.1c0.1-0.1,0.1-0.1,0.2-0.2
						C187.1,433.8,187.1,433.7,187,433.6z"/>
					<path class="st1" d="M186.7,434.1C186.7,434.1,186.6,434.2,186.7,434.1L186.7,434.1C186.7,434.1,186.7,434.1,186.7,434.1
						C186.7,434.1,186.7,434.1,186.7,434.1z"/>
					<path class="st1" d="M204.4,417c-1.6,2.1-3.2,4.2-4.8,6.4c-0.1,0.1-0.1,0.1-0.1,0.2c0,0,0.1,0,0.1-0.1
						C201.3,421.3,202.9,419.1,204.4,417c0.1,0,0.1-0.1,0.1-0.1C204.5,416.8,204.5,416.9,204.4,417z"/>
					<path class="st1" d="M191.3,431.9C191.3,431.9,191.3,431.8,191.3,431.9c-0.1,0-0.1,0.1-0.2,0.2c0,0.1,0,0.1,0,0
						C191.2,432,191.3,432,191.3,431.9z"/>
					<path class="st1" d="M190.4,430.6c0.2-0.3,0.4-0.6,0.5-0.9c0-0.1,0.1-0.1,0.1-0.1c0,0,0-0.1,0-0.2c1.3-2.3,2.9-4.6,4.5-7
						c0,0,0-0.1,0-0.1c0.1-0.2,0.2-0.5,0.5-0.9l0.2-0.2c0.8-1,1.5-1.9,2.3-2.9c0.1-0.2,0.3-0.5,0.4-0.7c0.5-0.9,1.1-1.8,1.7-2.7
						c-0.1,0-0.1,0.1-0.1,0c0-0.1,0.1-0.3,0.2-0.5l0.3-0.4l-0.8,1c0,0-0.1,0.1-0.1,0.1c-0.3,0.4-0.5,0.8-0.8,1.1
						c-2.4,3.4-4.5,6.7-6.5,10c0,0.1-0.1,0.1-0.1,0.2c0,0,0,0,0-0.1c1.2-2.2,2.1-4.1,3.5-6.5c1.7-2.8,3.5-5.6,5.3-8.4
						c0.8-1.1,1.5-2.1,2.2-3.1l5.4,3.9c-1.2,1.8-2.4,3.6-3.7,5.4c-2.7,4-5.4,7.8-8.2,11.6c-1,1.5-2.2,2.6-2.6,2.6
						c-0.3,0-0.2-0.5,0.1-1.2l-0.3,0.3l-0.4,0.5c-0.4,0.5-0.8,0.9-1.1,1.1l-0.4,0.3c-0.6,0.3-1.4,1-2,1.3l0-0.2l-0.1,0.1
						c-0.3,0.3-0.6,0.4-0.7,0.4l-0.1-0.1c-0.1-0.2-0.1-0.4,0-0.8c-0.1,0-0.1-0.1-0.1-0.2c-0.3,0.1-0.5,0.2-0.5-0.1
						c-0.1,0.1-0.2,0.1-0.1-0.1c0-0.1,0.1-0.1,0.1-0.2l0,0c-0.1,0.1-0.1,0.1-0.2,0.1c-0.1,0.1-0.2,0.2-0.2,0.2
						c-0.3,0.3-0.3,0.3-0.5,0.6c-0.2,0.2-0.4,0.4-0.4,0.4c-0.4,0.1-0.4,0.1-0.5,0l0-0.1c-0.2,0.2-0.2,0.2-0.3,0.3
						c-0.1,0.1-0.1,0.1-0.1,0.1c-0.1,0-0.1,0-0.1,0c0,0,0,0,0,0c0-0.2,0-0.2,0-0.2c0,0,0-0.1,0-0.1c0.1-0.2,0.1-0.2,0.2-0.3
						c0.4-0.2,0.4-0.2,0.4-0.2c0-0.1,0-0.1,0-0.1c0.1,0,0.1,0,0.1,0c-0.1,0-0.1,0-0.1,0c0.2-0.1,0.2-0.1,0.2-0.1
						c-0.2,0.2-0.2,0.2-0.2,0.2c0.3-0.4,0.3-0.4,0.4-0.5c0.1-0.2,0.2-0.3,0.2-0.3c0,0,0,0,0,0c0.3-0.4,0.3-0.4,0.7-0.8l0.1-0.1
						c0-0.1,0.1-0.1,0.1-0.2l0.2-0.2l0-0.1l0,0c0-0.1,0.1-0.1,0.1-0.2c0,0,0,0,0,0l0,0c0.1-0.1,0.2-0.3,0.5-0.9
						c0.1-0.1,0.2-0.2,0.3-0.3l-0.1,0.1c-0.1,0.1-0.1,0-0.1,0c-0.8,0.8-1.5,1.8-2.3,2.8c-0.1,0.2-0.3,0.3-0.3,0.3
						c-0.1,0,0-0.2,0.1-0.3c1.2-2.2,3-4.6,4.7-6.5c0.4-0.5,0.8-1.1,1.2-1.6l-0.1,0.1l0.3-0.4l0,0l-0.3,0.3l-0.2,0.2
						c-0.9,1.2-1.9,2.3-2.9,3.4c-0.5,0.6-1,1.1-1.5,1.7c-0.1,0.2-0.2,0.2-0.3,0.2c0,0,0.1-0.2,0.2-0.4c1.4-2.1,3.2-4.4,4.7-5.9
						c0.3-0.4,0.6-0.7,0.8-1l0,0l-0.2,0.2c0.2-0.3,0.4-0.4,0.6-0.6l-0.2,0c1.1-1.3,2.1-2.9,3.2-4.1l0.1-0.1c0.3-0.6,0.7-1.2,1.1-1.9
						c-0.2,0.2-0.3,0.4-0.5,0.6c0.3-0.5,0.6-1,1-1.5c1-1.4,2.3-2.8,3.1-3.4l2.4-3.4l3.9,2.8c-1.1,1.6-2.2,3.1-3.3,4.7
						c-0.1,0.1-0.2,0.3-0.3,0.3c0,0,0-0.1,0.1-0.3c1-1.6,2.1-3.2,3.3-4.9l-3.5-2.5l-0.8,1.1c0.3-0.4,0.5-0.7,0.8-1.1l3.4,2.4
						c-1,1.2-1.9,2.5-2.9,3.8l-0.5,0.7c-0.1,0.2-0.3,0.4-0.5,0.6c-1.5,2.1-3,4.1-4.5,6.4c-1.3,1.9-2.4,3.6-3.6,5.5
						c-1.8,2.7-3.3,5.2-5.2,7.7c-0.2,0.3-0.5,0.6-0.6,0.6c-0.1,0,0-0.3,0.2-0.7c3.7-5.5,7.2-11,11.3-16.6c0.4-0.6,0.9-1.2,1.3-1.8
						c0,0,0,0,0,0c0,0,0-0.1,0-0.2c-0.5,0.7-1,1.3-1.5,2c-1.3,2-2.6,3.9-4.1,5.9c-1,1.4-2,2.5-3,3.8c-1.1,1.7-2.3,3.3-3.4,5
						c0,0.1-0.1,0.1-0.1,0.1c0,0,0,0,0-0.1c0.7-1.2,1.5-2.4,2.3-3.6c-0.2,0.1-0.3,0.2-0.4,0.2c-0.1-0.1,0-0.3,0.1-0.5l-0.6,0.8
						c-0.1,0.2-0.2,0.3-0.3,0.2c0,0,0-0.2,0.1-0.3l2.4-3.2c0.9-1.3,1.8-2.6,2.7-3.9c-0.2,0.1-0.3,0.2-0.4,0.3l0,0l-0.4,0.6
						c-2.5,3.8-5.1,7.6-7.8,11.3c-0.1,0.1-0.1,0.1-0.1,0.1c0,0,0-0.1,0.1-0.1c0.8-1.1,1.7-2.3,2.5-3.4l0,0c0,0-0.1,0,0,0
						c0-0.1,0.1-0.1,0.1-0.2c0,0,0.1,0,0,0c1.5-2.1,2.9-4.3,4.3-6.4c-1.4,1.9-2.8,3.9-4.2,5.7l-0.4,0.7c0,0.1-0.1,0.1-0.1,0.1
						c0,0,0,0,0-0.1l0.1-0.2c-0.3,0.4-0.5,0.6-0.6,0.5c-0.1-0.1,0.1-0.4,0.4-0.8c0.7-1,1.4-2,2.2-3l0.2-0.3l0.2-0.4
						c-1.2,1.5-2.3,3.1-3.5,4.6c-0.1,0.1-0.2,0.2-0.2,0.2c0,0,0-0.1,0.1-0.3c1.9-2.8,3.8-5.6,5.7-8.5c0.5-1,1.1-2,1.6-3l-0.3,0.4
						c-2.2,3-3.7,5.8-5.7,8.8c0,0.1-0.1,0.1-0.1,0.1c0,0,0-0.1,0.1-0.1c1-1.5,1.8-2.9,2.7-4.3c0.8-1.2,1.5-2.4,2.2-3.5
						c-1.6,2.3-3,4.5-4.5,6.8c-0.1,0.1-0.1,0.2-0.2,0.2c0,0,0,0,0,0.1c-0.2,0.3-0.3,0.6-0.5,1C190.5,430.6,190.5,430.7,190.4,430.6
						C190.4,430.7,190.4,430.7,190.4,430.6z M192.4,427.4C192.4,427.4,192.3,427.4,192.4,427.4c0,0,0.1-0.1,0.1-0.1c0,0,0,0,0.3-0.2
						C192.8,427.1,192.6,427.2,192.4,427.4z M190.3,431.1L190.3,431.1c-0.1,0.1-0.2,0.1-0.2,0.1
						C190.2,431.2,190.3,431.2,190.3,431.1z M207.5,411.9l0.4-0.5l-3.1-2.3c-0.7,1-1.5,2-2.3,2.9l0.6-0.9c0.5-0.7,1.1-1.4,1.6-2.1
						l3.2,2.3L207.5,411.9z M190.3,429.4c0.3-0.3,0.5-0.4,0.8-0.6c0.1-0.2,0.3-0.4,0.4-0.6c0.4-0.6,0.8-1.1,1.3-1.7
						c-0.1,0,0-0.1,0.1-0.2l0.1-0.2c-0.5,0.6-0.9,1.1-1.4,1.7C191.1,428.3,190.7,428.9,190.3,429.4z M187.5,433.6L187.5,433.6
						c-0.1,0-0.1,0,0-0.1C187.4,433.5,187.4,433.5,187.5,433.6z M187.4,433.9L187.4,433.9C187.5,433.8,187.5,433.9,187.4,433.9z
						 M188.1,433.1c0,0-0.1,0.1-0.1,0.1C188.1,433.1,188.1,433.1,188.1,433.1z M190.3,433.9l-0.1-0.5L190.3,433.9L190.3,433.9z"/>
				</g>
			</g>
		</g>
	</g>
</g>
<g>
	<g>
		<g>
			<g>
				<path class="st1" d="M131.4,366.1c0.1,0,0.1,0,0.2-0.1c-0.1,0.1-0.2,0.2-0.4,0.3c1.8-0.7,3.8-2.1,5-3.2c0.5-0.3,0.9-0.6,0.9-0.8
					c0-0.1-0.4,0-0.9,0.3c-0.1,0.1-0.3,0.1-0.3,0.2c-0.8,0.3-1.8,0.7-2.8,1.2l0.6-0.2c-0.3,0.1-0.6,0.3-0.9,0.5l0.1,0
					c-1,0.4-2.3,1.3-2.8,1.9c-0.5,0.6-0.1,0.8,0.9,0.3L131.4,366.1z"/>
				<path class="st1" d="M133.5,365.7c-0.6,0.3-1.2,0.5-1.8,0.8l-0.1,0l0.1,0.1l0,0c0.4-0.4,1.2-1,2-1.5l0.3-0.2
					c0.1-0.1,0.2-0.2,0.2-0.2c0-0.1-0.3-0.1-0.6,0.2l-0.4,0.2c-1.1,0.5-2.7,1.5-3.1,2.1c-0.1,0.1,0.1,0.2,0.1,0.2c0,0.1,0.5,0,1-0.3
					c0.5-0.3,0.9-0.6,0.9-0.8l0.3-0.1l-0.2,0.2c0.1-0.2,0.5-0.5,0.9-0.7l0.5-0.3l-0.4-0.1l-0.2,0.2c0,0,0.1,0,0.1,0
					c-0.5,0.4-0.9,0.7-1.4,1.1l-0.7,0.5c-0.2,0.2-0.1,0.2,0.1,0.1l0.3-0.1c-0.1,0-0.1,0-0.2,0.1c0.8-0.4,1.5-0.8,2.3-1.2
					c0.1-0.1,0.3-0.1,0.3-0.2C133.7,365.6,133.6,365.6,133.5,365.7z"/>
				<g>
					<path class="st1" d="M131,367.3c-0.1,0.1-0.3,0.1-0.4,0.2c0,0,0,0.1-0.1,0.1c0.1,0,0.2-0.1,0.3-0.1
						C130.9,367.4,131,367.3,131,367.3z"/>
					<path class="st1" d="M130.5,367.5c-0.1,0-0.1,0-0.1,0C130.4,367.6,130.4,367.6,130.5,367.5
						C130.5,367.6,130.5,367.5,130.5,367.5C130.5,367.5,130.5,367.5,130.5,367.5z"/>
					<path class="st1" d="M153.3,358.9c-2.3,1.3-4.5,2.6-6.8,3.9c-0.1,0-0.1,0.1-0.1,0.1c0,0,0.1,0,0.1,0
						C148.7,361.6,151,360.3,153.3,358.9c0.1,0,0.1,0,0.1,0C153.4,358.8,153.4,358.9,153.3,358.9z"/>
					<path class="st1" d="M135.5,367.4C135.6,367.3,135.6,367.3,135.5,367.4c-0.1,0-0.2,0-0.2,0.1c0,0,0,0.1,0,0
						C135.4,367.5,135.5,367.4,135.5,367.4z"/>
					<path class="st1" d="M135.2,365.8c0.3-0.2,0.6-0.4,0.8-0.6c0,0,0.1-0.1,0.1-0.1c0,0,0-0.1,0.1-0.2c2.1-1.6,4.5-3.1,6.7-4.6
						c0,0,0-0.1,0.1-0.1c0.1-0.2,0.4-0.4,0.8-0.6l0.3-0.1c1.1-0.6,2.1-1.2,3.2-1.8c0.2-0.2,0.4-0.3,0.7-0.5c0.8-0.6,1.7-1.2,2.6-1.8
						c-0.1,0-0.1,0-0.1,0c0-0.1,0.2-0.2,0.4-0.4l0.4-0.2c-0.4,0.2-0.7,0.4-1.1,0.6c0,0-0.1,0-0.1,0.1c-0.4,0.2-0.8,0.5-1.2,0.7
						c-3.5,2.2-6.7,4.4-9.8,6.6c0,0-0.1,0.1-0.2,0.1c0,0,0,0,0-0.1c1.9-1.5,3.5-3,5.7-4.6c2.7-1.9,5.3-3.7,8.1-5.6
						c1.1-0.7,2.2-1.3,3.2-2l3.4,5.7c-1.8,1.1-3.6,2.3-5.4,3.5c-4,2.6-7.9,5-11.9,7.4c-1.5,1-3,1.5-3.4,1.3c-0.2-0.1,0-0.5,0.5-1
						l-0.4,0.2l-0.6,0.3c-0.6,0.3-1.1,0.5-1.5,0.6l-0.5,0.1c-0.7,0.1-1.7,0.4-2.3,0.4l0-0.2l-0.1,0c-0.4,0.1-0.7,0.2-0.8,0.1l0-0.1
						c0-0.2,0.1-0.4,0.3-0.7c0,0,0-0.1,0-0.2c-0.3,0-0.5-0.1-0.4-0.3c-0.2,0-0.2,0,0-0.2c0.1,0,0.1-0.1,0.2-0.1l0,0
						c-0.1,0-0.1,0-0.3,0c-0.1,0.1-0.2,0.1-0.2,0.1c-0.4,0.2-0.4,0.2-0.7,0.4c-0.3,0.1-0.5,0.2-0.5,0.2c-0.4,0-0.4,0-0.5-0.2l0-0.1
						c-0.3,0.1-0.3,0.1-0.4,0.2c-0.1,0-0.1,0-0.1,0c0,0,0,0-0.1,0c0,0,0,0,0,0c0.1-0.1,0.1-0.1,0.1-0.2c0,0,0.1-0.1,0.1-0.1
						c0.2-0.1,0.2-0.2,0.2-0.2c0.4-0.1,0.4-0.1,0.4-0.1c0-0.1,0-0.1,0-0.1c0.1,0,0.1,0,0.1,0c-0.1,0-0.1,0-0.1,0
						c0.2-0.1,0.2-0.1,0.2-0.1c-0.2,0.1-0.2,0.1-0.2,0.1c0.4-0.2,0.4-0.2,0.6-0.3c0.2-0.1,0.3-0.2,0.3-0.2c0,0,0,0,0,0
						c0.5-0.2,0.5-0.2,0.9-0.5l0.1,0c0,0,0.1-0.1,0.2-0.1l0.2-0.1l0,0l0,0c0.1-0.1,0.1-0.1,0.2-0.1c0,0,0,0,0,0l0,0
						c0.1-0.1,0.3-0.2,0.8-0.6c0.1-0.1,0.3-0.1,0.4-0.2l-0.1,0c-0.1,0,0-0.1-0.1,0c-1,0.5-2.1,1.1-3.2,1.6c-0.2,0.1-0.4,0.2-0.4,0.2
						c0,0,0.1-0.1,0.2-0.3c1.9-1.5,4.5-3,6.8-4.1c0.6-0.3,1.2-0.6,1.7-1l-0.1,0l0.5-0.2l0,0l-0.4,0.1l-0.2,0.1
						c-1.3,0.8-2.6,1.3-3.9,2c-0.7,0.4-1.4,0.6-2,1c-0.2,0.1-0.3,0.1-0.3,0.1c0,0,0.1-0.2,0.3-0.3c2.1-1.4,4.6-2.8,6.5-3.5
						c0.4-0.2,0.8-0.4,1.1-0.6l0,0l-0.3,0.1c0.3-0.2,0.5-0.2,0.8-0.3l-0.2,0c1.5-0.8,3-1.8,4.5-2.4l0.2-0.1c0.5-0.4,1.1-0.8,1.8-1.3
						c-0.2,0.1-0.5,0.3-0.7,0.4c0.5-0.3,0.9-0.7,1.5-1c1.5-0.9,3.2-1.7,4.1-1.9l3.5-2.2l2.5,4.1c-1.6,1-3.2,2-4.8,3
						c-0.1,0.1-0.3,0.1-0.3,0.1c0,0,0-0.1,0.2-0.2c1.6-1.1,3.2-2.1,4.8-3.2l-2.2-3.7l-1.1,0.7c0.4-0.2,0.8-0.4,1.2-0.6l2.1,3.6
						c-1.4,0.8-2.7,1.5-4.1,2.3l-0.7,0.4c-0.2,0.1-0.4,0.3-0.7,0.4c-2.2,1.3-4.4,2.6-6.6,4c-1.9,1.2-3.6,2.3-5.4,3.6
						c-2.6,1.8-5,3.4-7.7,5c-0.4,0.2-0.7,0.4-0.8,0.3c-0.1-0.1,0.1-0.3,0.5-0.5c5.5-3.6,10.8-7.2,16.7-10.7c0.6-0.4,1.3-0.7,1.9-1.1
						c0,0,0,0,0,0c0,0,0-0.1,0.1-0.2c-0.7,0.4-1.4,0.8-2.2,1.2c-1.9,1.3-3.8,2.6-6,3.8c-1.5,0.8-2.8,1.5-4.2,2.2
						c-1.7,1.1-3.3,2.1-5,3.2c-0.1,0-0.1,0.1-0.2,0.1c0,0,0,0,0.1-0.1c1.1-0.8,2.3-1.6,3.5-2.4c-0.2,0.1-0.4,0.1-0.4,0
						c0-0.1,0.1-0.2,0.3-0.4l-0.8,0.5c-0.2,0.1-0.3,0.2-0.3,0.1c0,0,0.1-0.2,0.3-0.2l3.4-2c1.3-0.8,2.7-1.7,4-2.5
						c-0.2,0.1-0.4,0.1-0.5,0.1l0,0l-0.6,0.4c-3.7,2.5-7.5,5-11.5,7.3c-0.1,0-0.1,0.1-0.2,0.1c0,0,0-0.1,0.1-0.1
						c1.2-0.7,2.4-1.4,3.6-2.1l0,0c-0.1,0-0.1,0,0,0c0,0,0.1-0.1,0.2-0.1c0.1,0,0.1,0,0,0c2.2-1.4,4.3-2.7,6.4-4.1
						c-2,1.2-4,2.4-6,3.6l-0.6,0.5c-0.1,0-0.1,0.1-0.2,0.1c0,0,0,0,0.1-0.1l0.2-0.1c-0.4,0.2-0.7,0.3-0.8,0.2c0-0.1,0.3-0.4,0.6-0.6
						c1.1-0.6,2.1-1.3,3.1-1.9l0.3-0.2l0.3-0.2c-1.7,0.9-3.3,1.9-5,2.8c-0.1,0.1-0.3,0.1-0.3,0.1c0,0,0.1-0.1,0.2-0.2
						c2.8-1.8,5.6-3.7,8.5-5.5c0.9-0.7,1.8-1.4,2.6-2.1l-0.4,0.2c-3.2,1.9-5.6,3.9-8.6,5.8c-0.1,0-0.1,0.1-0.2,0.1
						c0,0,0-0.1,0.1-0.1c1.5-0.9,2.7-1.9,4.2-2.9c1.2-0.8,2.3-1.6,3.4-2.4c-2.3,1.4-4.4,2.9-6.7,4.4c-0.1,0.1-0.2,0.1-0.3,0.1
						c0,0,0,0,0,0.1c-0.3,0.2-0.6,0.4-0.9,0.7C135.3,365.9,135.2,365.9,135.2,365.8C135.2,365.9,135.2,365.9,135.2,365.8z
						 M138.3,363.7C138.2,363.7,138.2,363.7,138.3,363.7c0,0,0.1,0,0.2-0.1c0,0,0,0,0.4,0C138.8,363.6,138.5,363.6,138.3,363.7z
						 M135,366.3L135,366.3c-0.1,0-0.2,0-0.2,0C134.8,366.3,134.9,366.3,135,366.3z M158,355.4l0.5-0.3l-2-3.3
						c-1.1,0.6-2.1,1.2-3.2,1.8l0.9-0.6c0.8-0.4,1.5-0.8,2.3-1.2l2,3.4L158,355.4z M135.6,364.6c0.4-0.1,0.7-0.2,0.9-0.3
						c0.2-0.1,0.4-0.3,0.6-0.4c0.6-0.3,1.2-0.7,1.8-1c-0.1,0,0-0.1,0.1-0.1l0.2-0.1c-0.6,0.3-1.3,0.7-1.9,1
						C136.8,364,136.1,364.4,135.6,364.6z M131.4,367.4L131.4,367.4c-0.1,0-0.1,0,0-0.1C131.4,367.3,131.4,367.3,131.4,367.4z
						 M131.3,367.6L131.3,367.6C131.3,367.6,131.3,367.6,131.3,367.6z M132.1,367.2c-0.1,0-0.1,0-0.1,0
						C132.1,367.2,132.1,367.2,132.1,367.2z M133.8,368.8l0.1-0.5L133.8,368.8L133.8,368.8z"/>
				</g>
			</g>
		</g>
	</g>
</g>
</svg>
